<svg width="298" height="8" viewBox="0 0 298 8" fill="none" xmlns="http://www.w3.org/2000/svg">
<g clip-path="url(#clip0_4011_7445)">
<rect width="298" height="8" fill="url(#paint0_linear_4011_7445)"/>
<rect x="1" y="2" width="6" height="4" rx="1" fill="white"/>
<rect x="9" y="2" width="6" height="4" rx="1" fill="white"/>
<rect x="11.2144" y="2" width="6" height="4" rx="1" fill="white"/>
<rect x="19.2144" y="2" width="6" height="4" rx="1" fill="white"/>
<rect x="21.4287" y="2" width="6" height="4" rx="1" fill="white"/>
<rect x="29.4287" y="2" width="6" height="4" rx="1" fill="white"/>
<rect x="31.6431" y="2" width="6" height="4" rx="1" fill="white"/>
<rect x="39.6431" y="2" width="6" height="4" rx="1" fill="white"/>
<rect x="41.8569" y="2" width="6" height="4" rx="1" fill="white"/>
<rect x="49.8569" y="2" width="6" height="4" rx="1" fill="white"/>
<rect x="52.0713" y="2" width="6" height="4" rx="1" fill="white"/>
<rect x="60.0713" y="2" width="6" height="4" rx="1" fill="white"/>
<rect x="62.2856" y="2" width="6" height="4" rx="1" fill="white"/>
<rect x="70.2856" y="2" width="6" height="4" rx="1" fill="white"/>
<rect x="72.5" y="2" width="6" height="4" rx="1" fill="white"/>
<rect x="80.5" y="2" width="6" height="4" rx="1" fill="white"/>
<rect x="82.7144" y="2" width="6" height="4" rx="1" fill="white"/>
<rect x="90.7144" y="2" width="6" height="4" rx="1" fill="white"/>
<rect x="92.9287" y="2" width="6" height="4" rx="1" fill="white"/>
<rect x="100.929" y="2" width="6" height="4" rx="1" fill="white"/>
<rect x="103.143" y="2" width="6" height="4" rx="1" fill="white"/>
<rect x="111.143" y="2" width="6" height="4" rx="1" fill="white"/>
<rect x="113.357" y="2" width="6" height="4" rx="1" fill="white"/>
<rect x="121.357" y="2" width="6" height="4" rx="1" fill="white"/>
<rect x="123.571" y="2" width="6" height="4" rx="1" fill="white"/>
<rect x="131.571" y="2" width="6" height="4" rx="1" fill="white"/>
<rect x="133.786" y="2" width="6" height="4" rx="1" fill="white"/>
<rect x="141.786" y="2" width="6" height="4" rx="1" fill="white"/>
<rect x="144" y="2" width="6" height="4" rx="1" fill="white"/>
<rect x="152" y="2" width="6" height="4" rx="1" fill="white"/>
<rect x="154.214" y="2" width="6" height="4" rx="1" fill="white"/>
<rect x="162.214" y="2" width="6" height="4" rx="1" fill="white"/>
<rect x="164.429" y="2" width="6" height="4" rx="1" fill="white"/>
<rect x="172.429" y="2" width="6" height="4" rx="1" fill="white"/>
<rect x="174.643" y="2" width="6" height="4" rx="1" fill="white"/>
<rect x="182.643" y="2" width="6" height="4" rx="1" fill="white"/>
<rect x="184.857" y="2" width="6" height="4" rx="1" fill="white"/>
<rect x="192.857" y="2" width="6" height="4" rx="1" fill="white"/>
<rect x="195.071" y="2" width="6" height="4" rx="1" fill="white"/>
<rect x="203.071" y="2" width="6" height="4" rx="1" fill="white"/>
<rect x="205.286" y="2" width="6" height="4" rx="1" fill="white"/>
<rect x="213.286" y="2" width="6" height="4" rx="1" fill="white"/>
<rect x="215.5" y="2" width="6" height="4" rx="1" fill="white"/>
<rect x="223.5" y="2" width="6" height="4" rx="1" fill="white"/>
<rect x="225.714" y="2" width="6" height="4" rx="1" fill="white"/>
<rect x="233.714" y="2" width="6" height="4" rx="1" fill="white"/>
<rect x="235.929" y="2" width="6" height="4" rx="1" fill="white"/>
<rect x="243.929" y="2" width="6" height="4" rx="1" fill="white"/>
<rect x="246.143" y="2" width="6" height="4" rx="1" fill="white"/>
<rect x="254.143" y="2" width="6" height="4" rx="1" fill="white"/>
<rect x="256.357" y="2" width="6" height="4" rx="1" fill="white"/>
<rect x="264.357" y="2" width="6" height="4" rx="1" fill="white"/>
<rect x="266.571" y="2" width="6" height="4" rx="1" fill="white"/>
<rect x="274.571" y="2" width="6" height="4" rx="1" fill="white"/>
<rect x="276.786" y="2" width="6" height="4" rx="1" fill="white"/>
<rect x="284.786" y="2" width="6" height="4" rx="1" fill="white"/>
<rect x="287" y="2" width="6" height="4" rx="1" fill="white"/>
<rect x="295" y="2" width="6" height="4" rx="1" fill="white"/>
</g>
<defs>
<linearGradient id="paint0_linear_4011_7445" x1="-178.152" y1="4" x2="18.6663" y2="253.299" gradientUnits="userSpaceOnUse">
<stop stop-color="#5400B7"/>
<stop offset="1" stop-color="#0098E3"/>
</linearGradient>
<clipPath id="clip0_4011_7445">
<rect width="298" height="8" fill="white"/>
</clipPath>
</defs>
</svg>
