<svg width="168" height="169" viewBox="0 0 168 169" fill="none" xmlns="http://www.w3.org/2000/svg">
<path fill-rule="evenodd" clip-rule="evenodd" d="M60.6328 0C50.2524 0 41.8137 8.47277 41.8137 18.9352V23.1349C41.8137 33.5827 33.397 42.0702 22.9946 42.0702H18.8191C8.43867 42.0702 0 50.5429 0 61.0054V126.21H22.9873C33.3678 126.21 41.8064 117.738 41.8064 107.275V42.0702H106.6C116.981 42.0702 125.412 33.5974 125.412 23.1349V0H60.6182H60.6328Z" fill="white"/>
<path fill-rule="evenodd" clip-rule="evenodd" d="M144.241 42.0703C133.86 42.0703 125.429 50.5431 125.429 61.0055V107.275C125.429 117.723 117.012 126.211 106.617 126.211H60.6423C50.2619 126.211 41.8232 134.683 41.8232 145.146V168.281H106.617C116.997 168.281 125.429 159.808 125.429 149.346V126.211H148.416C158.797 126.211 167.228 117.738 167.228 107.275V42.0703H144.241Z" fill="white"/>
</svg>
