<svg width="28" height="29" viewBox="0 0 28 29" fill="none" xmlns="http://www.w3.org/2000/svg">
<path fill-rule="evenodd" clip-rule="evenodd" d="M24.1512 7.49658C22.4132 7.49658 21.0015 8.90703 21.0015 10.6487V18.3511C21.0015 20.0904 19.5923 21.5033 17.8519 21.5033H10.1543C8.41631 21.5033 7.00342 22.9137 7.00342 24.6554V28.5066H17.8519C19.5899 28.5066 21.0015 27.0961 21.0015 25.3545V21.5033H24.8503C26.5883 21.5033 28 20.0928 28 18.3511V7.49658H24.1512Z" fill="#0098E3"/>
<path fill-rule="evenodd" clip-rule="evenodd" d="M10.1518 0.493164C8.41378 0.493164 7.00089 1.90361 7.00089 3.64528V4.34439C7.00089 6.08361 5.59167 7.4965 3.85 7.4965H3.15089C1.41289 7.4965 0 8.90694 0 10.6486V21.5032H3.84878C5.58678 21.5032 6.99967 20.0927 6.99967 18.3511V7.4965H17.8481C19.5861 7.4965 20.9978 6.08605 20.9978 4.34439V0.493164H10.1493H10.1518Z" fill="#0098E3"/>
</svg>
