<svg width="38" height="32" viewBox="0 0 38 32" fill="none" xmlns="http://www.w3.org/2000/svg">
<path fill-rule="evenodd" clip-rule="evenodd" d="M3.41923 13.7758C13.1175 9.25985 19.5846 6.28267 22.8204 4.84424C32.0592 0.737239 33.979 0.0238091 35.2303 0.00025118C35.5055 -0.00493012 36.1208 0.0679637 36.5194 0.413632C36.856 0.705508 36.9486 1.09979 36.9929 1.37652C37.0372 1.65325 37.0924 2.28365 37.0485 2.77623C36.5479 8.3984 34.3815 22.0419 33.2794 28.3389C32.8131 31.0033 31.8948 31.8967 31.0059 31.9841C29.0739 32.1741 27.6069 30.6196 25.7357 29.3087C22.8077 27.2573 21.1536 25.9804 18.3114 23.9787C15.0268 21.6653 17.1561 20.3939 19.028 18.316C19.5179 17.7722 28.03 9.49735 28.1947 8.74669C28.2154 8.65281 28.2345 8.30286 28.04 8.11807C27.8454 7.93329 27.5583 7.99648 27.3512 8.04673C27.0575 8.11797 22.3799 11.4222 13.3185 17.9596C11.9908 18.9339 10.7882 19.4087 9.71074 19.3838C8.52291 19.3564 6.23798 18.666 4.53937 18.0759C2.45596 17.3521 0.800112 16.9694 0.944299 15.7402C1.0194 15.0999 1.84438 14.4451 3.41923 13.7758Z" fill="url(#paint0_linear_8431_20648)"/>
<defs>
<linearGradient id="paint0_linear_8431_20648" x1="-37" y1="-65" x2="55.343" y2="-66.6714" gradientUnits="userSpaceOnUse">
<stop stop-color="#5400B7"/>
<stop offset="1" stop-color="#0098E3"/>
</linearGradient>
</defs>
</svg>
