<svg width="230" height="40" viewBox="0 0 230 40" fill="none" xmlns="http://www.w3.org/2000/svg">
<path d="M221.765 37.1988V30.0547H223.306V32.3894H224.833C225.38 32.3894 225.866 32.4965 226.289 32.7135C226.712 32.9304 227.039 33.2216 227.264 33.5896C227.5 33.9577 227.619 34.3587 227.619 34.7927C227.619 35.2267 227.5 35.6414 227.264 36.0095C227.039 36.3775 226.712 36.6687 226.289 36.8856C225.863 37.0944 225.38 37.196 224.833 37.196H221.763L221.765 37.1988ZM224.765 35.8556C225.16 35.8556 225.471 35.7568 225.699 35.559C225.927 35.3613 226.039 35.1058 226.039 34.7954C226.039 34.4851 225.927 34.2296 225.699 34.0319C225.473 33.8341 225.16 33.7352 224.765 33.7352H223.306V35.8556H224.765ZM228.443 37.1988V30.0547H230V37.1988H228.443Z" fill="#FF0F43"/>
<path d="M214.125 37.1988V30.0547H217.83C218.292 30.0547 218.693 30.1343 219.033 30.2964C219.374 30.4475 219.627 30.659 219.797 30.9336C219.967 31.1973 220.052 31.4939 220.052 31.8235C220.052 32.3619 219.92 32.7437 219.657 32.9689C219.393 33.1859 219.151 33.3232 218.934 33.3782H218.921V33.4194H218.934C219.066 33.4386 219.242 33.4935 219.459 33.5896C219.676 33.683 219.882 33.8643 220.083 34.128C220.28 34.3834 220.379 34.7213 220.379 35.147C220.379 35.7595 220.154 36.2539 219.701 36.633C219.259 37.0092 218.635 37.1988 217.833 37.1988H214.128H214.125ZM217.759 35.9271C218.088 35.9271 218.349 35.8419 218.536 35.6716C218.726 35.5013 218.819 35.2816 218.819 35.0069C218.819 34.7323 218.726 34.5125 218.536 34.3422C218.347 34.1719 218.088 34.0868 217.759 34.0868H215.666V35.9243H217.759V35.9271ZM217.646 32.8865C217.929 32.8865 218.146 32.8151 218.297 32.675C218.456 32.5349 218.539 32.3454 218.539 32.1092C218.539 31.873 218.459 31.6862 218.297 31.5434C218.146 31.4033 217.929 31.3319 217.646 31.3319H215.666V32.8865H217.646Z" fill="#FF0F43"/>
<path d="M206.487 37.1988V30.0547H208.028V32.8123H209.159L211.252 30.0547H213.021L210.546 33.3782L213.233 37.196H211.395L209.275 34.1829H208.03V37.196H206.49L206.487 37.1988Z" fill="#FF0F43"/>
<path d="M201.632 37.3678C200.943 37.3678 200.317 37.203 199.751 36.8734C199.185 36.5438 198.738 36.0961 198.408 35.5303C198.087 34.9645 197.927 34.3328 197.927 33.6351C197.927 32.9375 198.087 32.3057 198.408 31.7399C198.738 31.1659 199.185 30.7127 199.751 30.3831C200.317 30.0535 200.943 29.8887 201.632 29.8887C202.322 29.8887 202.869 30.015 203.357 30.2705C203.846 30.5149 204.239 30.8363 204.53 31.2318C204.821 31.6273 205.036 32.0613 205.167 32.5337H203.583C203.44 32.1766 203.206 31.8745 202.874 31.6273C202.544 31.3829 202.13 31.2593 201.63 31.2593C201.242 31.2593 200.885 31.3581 200.556 31.5559C200.234 31.7537 199.982 32.0311 199.792 32.3909C199.603 32.748 199.509 33.1654 199.509 33.6351C199.509 34.1048 199.603 34.5086 199.792 34.8656C199.982 35.2227 200.234 35.5029 200.556 35.7006C200.885 35.8984 201.245 35.9973 201.63 35.9973C202.138 35.9973 202.564 35.8709 202.901 35.6155C203.242 35.3518 203.476 35.0304 203.607 34.6541H205.192C205.08 35.1348 204.871 35.5825 204.569 35.9973C204.278 36.4038 203.879 36.7334 203.379 36.9861C202.89 37.2415 202.305 37.3678 201.624 37.3678H201.632Z" fill="#FF0F43"/>
<path d="M193.167 37.3678C192.451 37.3678 191.8 37.2085 191.215 36.8872C190.64 36.5576 190.187 36.1099 189.858 35.5441C189.528 34.97 189.363 34.3328 189.363 33.6351C189.363 32.9375 189.528 32.3002 189.858 31.7262C190.187 31.1521 190.64 30.7044 191.215 30.3831C191.8 30.0535 192.451 29.8887 193.167 29.8887C193.884 29.8887 194.544 30.0535 195.12 30.3831C195.705 30.7044 196.161 31.1521 196.494 31.7262C196.823 32.3002 196.988 32.9375 196.988 33.6351C196.988 34.3328 196.823 34.97 196.494 35.5441C196.164 36.1099 195.705 36.5576 195.12 36.8872C194.546 37.2085 193.895 37.3678 193.167 37.3678ZM193.167 35.9945C193.59 35.9945 193.972 35.8956 194.313 35.6979C194.653 35.5001 194.917 35.2227 195.104 34.8629C195.302 34.5058 195.4 34.0938 195.4 33.6324C195.4 33.1709 195.302 32.7452 195.104 32.3881C194.914 32.0311 194.651 31.7509 194.313 31.5532C193.972 31.3554 193.59 31.2565 193.167 31.2565C192.744 31.2565 192.376 31.3554 192.036 31.5532C191.695 31.7509 191.429 32.0283 191.228 32.3881C191.039 32.7452 190.945 33.1627 190.945 33.6324C190.945 34.1021 191.039 34.5058 191.228 34.8629C191.426 35.22 191.695 35.5001 192.036 35.6979C192.376 35.8956 192.753 35.9945 193.167 35.9945Z" fill="#FF0F43"/>
<path d="M176.819 37.1986V27.2969H179.42L182.109 33.3093H182.603L185.306 27.2969H187.91V37.1986H186.226V29.8018L186.298 29.0959H186.212L183.639 34.8667H181.093L178.519 29.0959H178.434L178.505 29.8018V37.1986H176.822H176.819Z" fill="#FF0F43"/>
<path d="M166.953 37.3686C166.34 37.3686 165.775 37.2121 165.255 36.9017C164.747 36.5804 164.341 36.1381 164.039 35.5723C163.737 34.9983 163.585 34.3501 163.585 33.6359C163.585 32.9218 163.737 32.2626 164.039 31.6968C164.341 31.1227 164.747 30.6778 165.255 30.3674C165.775 30.046 166.34 29.8867 166.953 29.8867C167.395 29.8867 167.782 29.9609 168.112 30.1119C168.453 30.2548 168.724 30.4223 168.933 30.6201C169.142 30.8178 169.277 30.9744 169.342 31.087H169.386V30.0543H170.941V37.1983H169.386V36.1656H169.342C169.277 36.2892 169.139 36.4485 168.933 36.6463C168.724 36.8358 168.453 37.0033 168.112 37.1544C167.782 37.2972 167.395 37.3659 166.953 37.3659V37.3686ZM167.263 35.9953C167.659 35.9953 168.019 35.9019 168.337 35.7124C168.667 35.5146 168.922 35.2372 169.101 34.8774C169.29 34.5203 169.384 34.1029 169.384 33.6332C169.384 33.1635 169.29 32.7323 169.101 32.3752C168.922 32.0181 168.667 31.7435 168.337 31.5539C168.016 31.3562 167.659 31.2573 167.263 31.2573C166.868 31.2573 166.522 31.3562 166.203 31.5539C165.882 31.7435 165.629 32.0154 165.439 32.3752C165.261 32.7323 165.17 33.1525 165.17 33.6332C165.17 34.1138 165.261 34.5203 165.439 34.8774C165.629 35.2345 165.882 35.5146 166.203 35.7124C166.524 35.9019 166.876 35.9953 167.263 35.9953Z" fill="#FF0F43"/>
<path d="M156.345 37.1988V30.0547H160.05C160.512 30.0547 160.913 30.1343 161.254 30.2964C161.594 30.4475 161.847 30.659 162.017 30.9336C162.187 31.1973 162.273 31.4939 162.273 31.8235C162.273 32.3619 162.141 32.7437 161.877 32.9689C161.613 33.1859 161.372 33.3232 161.155 33.3782H161.141V33.4194H161.155C161.286 33.4386 161.462 33.4935 161.679 33.5896C161.896 33.683 162.105 33.8643 162.303 34.128C162.5 34.3834 162.599 34.7213 162.599 35.147C162.599 35.7595 162.374 36.2539 161.921 36.633C161.479 37.0092 160.855 37.1988 160.053 37.1988H156.348H156.345ZM159.979 35.9271C160.309 35.9271 160.57 35.8419 160.756 35.6716C160.946 35.5013 161.039 35.2816 161.039 35.0069C161.039 34.7323 160.946 34.5125 160.756 34.3422C160.567 34.1719 160.309 34.0868 159.979 34.0868H157.886V35.9243H159.979V35.9271ZM159.866 32.8865C160.149 32.8865 160.366 32.8151 160.517 32.675C160.677 32.5349 160.759 32.3454 160.759 32.1092C160.759 31.873 160.679 31.6862 160.517 31.5434C160.366 31.4033 160.149 31.3319 159.866 31.3319H157.886V32.8865H159.866Z" fill="#FF0F43"/>
<path d="M151.397 37.1988V31.428H148.95V30.0547H155.385V31.428H152.938V37.1988H151.397Z" fill="#FF0F43"/>
<path d="M144.914 37.3678C144.224 37.3678 143.598 37.203 143.032 36.8734C142.466 36.5438 142.019 36.0961 141.689 35.5303C141.368 34.9645 141.208 34.3328 141.208 33.6351C141.208 32.9375 141.368 32.3057 141.689 31.7399C142.019 31.1659 142.466 30.7127 143.032 30.3831C143.598 30.0535 144.224 29.8887 144.914 29.8887C145.603 29.8887 146.15 30.015 146.639 30.2705C147.128 30.5149 147.52 30.8363 147.811 31.2318C148.103 31.6273 148.317 32.0613 148.449 32.5337H146.864C146.721 32.1766 146.488 31.8745 146.155 31.6273C145.826 31.3829 145.411 31.2593 144.911 31.2593C144.524 31.2593 144.167 31.3581 143.837 31.5559C143.516 31.7537 143.263 32.0311 143.073 32.3909C142.884 32.748 142.791 33.1654 142.791 33.6351C142.791 34.1048 142.884 34.5086 143.073 34.8656C143.263 35.2227 143.516 35.5029 143.837 35.7006C144.167 35.8984 144.526 35.9973 144.911 35.9973C145.419 35.9973 145.845 35.8709 146.183 35.6155C146.523 35.3518 146.757 35.0304 146.889 34.6541H148.473C148.361 35.1348 148.152 35.5825 147.85 35.9973C147.559 36.4038 147.161 36.7334 146.661 36.9861C146.169 37.2415 145.587 37.3678 144.906 37.3678H144.914Z" fill="#FF0F43"/>
<path d="M134.285 37.1988V30.0547H135.826V32.3894H137.636C138.182 32.3894 138.668 32.4965 139.091 32.7135C139.517 32.9304 139.841 33.2216 140.066 33.5896C140.303 33.9577 140.421 34.3587 140.421 34.7927C140.421 35.2267 140.303 35.6414 140.066 36.0095C139.841 36.3775 139.514 36.6687 139.091 36.8856C138.666 37.0944 138.182 37.196 137.636 37.196H134.285V37.1988ZM137.567 35.8556C137.962 35.8556 138.273 35.7568 138.501 35.559C138.729 35.3613 138.841 35.1058 138.841 34.7954C138.841 34.4851 138.729 34.2296 138.501 34.0319C138.276 33.8341 137.962 33.7352 137.567 33.7352H135.828V35.8556H137.567Z" fill="#FF0F43"/>
<path d="M126.034 37.1988L127.987 30.0547H131.368L133.321 37.1988H131.736L130.179 31.428H129.173L127.616 37.1988H126.031H126.034Z" fill="#FF0F43"/>
<path d="M121.751 37.3678C121.054 37.3678 120.422 37.2085 119.856 36.8872C119.29 36.5576 118.843 36.1099 118.513 35.5441C118.183 34.97 118.019 34.3328 118.019 33.6351C118.019 32.9375 118.183 32.3002 118.513 31.7262C118.843 31.1521 119.29 30.7044 119.856 30.3831C120.422 30.0535 121.054 29.8887 121.751 29.8887C122.449 29.8887 123.094 30.0535 123.66 30.3831C124.226 30.7044 124.668 31.1521 124.99 31.7262C125.311 32.292 125.47 32.9155 125.47 33.5939V34.0169H119.601C119.647 34.385 119.771 34.7201 119.969 35.0222C120.177 35.3243 120.436 35.5633 120.746 35.7446C121.056 35.9149 121.391 36 121.751 36C122.24 36 122.658 35.9011 122.996 35.7034C123.333 35.4946 123.586 35.2419 123.745 34.9398H125.358C125.121 35.6182 124.698 36.195 124.086 36.6647C123.482 37.1371 122.704 37.3706 121.751 37.3706V37.3678ZM123.817 32.9265C123.77 32.6244 123.652 32.3469 123.462 32.0915C123.284 31.8361 123.042 31.6356 122.74 31.4845C122.449 31.3334 122.117 31.2593 121.751 31.2593C121.386 31.2593 121.062 31.3334 120.762 31.4845C120.471 31.6356 120.23 31.8388 120.04 32.0915C119.851 32.3469 119.719 32.6244 119.645 32.9265H123.817Z" fill="#FF0F43"/>
<path d="M113.492 37.1988V31.428H111.045V30.0547H117.48V31.428H115.033V37.1988H113.492Z" fill="#FF0F43"/>
<path d="M103.452 37.1988V30.0547H104.993V34.2708L104.949 34.9767H105.035L108.402 30.0547H110.086V37.1988H108.545V32.9826L108.586 32.2767H108.501L105.133 37.1988H103.45H103.452Z" fill="#FF0F43"/>
<path d="M95.8145 37.1988V30.0547H99.5197C99.9811 30.0547 100.382 30.1343 100.723 30.2964C101.061 30.4475 101.316 30.659 101.486 30.9336C101.657 31.1973 101.742 31.4939 101.742 31.8235C101.742 32.3619 101.61 32.7437 101.346 32.9689C101.083 33.1859 100.841 33.3232 100.624 33.3782H100.61V33.4194H100.624C100.756 33.4386 100.932 33.4935 101.148 33.5896C101.365 33.683 101.574 33.8643 101.772 34.128C101.97 34.3834 102.069 34.7213 102.069 35.147C102.069 35.7595 101.843 36.2539 101.39 36.633C100.948 37.0092 100.324 37.1988 99.5225 37.1988H95.8172H95.8145ZM99.4483 35.9271C99.7779 35.9271 100.039 35.8419 100.226 35.6716C100.415 35.5013 100.509 35.2816 100.509 35.0069C100.509 34.7323 100.415 34.5125 100.226 34.3422C100.036 34.1719 99.7779 34.0868 99.4483 34.0868H97.3553V35.9243H99.4483V35.9271ZM99.3357 32.8865C99.6186 32.8865 99.8356 32.8151 99.9866 32.675C100.146 32.5349 100.228 32.3454 100.228 32.1092C100.228 31.873 100.149 31.6862 99.9866 31.5434C99.8356 31.4033 99.6186 31.3319 99.3357 31.3319H97.3553V32.8865H99.3357Z" fill="#FF0F43"/>
<path d="M90.0544 37.3686C89.4419 37.3686 88.8761 37.2121 88.357 36.9017C87.8489 36.5804 87.4424 36.1381 87.1402 35.5723C86.8381 34.9983 86.687 34.3501 86.687 33.6359C86.687 32.9218 86.8381 32.2626 87.1402 31.6968C87.4424 31.1227 87.8461 30.6778 88.357 30.3674C88.8761 30.046 89.4419 29.8867 90.0544 29.8867C90.4966 29.8867 90.8839 29.9609 91.2135 30.1119C91.5541 30.2548 91.826 30.4223 92.0348 30.6201C92.2435 30.8178 92.3781 30.9744 92.444 31.087H92.4852V30.0543H94.0426V37.1983H92.4852V36.1656H92.444C92.3781 36.2892 92.2408 36.4485 92.0348 36.6463C91.8288 36.8358 91.5541 37.0033 91.2135 37.1544C90.8839 37.2972 90.4966 37.3659 90.0544 37.3659V37.3686ZM90.3648 35.9953C90.7603 35.9953 91.1201 35.9019 91.4388 35.7124C91.7684 35.5146 92.0238 35.2372 92.2023 34.8774C92.3918 34.5203 92.4852 34.1029 92.4852 33.6332C92.4852 33.1635 92.3918 32.7323 92.2023 32.3752C92.0238 32.0181 91.7684 31.7435 91.4388 31.5539C91.1174 31.3562 90.7603 31.2573 90.3648 31.2573C89.9693 31.2573 89.626 31.3562 89.3046 31.5539C88.9832 31.7435 88.7305 32.0154 88.541 32.3752C88.3625 32.7323 88.2718 33.1525 88.2718 33.6332C88.2718 34.1138 88.3625 34.5203 88.541 34.8774C88.7305 35.2345 88.9832 35.5146 89.3046 35.7124C89.626 35.9019 89.9775 35.9953 90.3648 35.9953Z" fill="#FF0F43"/>
<path d="M78.355 39.8865V30.0562H79.8959V31.089H79.9398C80.014 30.9654 80.1568 30.8116 80.3628 30.622C80.5715 30.4243 80.8407 30.254 81.1703 30.1139C81.4999 29.9628 81.8927 29.8887 82.3459 29.8887C82.9584 29.8887 83.5187 30.048 84.0296 30.3693C84.5377 30.6797 84.9442 31.1247 85.2464 31.6987C85.5485 32.2645 85.6996 32.91 85.6996 33.6379C85.6996 34.3657 85.5485 35.0002 85.2464 35.5743C84.9442 36.1401 84.5405 36.5823 84.0296 36.9037C83.5215 37.214 82.9584 37.3706 82.3459 37.3706C81.8927 37.3706 81.5027 37.2992 81.1703 37.1591C80.8407 37.008 80.5715 36.8377 80.3628 36.651C80.1568 36.4532 80.014 36.2939 79.9398 36.1703H79.8959V39.8893H78.355V39.8865ZM82.019 35.9973C82.4146 35.9973 82.7689 35.9039 83.0793 35.7144C83.4006 35.5166 83.6506 35.2392 83.8291 34.8794C84.0186 34.5223 84.112 34.1048 84.112 33.6351C84.112 33.1654 84.0186 32.7342 83.8291 32.3772C83.6506 32.0201 83.4006 31.7454 83.0793 31.5559C82.7689 31.3581 82.4146 31.2593 82.019 31.2593C81.6235 31.2593 81.261 31.3581 80.9314 31.5559C80.61 31.7454 80.3573 32.0173 80.1678 32.3772C79.9892 32.7342 79.8986 33.1545 79.8986 33.6351C79.8986 34.1158 79.9892 34.5223 80.1678 34.8794C80.3573 35.2364 80.61 35.5166 80.9314 35.7144C81.261 35.9039 81.6235 35.9973 82.019 35.9973Z" fill="#FF0F43"/>
<path d="M68.2051 37.1986V27.2969H76.4368V37.1986H74.7394V28.8817H69.8888V37.1986H68.2051Z" fill="#FF0F43"/>
<path d="M196.639 23.5494V16.4053H200.344C200.806 16.4053 201.207 16.4849 201.547 16.647C201.888 16.798 202.141 17.0095 202.311 17.2842C202.481 17.5479 202.566 17.8445 202.566 18.1741C202.566 18.7125 202.435 19.0943 202.171 19.3195C201.907 19.5365 201.666 19.6738 201.449 19.7287H201.435V19.7699H201.449C201.58 19.7892 201.756 19.8441 201.973 19.9402C202.19 20.0336 202.396 20.2149 202.597 20.4786C202.794 20.734 202.893 21.0719 202.893 21.4976C202.893 22.1101 202.668 22.6045 202.215 22.9835C201.773 23.3598 201.149 23.5494 200.347 23.5494H196.642H196.639ZM200.273 22.2777C200.603 22.2777 200.864 22.1925 201.05 22.0222C201.24 21.8519 201.333 21.6322 201.333 21.3575C201.333 21.0829 201.24 20.8631 201.05 20.6928C200.861 20.5225 200.603 20.4374 200.273 20.4374H198.18V22.2749H200.273V22.2777ZM200.16 19.2371C200.443 19.2371 200.66 19.1657 200.811 19.0256C200.971 18.8855 201.053 18.696 201.053 18.4598C201.053 18.2236 200.973 18.0368 200.811 17.894C200.66 17.7539 200.443 17.6825 200.16 17.6825H198.18V19.2371H200.16Z" fill="#FF0F43"/>
<path d="M191.455 23.7204C190.738 23.7204 190.087 23.5611 189.502 23.2397C188.928 22.9101 188.474 22.4624 188.145 21.8966C187.815 21.3225 187.65 20.6853 187.65 19.9877C187.65 19.29 187.815 18.6528 188.145 18.0787C188.474 17.5047 188.928 17.057 189.502 16.7356C190.087 16.406 190.738 16.2412 191.455 16.2412C192.171 16.2412 192.831 16.406 193.407 16.7356C193.992 17.057 194.448 17.5047 194.778 18.0787C195.108 18.6528 195.272 19.29 195.272 19.9877C195.272 20.6853 195.108 21.3225 194.778 21.8966C194.448 22.4624 193.99 22.9101 193.407 23.2397C192.833 23.5611 192.182 23.7204 191.455 23.7204ZM191.455 22.3471C191.88 22.3471 192.262 22.2482 192.6 22.0504C192.94 21.8527 193.204 21.5752 193.391 21.2154C193.589 20.8584 193.688 20.4464 193.688 19.9849C193.688 19.5235 193.589 19.0977 193.391 18.7407C193.201 18.3836 192.938 18.1035 192.6 17.9057C192.259 17.7079 191.878 17.6091 191.455 17.6091C191.032 17.6091 190.663 17.7079 190.323 17.9057C189.985 18.1035 189.716 18.3809 189.518 18.7407C189.329 19.0977 189.235 19.5152 189.235 19.9849C189.235 20.4546 189.329 20.8584 189.518 21.2154C189.716 21.5725 189.985 21.8527 190.323 22.0504C190.663 22.2482 191.04 22.3471 191.455 22.3471Z" fill="#FF0F43"/>
<path d="M183.218 23.7204C182.529 23.7204 181.903 23.5556 181.337 23.226C180.771 22.8964 180.323 22.4487 179.994 21.8829C179.672 21.3171 179.513 20.6853 179.513 19.9877C179.513 19.29 179.672 18.6583 179.994 18.0925C180.323 17.5184 180.771 17.0652 181.337 16.7356C181.903 16.406 182.529 16.2412 183.218 16.2412C183.908 16.2412 184.454 16.3676 184.943 16.623C185.432 16.8675 185.825 17.1888 186.116 17.5843C186.407 17.9799 186.622 18.4138 186.753 18.8863H185.169C185.026 18.5292 184.792 18.2271 184.46 17.9799C184.13 17.7354 183.716 17.6118 183.216 17.6118C182.828 17.6118 182.471 17.7107 182.142 17.9084C181.82 18.1062 181.568 18.3836 181.378 18.7434C181.189 19.1005 181.095 19.518 181.095 19.9877C181.095 20.4573 181.189 20.8611 181.378 21.2182C181.568 21.5752 181.82 21.8554 182.142 22.0532C182.471 22.2509 182.831 22.3498 183.216 22.3498C183.724 22.3498 184.15 22.2235 184.487 21.968C184.828 21.7043 185.061 21.383 185.193 21.0067H186.778C186.666 21.4873 186.457 21.9351 186.155 22.3498C185.863 22.7563 185.465 23.0859 184.965 23.3386C184.474 23.594 183.891 23.7204 183.21 23.7204H183.218Z" fill="#FF0F43"/>
<path d="M171.526 23.5494V16.4053H173.067V20.6214L173.026 21.3273H173.111L176.479 16.4053H178.162V23.5494H176.621V19.3332L176.665 18.6273H176.58L173.213 23.5494H171.529H171.526Z" fill="#FF0F43"/>
<path d="M163.888 23.5494V16.4053H167.593C168.055 16.4053 168.456 16.4849 168.796 16.647C169.137 16.798 169.39 17.0095 169.56 17.2842C169.73 17.5479 169.815 17.8445 169.815 18.1741C169.815 18.7125 169.684 19.0943 169.42 19.3195C169.156 19.5365 168.915 19.6738 168.698 19.7287H168.684V19.7699H168.698C168.829 19.7892 169.005 19.8441 169.222 19.9402C169.439 20.0336 169.648 20.2149 169.846 20.4786C170.043 20.734 170.142 21.0719 170.142 21.4976C170.142 22.1101 169.917 22.6045 169.464 22.9835C169.022 23.3598 168.398 23.5494 167.596 23.5494H163.891H163.888ZM167.522 22.2777C167.852 22.2777 168.11 22.1925 168.299 22.0222C168.489 21.8519 168.582 21.6322 168.582 21.3575C168.582 21.0829 168.489 20.8631 168.299 20.6928C168.11 20.5225 167.852 20.4374 167.522 20.4374H165.429V22.2749H167.522V22.2777ZM167.409 19.2371C167.692 19.2371 167.909 19.1657 168.06 19.0256C168.22 18.8855 168.302 18.696 168.302 18.4598C168.302 18.2236 168.222 18.0368 168.06 17.894C167.909 17.7539 167.692 17.6825 167.409 17.6825H165.429V19.2371H167.409Z" fill="#FF0F43"/>
<path d="M155.157 26.2371V16.4068H156.698V17.4396H156.742C156.816 17.316 156.959 17.1621 157.165 16.9726C157.373 16.7749 157.64 16.6046 157.972 16.4645C158.302 16.3134 158.694 16.2393 159.145 16.2393C159.757 16.2393 160.32 16.3986 160.829 16.7199C161.337 17.0303 161.743 17.4753 162.045 18.0493C162.348 18.6151 162.499 19.2606 162.499 19.9857C162.499 20.7108 162.348 21.3481 162.045 21.9221C161.743 22.4879 161.339 22.9301 160.829 23.2515C160.32 23.5619 159.757 23.7184 159.145 23.7184C158.692 23.7184 158.302 23.647 157.972 23.5069C157.642 23.3559 157.373 23.1856 157.165 22.9988C156.956 22.801 156.816 22.6417 156.742 22.5181H156.698V26.2371H155.157ZM158.821 22.3478C159.216 22.3478 159.571 22.2545 159.881 22.0649C160.202 21.8672 160.452 21.5898 160.631 21.23C160.82 20.8729 160.914 20.4554 160.914 19.9857C160.914 19.516 160.82 19.0848 160.631 18.7277C160.452 18.3707 160.202 18.096 159.881 17.9065C159.571 17.7087 159.216 17.6098 158.821 17.6098C158.425 17.6098 158.063 17.7087 157.733 17.9065C157.412 18.096 157.159 18.3679 156.97 18.7277C156.791 19.0848 156.7 19.505 156.7 19.9857C156.7 20.4664 156.791 20.8729 156.97 21.23C157.159 21.587 157.412 21.8672 157.733 22.0649C158.063 22.2545 158.425 22.3478 158.821 22.3478Z" fill="#FF0F43"/>
<path d="M150.054 23.7204C149.356 23.7204 148.724 23.5611 148.158 23.2397C147.593 22.9101 147.145 22.4624 146.815 21.8966C146.486 21.3225 146.321 20.6853 146.321 19.9877C146.321 19.29 146.486 18.6528 146.815 18.0787C147.145 17.5047 147.593 17.057 148.158 16.7356C148.724 16.406 149.356 16.2412 150.054 16.2412C150.751 16.2412 151.397 16.406 151.962 16.7356C152.528 17.057 152.97 17.5047 153.292 18.0787C153.613 18.6445 153.773 19.268 153.773 19.9465V20.3695H147.903C147.95 20.7375 148.073 21.0726 148.271 21.3747C148.48 21.6769 148.738 21.9158 149.048 22.0971C149.359 22.2674 149.694 22.3525 150.054 22.3525C150.542 22.3525 150.96 22.2537 151.298 22.0559C151.638 21.8472 151.888 21.5945 152.048 21.2923H153.66C153.424 21.9708 153.001 22.5476 152.385 23.0172C151.781 23.4897 151.004 23.7231 150.051 23.7231L150.054 23.7204ZM152.119 19.279C152.072 18.9769 151.954 18.6995 151.765 18.444C151.586 18.1886 151.344 17.9853 151.042 17.837C150.751 17.686 150.419 17.6118 150.054 17.6118C149.688 17.6118 149.364 17.686 149.065 17.837C148.774 17.9881 148.532 18.1913 148.342 18.444C148.153 18.6995 148.021 18.9769 147.947 19.279H152.119Z" fill="#FF0F43"/>
<path d="M141.89 23.7204C141.2 23.7204 140.574 23.5556 140.008 23.226C139.443 22.8964 138.995 22.4487 138.665 21.8829C138.344 21.3171 138.185 20.6853 138.185 19.9877C138.185 19.29 138.344 18.6583 138.665 18.0925C138.995 17.5184 139.443 17.0652 140.008 16.7356C140.574 16.406 141.2 16.2412 141.89 16.2412C142.579 16.2412 143.126 16.3676 143.615 16.623C144.104 16.8675 144.496 17.1888 144.788 17.5843C145.079 17.9799 145.293 18.4138 145.425 18.8863H143.84C143.697 18.5292 143.464 18.2271 143.134 17.9799C142.804 17.7354 142.39 17.6118 141.89 17.6118C141.503 17.6118 141.145 17.7107 140.816 17.9084C140.495 18.1062 140.242 18.3836 140.052 18.7434C139.863 19.1005 139.769 19.518 139.769 19.9877C139.769 20.4573 139.863 20.8611 140.052 21.2182C140.242 21.5752 140.495 21.8554 140.816 22.0532C141.145 22.2509 141.505 22.3498 141.89 22.3498C142.398 22.3498 142.824 22.2235 143.162 21.968C143.502 21.7043 143.736 21.383 143.867 21.0067H145.452C145.34 21.4873 145.131 21.9351 144.829 22.3498C144.538 22.7563 144.139 23.0859 143.639 23.3386C143.151 23.594 142.566 23.7204 141.884 23.7204H141.89Z" fill="#FF0F43"/>
<path d="M126.476 23.5495L128.596 19.9157L126.588 16.4082H128.313L129.827 19.2098H130.321L131.848 16.4082H133.573L131.565 19.9157L133.686 23.5495H131.961L130.321 20.5804H129.827L128.2 23.5495H126.476Z" fill="#FF0F43"/>
<path d="M117.294 23.5494V16.4053H118.835V18.7399H120.362C120.908 18.7399 121.395 18.8471 121.818 19.064C122.243 19.281 122.567 19.5722 122.793 19.9402C123.029 20.3083 123.147 20.7093 123.147 21.1433C123.147 21.5773 123.029 21.992 122.793 22.3601C122.567 22.7281 122.241 23.0193 121.818 23.2362C121.392 23.445 120.908 23.5466 120.362 23.5466H117.291L117.294 23.5494ZM120.293 22.2062C120.689 22.2062 120.999 22.1074 121.227 21.9096C121.452 21.7118 121.568 21.4564 121.568 21.146C121.568 20.8356 121.455 20.5802 121.227 20.3824C121.002 20.1847 120.689 20.0858 120.293 20.0858H118.837V22.2062H120.293ZM123.971 23.5494V16.4053H125.528V23.5494H123.971Z" fill="#FF0F43"/>
<path d="M109.655 23.5494V16.4053H113.36C113.821 16.4053 114.222 16.4849 114.563 16.647C114.901 16.798 115.156 17.0095 115.327 17.2842C115.497 17.5479 115.582 17.8445 115.582 18.1741C115.582 18.7125 115.45 19.0943 115.187 19.3195C114.923 19.5365 114.681 19.6738 114.464 19.7287H114.45V19.7699H114.464C114.596 19.7892 114.772 19.8441 114.989 19.9402C115.206 20.0336 115.415 20.2149 115.612 20.4786C115.81 20.734 115.909 21.0719 115.909 21.4976C115.909 22.1101 115.684 22.6045 115.231 22.9835C114.788 23.3598 114.165 23.5494 113.363 23.5494H109.658H109.655ZM113.289 22.2777C113.618 22.2777 113.879 22.1925 114.066 22.0222C114.255 21.8519 114.349 21.6322 114.349 21.3575C114.349 21.0829 114.255 20.8631 114.066 20.6928C113.876 20.5225 113.618 20.4374 113.289 20.4374H111.196V22.2749H113.289V22.2777ZM113.176 19.2371C113.459 19.2371 113.676 19.1657 113.827 19.0256C113.986 18.8855 114.069 18.696 114.069 18.4598C114.069 18.2236 113.989 18.0368 113.827 17.894C113.676 17.7539 113.459 17.6825 113.176 17.6825H111.196V19.2371H113.176Z" fill="#FF0F43"/>
<path d="M104.473 23.7204C103.756 23.7204 103.105 23.5611 102.52 23.2397C101.946 22.9101 101.492 22.4624 101.163 21.8966C100.833 21.3225 100.668 20.6853 100.668 19.9877C100.668 19.29 100.833 18.6528 101.163 18.0787C101.492 17.5047 101.946 17.057 102.52 16.7356C103.105 16.406 103.756 16.2412 104.473 16.2412C105.189 16.2412 105.849 16.406 106.425 16.7356C107.011 17.057 107.466 17.5047 107.796 18.0787C108.126 18.6528 108.29 19.29 108.29 19.9877C108.29 20.6853 108.126 21.3225 107.796 21.8966C107.466 22.4624 107.008 22.9101 106.425 23.2397C105.851 23.5611 105.2 23.7204 104.473 23.7204ZM104.473 22.3471C104.898 22.3471 105.28 22.2482 105.618 22.0504C105.959 21.8527 106.222 21.5752 106.409 21.2154C106.607 20.8584 106.706 20.4464 106.706 19.9849C106.706 19.5235 106.607 19.0977 106.409 18.7407C106.219 18.3836 105.956 18.1035 105.618 17.9057C105.28 17.7079 104.896 17.6091 104.473 17.6091C104.05 17.6091 103.682 17.7079 103.341 17.9057C103.003 18.1035 102.734 18.3809 102.533 18.7407C102.344 19.0977 102.251 19.5152 102.251 19.9849C102.251 20.4546 102.344 20.8584 102.533 21.2154C102.731 21.5725 103 21.8527 103.341 22.0504C103.682 22.2482 104.058 22.3471 104.473 22.3471Z" fill="#FF0F43"/>
<path d="M92.3623 26.2371V16.4068H93.9032V17.4396H93.9444C94.0185 17.316 94.1614 17.1621 94.3701 16.9726C94.5789 16.7749 94.8453 16.6046 95.1749 16.4645C95.5045 16.3134 95.8973 16.2393 96.3505 16.2393C96.963 16.2393 97.5233 16.3986 98.0342 16.7199C98.5423 17.0303 98.9488 17.4753 99.251 18.0493C99.5531 18.6151 99.7042 19.2606 99.7042 19.9857C99.7042 20.7108 99.5531 21.3481 99.251 21.9221C98.9488 22.4879 98.5451 22.9301 98.0342 23.2515C97.526 23.5619 96.963 23.7184 96.3505 23.7184C95.8973 23.7184 95.5072 23.647 95.1749 23.5069C94.8453 23.3559 94.5761 23.1856 94.3701 22.9988C94.1614 22.801 94.0213 22.6417 93.9444 22.5181H93.9032V26.2371H92.3623ZM96.0264 22.3478C96.4219 22.3478 96.7762 22.2545 97.0866 22.0649C97.4079 21.8672 97.6579 21.5898 97.8364 21.23C98.0259 20.8729 98.1193 20.4554 98.1193 19.9857C98.1193 19.516 98.0259 19.0848 97.8364 18.7277C97.6579 18.3707 97.4079 18.096 97.0866 17.9065C96.7762 17.7087 96.4219 17.6098 96.0264 17.6098C95.6308 17.6098 95.2683 17.7087 94.9359 17.9065C94.6146 18.096 94.3619 18.3679 94.1724 18.7277C93.9938 19.0848 93.9032 19.505 93.9032 19.9857C93.9032 20.4664 93.9938 20.8729 94.1724 21.23C94.3619 21.587 94.6146 21.8672 94.9359 22.0649C95.2655 22.2545 95.6281 22.3478 96.0264 22.3478Z" fill="#FF0F43"/>
<path d="M83.3365 25.104V22.176H84.1138L85.6685 16.4053H89.0633L90.618 22.176H91.3953V25.104H89.9093V23.5494H84.817V25.104H83.3311H83.3365ZM85.6712 22.176H89.0661L87.8631 17.7759H86.8743L85.6712 22.176Z" fill="#FF0F43"/>
<path d="M78.3948 23.7204C77.7823 23.7204 77.2164 23.5638 76.6973 23.2535C76.1892 22.9321 75.7827 22.4899 75.4805 21.9241C75.1784 21.35 75.0273 20.7018 75.0273 19.9877C75.0273 19.2735 75.1784 18.6143 75.4805 18.0513C75.7827 17.4772 76.1864 17.0323 76.6973 16.7219C77.2164 16.4005 77.7823 16.2412 78.3948 16.2412C78.837 16.2412 79.2243 16.3154 79.5539 16.4664C79.8944 16.6093 80.1664 16.7768 80.3751 16.9746C80.5839 17.1723 80.7184 17.3289 80.7844 17.4415H80.8256V16.4088H82.3829V23.5528H80.8256V22.5201H80.7844C80.7184 22.6437 80.5811 22.803 80.3751 23.0008C80.1691 23.1903 79.8944 23.3578 79.5539 23.5089C79.2243 23.649 78.837 23.7204 78.3948 23.7204ZM78.7051 22.3471C79.1006 22.3471 79.4605 22.2537 79.7818 22.0641C80.1114 21.8664 80.3669 21.589 80.5454 21.2292C80.7349 20.8721 80.8283 20.4546 80.8283 19.9849C80.8283 19.5152 80.7349 19.084 80.5454 18.7269C80.3669 18.3699 80.1114 18.0952 79.7818 17.9057C79.4605 17.7079 79.1034 17.6091 78.7051 17.6091C78.3069 17.6091 77.9663 17.7079 77.6449 17.9057C77.3236 18.0952 77.0709 18.3671 76.8813 18.7269C76.7028 19.084 76.6122 19.5043 76.6122 19.9849C76.6122 20.4656 76.7028 20.8721 76.8813 21.2292C77.0709 21.5862 77.3236 21.8664 77.6449 22.0641C77.9663 22.2537 78.3178 22.3471 78.7051 22.3471Z" fill="#FF0F43"/>
<path d="M68.0654 23.5494V16.4053H69.6063V19.1629H70.7379L72.8309 16.4053H74.5998L72.125 19.7287L74.814 23.5466H72.9737L70.8533 20.5335H69.6091V23.5466H68.0682L68.0654 23.5494Z" fill="#FF0F43"/>
<path d="M145.387 10.072C144.689 10.072 144.057 9.91264 143.491 9.59128C142.926 9.26168 142.478 8.81398 142.148 8.24816C141.819 7.67411 141.654 7.03688 141.654 6.33923C141.654 5.64158 141.819 5.00435 142.148 4.43029C142.478 3.85624 142.926 3.40853 143.491 3.08717C144.057 2.75757 144.689 2.59277 145.387 2.59277C146.084 2.59277 146.73 2.75757 147.295 3.08717C147.861 3.40853 148.303 3.85624 148.625 4.43029C148.946 4.99611 149.106 5.6196 149.106 6.29803V6.72102H143.236C143.283 7.08907 143.406 7.42416 143.604 7.7263C143.813 8.02843 144.071 8.26739 144.381 8.44867C144.692 8.61896 145.027 8.70411 145.387 8.70411C145.875 8.70411 146.293 8.60523 146.631 8.40747C146.971 8.19872 147.221 7.94603 147.381 7.6439H148.993C148.757 8.32232 148.334 8.89912 147.721 9.3688C147.117 9.84123 146.34 10.0747 145.387 10.0747V10.072ZM147.452 5.63059C147.405 5.32846 147.287 5.05104 147.098 4.7956C146.919 4.54016 146.677 4.33691 146.375 4.18859C146.084 4.03752 145.752 3.96336 145.387 3.96336C145.021 3.96336 144.697 4.03752 144.398 4.18859C144.107 4.33965 143.865 4.54291 143.675 4.7956C143.486 5.05104 143.354 5.32846 143.28 5.63059H147.452Z" fill="#FF0F43"/>
<path d="M133.664 9.9019V2.75781H135.205V6.97395L135.164 7.67984H135.249L138.616 2.75781H140.3V9.9019H138.759V5.68576L138.803 4.97987H138.718L135.351 9.9019H133.667H133.664Z" fill="#FF0F43"/>
<path d="M125.279 9.9019V2.75781H126.82V5.55941H130.327V2.75781H131.885V9.9019H130.327V6.93275H126.82V9.9019H125.279Z" fill="#FF0F43"/>
<path d="M120.176 10.072C119.478 10.072 118.846 9.91264 118.28 9.59128C117.715 9.26168 117.267 8.81398 116.937 8.24816C116.608 7.67411 116.443 7.03688 116.443 6.33923C116.443 5.64158 116.608 5.00435 116.937 4.43029C117.267 3.85624 117.715 3.40853 118.28 3.08717C118.846 2.75757 119.478 2.59277 120.176 2.59277C120.873 2.59277 121.519 2.75757 122.085 3.08717C122.65 3.40853 123.093 3.85624 123.414 4.43029C123.735 4.99611 123.895 5.6196 123.895 6.29803V6.72102H118.025C118.072 7.08907 118.195 7.42416 118.393 7.7263C118.602 8.02843 118.86 8.26739 119.17 8.44867C119.481 8.61896 119.816 8.70411 120.176 8.70411C120.664 8.70411 121.082 8.60523 121.42 8.40747C121.76 8.19872 122.01 7.94603 122.17 7.6439H123.782C123.546 8.32232 123.123 8.89912 122.51 9.3688C121.906 9.84123 121.129 10.0747 120.176 10.0747V10.072ZM122.241 5.63059C122.194 5.32846 122.076 5.05104 121.887 4.7956C121.708 4.54016 121.467 4.33691 121.164 4.18859C120.873 4.03752 120.541 3.96336 120.176 3.96336C119.81 3.96336 119.486 4.03752 119.187 4.18859C118.896 4.33965 118.654 4.54291 118.464 4.7956C118.275 5.05104 118.143 5.32846 118.069 5.63059H122.241Z" fill="#FF0F43"/>
<path d="M108.614 9.9019L110.567 2.75781H113.948L115.901 9.9019H114.316L112.762 4.13115H111.756L110.202 9.9019H108.617H108.614Z" fill="#FF0F43"/>
<path d="M101.797 9.9019V2.75781H105.502C105.964 2.75781 106.365 2.83747 106.705 2.99952C107.046 3.15059 107.298 3.36208 107.469 3.63675C107.639 3.90043 107.724 4.19707 107.724 4.52667C107.724 5.06501 107.592 5.4468 107.329 5.67203C107.065 5.88901 106.823 6.02635 106.606 6.08128H106.593V6.12248H106.606C106.738 6.14171 106.914 6.19664 107.131 6.29277C107.348 6.38616 107.554 6.56744 107.754 6.83112C107.952 7.08656 108.051 7.4244 108.051 7.85014C108.051 8.46264 107.826 8.95704 107.373 9.33608C106.93 9.71238 106.307 9.9019 105.505 9.9019H101.8H101.797ZM105.431 8.63019C105.76 8.63019 106.021 8.54504 106.208 8.37475C106.398 8.20446 106.491 7.98472 106.491 7.71006C106.491 7.43539 106.398 7.21566 106.208 7.04536C106.019 6.87507 105.76 6.78992 105.431 6.78992H103.338V8.62744H105.431V8.63019ZM105.318 5.58963C105.601 5.58963 105.818 5.51821 105.969 5.37813C106.131 5.23531 106.211 5.04853 106.211 4.81232C106.211 4.57611 106.131 4.38933 105.969 4.24651C105.818 4.10643 105.601 4.03501 105.318 4.03501H103.338V5.58963H105.318Z" fill="#FF0F43"/>
<path d="M96.0373 10.0719C95.4248 10.0719 94.859 9.91539 94.3399 9.60502C93.8318 9.28366 93.4253 8.84144 93.1231 8.27563C92.821 7.70158 92.6699 7.05336 92.6699 6.33923C92.6699 5.62509 92.821 4.96589 93.1231 4.40283C93.4253 3.82877 93.829 3.38381 94.3399 3.07344C94.859 2.75208 95.4248 2.59277 96.0373 2.59277C96.4795 2.59277 96.8668 2.66693 97.1964 2.818C97.537 2.95808 97.8089 3.12837 98.0177 3.32613C98.2237 3.52389 98.361 3.68045 98.4269 3.79307H98.4709V2.76032H100.025V9.9044H98.4709V8.87166H98.4269C98.361 8.99526 98.2237 9.15456 98.0177 9.35232C97.8089 9.54184 97.537 9.70939 97.1964 9.86046C96.8668 10.0005 96.4795 10.0719 96.0373 10.0719ZM96.3477 8.69862C96.7432 8.69862 97.103 8.60523 97.4217 8.41571C97.7513 8.21795 98.0067 7.94054 98.1852 7.58072C98.3747 7.22366 98.4681 6.80616 98.4681 6.33648C98.4681 5.8668 98.3747 5.43557 98.1852 5.07851C98.0067 4.72144 97.7513 4.44677 97.4217 4.25725C97.1003 4.05949 96.7432 3.96061 96.3477 3.96061C95.9522 3.96061 95.6061 4.05949 95.2875 4.25725C94.9661 4.44677 94.7134 4.71869 94.5239 5.07851C94.3454 5.43557 94.2547 5.85581 94.2547 6.33648C94.2547 6.81715 94.3454 7.22366 94.5239 7.58072C94.7134 7.93779 94.9661 8.21795 95.2875 8.41571C95.6089 8.60523 95.9604 8.69862 96.3477 8.69862Z" fill="#FF0F43"/>
<path d="M84.3364 12.5877V2.75739H85.8773V3.79014H85.9185C85.9927 3.66654 86.1355 3.51272 86.3442 3.3232C86.553 3.12544 86.8194 2.95515 87.149 2.81507C87.4786 2.664 87.8714 2.58984 88.3246 2.58984C88.9371 2.58984 89.4974 2.74915 90.0083 3.07051C90.5164 3.38088 90.9229 3.82584 91.2251 4.3999C91.5272 4.96571 91.6783 5.61118 91.6783 6.3363C91.6783 7.06142 91.5272 7.69865 91.2251 8.2727C90.9229 8.83851 90.5192 9.28073 90.0083 9.60209C89.5002 9.91246 88.9371 10.069 88.3246 10.069C87.8714 10.069 87.4814 9.99761 87.149 9.85753C86.8194 9.70646 86.5502 9.53617 86.3442 9.34939C86.1355 9.15163 85.9954 8.99233 85.9185 8.86873H85.8773V12.5877H84.3364ZM88.0005 8.69843C88.396 8.69843 88.7503 8.60505 89.0607 8.41553C89.3821 8.21777 89.632 7.94035 89.8105 7.58054C90.0001 7.22347 90.0934 6.80598 90.0934 6.3363C90.0934 5.86662 90.0001 5.43539 89.8105 5.07832C89.632 4.72126 89.3821 4.44659 89.0607 4.25707C88.7503 4.05931 88.396 3.96043 88.0005 3.96043C87.605 3.96043 87.2424 4.05931 86.9101 4.25707C86.5887 4.44659 86.336 4.71851 86.1465 5.07832C85.968 5.43539 85.8773 5.85563 85.8773 6.3363C85.8773 6.81697 85.968 7.22347 86.1465 7.58054C86.336 7.93761 86.5887 8.21777 86.9101 8.41553C87.2397 8.60505 87.6022 8.69843 88.0005 8.69843Z" fill="#FF0F43"/>
<path d="M76.02 9.9019V2.75781H82.5543V9.9019H80.9997V4.13115H77.5637V9.9019H76.0228H76.02Z" fill="#FF0F43"/>
<path d="M70.2843 9.90174L71.7703 6.25142H69.6499L67.1724 0H68.9687L70.7787 4.66659H72.4048L74.2148 0H75.9699L72.0532 9.90174H70.2843Z" fill="#FF0F43"/>
<path d="M41.9722 25.7832C40.89 25.7832 38.6322 28.0272 38.6322 28.0272C38.6322 28.0272 36.2948 25.786 35.2785 25.786L10.3965 25.7393L10.3745 33.9848C10.3745 36.2343 11.5693 37.0583 12.9811 37.0583L28.2279 37.0885C29.4391 37.1105 30.7356 38.0745 31.576 38.8573C32.2545 38.2558 33.6086 37.083 34.8803 37.083L50.3303 37.0665C51.3026 37.0665 52.838 36.5446 52.838 34.7291V25.7667L41.9722 25.786V25.7832Z" fill="#FF0F43"/>
<path d="M23.451 13.1153C24.2421 12.4012 25.4753 11.3218 26.8047 11.3218L45.4738 11.3163C46.4819 11.3025 47.9843 10.2396 47.9843 8.81406V0H0V8.9816C0 10.5637 0.936614 11.2861 2.51869 11.2861L20.0452 11.3218C21.413 11.3218 22.6682 12.3985 23.451 13.1153Z" fill="#FF0F43"/>
<path d="M23.4508 15.139C23.4508 15.139 21.1574 12.895 20.045 12.895H16.5649V21.4728C16.5649 22.9807 17.5922 24.1755 18.8969 24.1755L34.5281 24.2112C36.5607 24.2167 37.7857 25.2302 38.6289 26.0021C39.3458 25.3786 40.4747 24.2964 41.9084 24.2112L58.2594 24.2057C59.4899 24.2057 60.6957 23.1016 60.6957 21.8024V12.8867L26.799 12.8977C25.6399 12.8977 23.4453 15.1417 23.4453 15.1417L23.4508 15.139Z" fill="#FF0F43"/>
</svg>
