<svg width="216" height="38" viewBox="0 0 216 38" fill="none" xmlns="http://www.w3.org/2000/svg">
<path d="M208.266 34.9338V28.2246H209.713V30.4172H211.148C211.661 30.4172 212.117 30.5178 212.515 30.7215C212.912 30.9253 213.219 31.1987 213.43 31.5444C213.652 31.89 213.763 32.2666 213.763 32.6742C213.763 33.0818 213.652 33.4713 213.43 33.8169C213.219 34.1626 212.912 34.436 212.515 34.6398C212.115 34.8358 211.661 34.9312 211.148 34.9312H208.264L208.266 34.9338ZM211.083 33.6725C211.454 33.6725 211.746 33.5796 211.96 33.3939C212.174 33.2081 212.28 32.9683 212.28 32.6768C212.28 32.3853 212.174 32.1454 211.96 31.9597C211.749 31.774 211.454 31.6811 211.083 31.6811H209.713V33.6725H211.083ZM214.537 34.9338V28.2246H216V34.9338H214.537Z" fill="white"/>
<path d="M201.092 34.9338V28.2246H204.572C205.005 28.2246 205.381 28.2994 205.701 28.4516C206.021 28.5935 206.258 28.7921 206.418 29.05C206.578 29.2977 206.658 29.5763 206.658 29.8858C206.658 30.3914 206.534 30.7499 206.287 30.9614C206.039 31.1652 205.812 31.2942 205.608 31.3458H205.596V31.3845H205.608C205.732 31.4025 205.897 31.4541 206.101 31.5444C206.305 31.6321 206.498 31.8023 206.687 32.05C206.872 32.2899 206.965 32.6071 206.965 33.0069C206.965 33.5822 206.754 34.0465 206.328 34.4024C205.913 34.7558 205.327 34.9338 204.574 34.9338H201.094H201.092ZM204.504 33.7395C204.814 33.7395 205.059 33.6596 205.234 33.4996C205.412 33.3397 205.5 33.1333 205.5 32.8754C205.5 32.6174 205.412 32.4111 205.234 32.2512C205.056 32.0912 204.814 32.0113 204.504 32.0113H202.539V33.7369H204.504V33.7395ZM204.399 30.884C204.664 30.884 204.868 30.817 205.01 30.6854C205.16 30.5539 205.237 30.3759 205.237 30.1541C205.237 29.9322 205.162 29.7568 205.01 29.6227C204.868 29.4911 204.664 29.4241 204.399 29.4241H202.539V30.884H204.399Z" fill="white"/>
<path d="M193.916 34.9338V28.2246H195.363V30.8144H196.426L198.391 28.2246H200.053L197.728 31.3458L200.251 34.9312H198.526L196.534 32.1016H195.366V34.9312H193.919L193.916 34.9338Z" fill="white"/>
<path d="M189.361 35.0938C188.713 35.0938 188.125 34.939 187.594 34.6295C187.062 34.3199 186.642 33.8995 186.332 33.3681C186.03 32.8367 185.881 32.2435 185.881 31.5883C185.881 30.9331 186.03 30.3398 186.332 29.8084C186.642 29.2693 187.062 28.8437 187.594 28.5342C188.125 28.2247 188.713 28.0699 189.361 28.0699C190.008 28.0699 190.521 28.1885 190.98 28.4284C191.44 28.658 191.808 28.9598 192.082 29.3312C192.355 29.7027 192.557 30.1102 192.68 30.5539H191.192C191.058 30.2186 190.839 29.9348 190.526 29.7027C190.217 29.4731 189.827 29.357 189.358 29.357C188.994 29.357 188.659 29.4499 188.349 29.6356C188.048 29.8213 187.81 30.0819 187.632 30.4198C187.454 30.7551 187.367 31.1472 187.367 31.5883C187.367 32.0294 187.454 32.4086 187.632 32.7439C187.81 33.0792 188.048 33.3423 188.349 33.528C188.659 33.7138 188.997 33.8066 189.358 33.8066C189.835 33.8066 190.235 33.688 190.552 33.4481C190.872 33.2005 191.091 32.8987 191.215 32.5453H192.704C192.598 32.9967 192.402 33.4171 192.118 33.8066C191.845 34.1884 191.471 34.4979 191.001 34.7352C190.542 34.9751 189.993 35.0938 189.353 35.0938H189.361Z" fill="white"/>
<path d="M181.409 35.0938C180.735 35.0938 180.124 34.9442 179.574 34.6424C179.035 34.3328 178.61 33.9124 178.3 33.381C177.991 32.8419 177.836 32.2435 177.836 31.5883C177.836 30.9331 177.991 30.3347 178.3 29.7956C178.61 29.2564 179.035 28.836 179.574 28.5342C180.124 28.2247 180.735 28.0699 181.409 28.0699C182.082 28.0699 182.701 28.2247 183.243 28.5342C183.792 28.836 184.22 29.2564 184.532 29.7956C184.842 30.3347 184.997 30.9331 184.997 31.5883C184.997 32.2435 184.842 32.8419 184.532 33.381C184.223 33.9124 183.792 34.3328 183.243 34.6424C182.703 34.9442 182.092 35.0938 181.409 35.0938ZM181.409 33.8041C181.806 33.8041 182.164 33.7112 182.484 33.5255C182.804 33.3397 183.052 33.0792 183.227 32.7413C183.413 32.406 183.506 32.0191 183.506 31.5857C183.506 31.1524 183.413 30.7525 183.227 30.4172C183.049 30.0819 182.801 29.8188 182.484 29.633C182.164 29.4473 181.806 29.3545 181.409 29.3545C181.011 29.3545 180.666 29.4473 180.346 29.633C180.026 29.8188 179.776 30.0793 179.587 30.4172C179.409 30.7525 179.322 31.1446 179.322 31.5857C179.322 32.0268 179.409 32.406 179.587 32.7413C179.773 33.0766 180.026 33.3397 180.346 33.5255C180.666 33.7112 181.019 33.8041 181.409 33.8041Z" fill="white"/>
<path d="M166.055 34.9338V25.6348H168.497L171.023 31.2812H171.487L174.025 25.6348H176.471V34.9338H174.889V27.9872L174.956 27.3243H174.876L172.46 32.7438H170.068L167.651 27.3243H167.571L167.638 27.9872V34.9338H166.057H166.055Z" fill="white"/>
<path d="M156.789 35.0929C156.214 35.0929 155.683 34.9459 155.195 34.6544C154.718 34.3526 154.336 33.9373 154.053 33.4059C153.769 32.8668 153.627 32.258 153.627 31.5874C153.627 30.9167 153.769 30.2976 154.053 29.7663C154.336 29.2272 154.718 28.8093 155.195 28.5178C155.683 28.216 156.214 28.0664 156.789 28.0664C157.205 28.0664 157.568 28.1361 157.878 28.2779C158.198 28.4121 158.453 28.5694 158.649 28.7551C158.845 28.9408 158.972 29.0879 159.034 29.1936H159.075V28.2238H160.535V34.933H159.075V33.9631H159.034C158.972 34.0792 158.843 34.2288 158.649 34.4145C158.453 34.5925 158.198 34.7498 157.878 34.8917C157.568 35.0258 157.205 35.0903 156.789 35.0903V35.0929ZM157.081 33.8032C157.452 33.8032 157.79 33.7154 158.089 33.5375C158.399 33.3517 158.639 33.0912 158.807 32.7533C158.985 32.418 159.072 32.0259 159.072 31.5848C159.072 31.1437 158.985 30.7387 158.807 30.4034C158.639 30.0681 158.399 29.8101 158.089 29.6321C157.788 29.4464 157.452 29.3536 157.081 29.3536C156.709 29.3536 156.384 29.4464 156.085 29.6321C155.783 29.8101 155.546 30.0655 155.368 30.4034C155.2 30.7387 155.115 31.1334 155.115 31.5848C155.115 32.0362 155.2 32.418 155.368 32.7533C155.546 33.0886 155.783 33.3517 156.085 33.5375C156.387 33.7154 156.717 33.8032 157.081 33.8032Z" fill="white"/>
<path d="M146.828 34.9338V28.2246H150.308C150.741 28.2246 151.118 28.2994 151.438 28.4516C151.758 28.5935 151.995 28.7921 152.155 29.05C152.315 29.2977 152.395 29.5763 152.395 29.8858C152.395 30.3914 152.271 30.7499 152.023 30.9614C151.776 31.1652 151.549 31.2942 151.345 31.3458H151.332V31.3845H151.345C151.469 31.4025 151.634 31.4541 151.837 31.5444C152.041 31.6321 152.237 31.8023 152.423 32.05C152.609 32.2899 152.702 32.6071 152.702 33.0069C152.702 33.5822 152.49 34.0465 152.064 34.4024C151.649 34.7558 151.064 34.9338 150.31 34.9338H146.831H146.828ZM150.241 33.7395C150.55 33.7395 150.795 33.6596 150.971 33.4996C151.149 33.3397 151.236 33.1333 151.236 32.8754C151.236 32.6174 151.149 32.4111 150.971 32.2512C150.793 32.0912 150.55 32.0113 150.241 32.0113H148.275V33.7369H150.241V33.7395ZM150.135 30.884C150.401 30.884 150.604 30.817 150.746 30.6854C150.896 30.5539 150.973 30.3759 150.973 30.1541C150.973 29.9322 150.899 29.7568 150.746 29.6227C150.604 29.4911 150.401 29.4241 150.135 29.4241H148.275V30.884H150.135Z" fill="white"/>
<path d="M142.179 34.9338V29.5143H139.881V28.2246H145.925V29.5143H143.626V34.9338H142.179Z" fill="white"/>
<path d="M136.093 35.0938C135.446 35.0938 134.857 34.939 134.326 34.6295C133.795 34.3199 133.374 33.8995 133.065 33.3681C132.763 32.8367 132.613 32.2435 132.613 31.5883C132.613 30.9331 132.763 30.3398 133.065 29.8084C133.374 29.2693 133.795 28.8437 134.326 28.5342C134.857 28.2247 135.446 28.0699 136.093 28.0699C136.74 28.0699 137.254 28.1885 137.713 28.4284C138.172 28.658 138.541 28.9598 138.814 29.3312C139.088 29.7027 139.289 30.1102 139.413 30.5539H137.924C137.79 30.2186 137.571 29.9348 137.259 29.7027C136.949 29.4731 136.56 29.357 136.09 29.357C135.727 29.357 135.391 29.4499 135.082 29.6356C134.78 29.8213 134.543 30.0819 134.365 30.4198C134.187 30.7551 134.099 31.1472 134.099 31.5883C134.099 32.0294 134.187 32.4086 134.365 32.7439C134.543 33.0792 134.78 33.3423 135.082 33.528C135.391 33.7138 135.729 33.8066 136.09 33.8066C136.568 33.8066 136.967 33.688 137.285 33.4481C137.605 33.2005 137.824 32.8987 137.948 32.5453H139.436C139.33 32.9967 139.134 33.4171 138.85 33.8066C138.577 34.1884 138.203 34.4979 137.734 34.7352C137.272 34.9751 136.725 35.0938 136.085 35.0938H136.093Z" fill="white"/>
<path d="M126.109 34.9338V28.2246H127.556V30.4172H129.256C129.77 30.4172 130.226 30.5178 130.623 30.7215C131.023 30.9253 131.328 31.1987 131.539 31.5444C131.761 31.89 131.872 32.2666 131.872 32.6742C131.872 33.0818 131.761 33.4713 131.539 33.8169C131.328 34.1626 131.021 34.436 130.623 34.6398C130.224 34.8358 129.77 34.9312 129.256 34.9312H126.109V34.9338ZM129.192 33.6725C129.563 33.6725 129.855 33.5796 130.069 33.3939C130.283 33.2081 130.389 32.9683 130.389 32.6768C130.389 32.3853 130.283 32.1454 130.069 31.9597C129.857 31.774 129.563 31.6811 129.192 31.6811H127.559V33.6725H129.192Z" fill="white"/>
<path d="M118.362 34.9338L120.196 28.2246H123.371L125.205 34.9338H123.717L122.254 29.5143H121.31L119.848 34.9338H118.359H118.362Z" fill="white"/>
<path d="M114.338 35.0938C113.682 35.0938 113.089 34.9442 112.558 34.6424C112.026 34.3328 111.606 33.9124 111.296 33.381C110.987 32.8419 110.832 32.2435 110.832 31.5883C110.832 30.9331 110.987 30.3347 111.296 29.7956C111.606 29.2564 112.026 28.836 112.558 28.5342C113.089 28.2247 113.682 28.0699 114.338 28.0699C114.993 28.0699 115.599 28.2247 116.13 28.5342C116.662 28.836 117.077 29.2564 117.379 29.7956C117.681 30.3269 117.83 30.9125 117.83 31.5496V31.9468H112.318C112.362 32.2925 112.478 32.6072 112.663 32.8909C112.859 33.1747 113.102 33.3991 113.393 33.5693C113.685 33.7292 114 33.8092 114.338 33.8092C114.797 33.8092 115.189 33.7163 115.506 33.5306C115.823 33.3346 116.061 33.0973 116.21 32.8135H117.724C117.503 33.4507 117.105 33.9924 116.53 34.4334C115.963 34.8771 115.233 35.0964 114.338 35.0964V35.0938ZM116.277 30.9228C116.233 30.639 116.123 30.3785 115.945 30.1386C115.777 29.8987 115.55 29.7104 115.266 29.5686C114.993 29.4267 114.681 29.357 114.338 29.357C113.994 29.357 113.69 29.4267 113.409 29.5686C113.136 29.7104 112.909 29.9013 112.731 30.1386C112.553 30.3785 112.429 30.639 112.359 30.9228H116.277Z" fill="white"/>
<path d="M106.583 34.9338V29.5143H104.285V28.2246H110.329V29.5143H108.031V34.9338H106.583Z" fill="white"/>
<path d="M97.1569 34.9338V28.2246H98.604V32.1841L98.5627 32.847H98.6426L101.805 28.2246H103.386V34.9338H101.939V30.9743L101.978 30.3114H101.898L98.7355 34.9338H97.1543H97.1569Z" fill="white"/>
<path d="M89.9824 34.9338V28.2246H93.4621C93.8955 28.2246 94.2721 28.2994 94.5919 28.4516C94.9092 28.5935 95.1491 28.7921 95.309 29.05C95.469 29.2977 95.5489 29.5763 95.5489 29.8858C95.5489 30.3914 95.4251 30.7499 95.1775 30.9614C94.9299 31.1652 94.7029 31.2942 94.4991 31.3458H94.4862V31.3845H94.4991C94.6229 31.4025 94.788 31.4541 94.9918 31.5444C95.1955 31.6321 95.3916 31.8023 95.5773 32.05C95.763 32.2899 95.8559 32.6071 95.8559 33.0069C95.8559 33.5822 95.6444 34.0465 95.2188 34.4024C94.8035 34.7558 94.2179 34.9338 93.4647 34.9338H89.985H89.9824ZM93.3951 33.7395C93.7046 33.7395 93.9496 33.6596 94.1251 33.4996C94.303 33.3397 94.3907 33.1333 94.3907 32.8754C94.3907 32.6174 94.303 32.4111 94.1251 32.2512C93.9471 32.0912 93.7046 32.0113 93.3951 32.0113H91.4295V33.7369H93.3951V33.7395ZM93.2893 30.884C93.555 30.884 93.7588 30.817 93.9006 30.6854C94.0502 30.5539 94.1276 30.3759 94.1276 30.1541C94.1276 29.9322 94.0528 29.7568 93.9006 29.6227C93.7588 29.4911 93.555 29.4241 93.2893 29.4241H91.4295V30.884H93.2893Z" fill="white"/>
<path d="M84.5726 35.0929C83.9974 35.0929 83.466 34.9459 82.9785 34.6544C82.5013 34.3526 82.1195 33.9373 81.8358 33.4059C81.552 32.8668 81.4102 32.258 81.4102 31.5874C81.4102 30.9167 81.552 30.2976 81.8358 29.7663C82.1195 29.2272 82.4987 28.8093 82.9785 28.5178C83.466 28.216 83.9974 28.0664 84.5726 28.0664C84.9879 28.0664 85.3516 28.1361 85.6611 28.2779C85.981 28.4121 86.2363 28.5694 86.4324 28.7551C86.6284 28.9408 86.7548 29.0879 86.8167 29.1936H86.8554V28.2238H88.318V34.933H86.8554V33.9631H86.8167C86.7548 34.0792 86.6258 34.2288 86.4324 34.4145C86.2389 34.5925 85.981 34.7498 85.6611 34.8917C85.3516 35.0258 84.9879 35.0903 84.5726 35.0903V35.0929ZM84.8641 33.8032C85.2355 33.8032 85.5734 33.7154 85.8726 33.5375C86.1822 33.3517 86.4221 33.0912 86.5897 32.7533C86.7677 32.418 86.8554 32.0259 86.8554 31.5848C86.8554 31.1437 86.7677 30.7387 86.5897 30.4034C86.4221 30.0681 86.1822 29.8101 85.8726 29.6321C85.5708 29.4464 85.2355 29.3536 84.8641 29.3536C84.4926 29.3536 84.1702 29.4464 83.8684 29.6321C83.5666 29.8101 83.3293 30.0655 83.1513 30.4034C82.9836 30.7387 82.8985 31.1334 82.8985 31.5848C82.8985 32.0362 82.9836 32.418 83.1513 32.7533C83.3293 33.0886 83.5666 33.3517 83.8684 33.5375C84.1702 33.7154 84.5004 33.8032 84.8641 33.8032Z" fill="white"/>
<path d="M73.584 37.4592V28.2272H75.0311V29.1971H75.0723C75.142 29.081 75.2761 28.9366 75.4696 28.7586C75.6656 28.5729 75.9184 28.413 76.2279 28.2814C76.5375 28.1395 76.9063 28.0699 77.332 28.0699C77.9072 28.0699 78.4334 28.2195 78.9132 28.5213C79.3904 28.8128 79.7721 29.2306 80.0559 29.7698C80.3396 30.3011 80.4815 30.9073 80.4815 31.5909C80.4815 32.2744 80.3396 32.8703 80.0559 33.4094C79.7721 33.9408 79.393 34.3561 78.9132 34.6579C78.436 34.9493 77.9072 35.0964 77.332 35.0964C76.9063 35.0964 76.5401 35.0293 76.2279 34.8977C75.9184 34.7559 75.6656 34.5959 75.4696 34.4205C75.2761 34.2348 75.142 34.0852 75.0723 33.9691H75.0311V37.4617H73.584V37.4592ZM77.025 33.8066C77.3964 33.8066 77.7292 33.7189 78.0207 33.5409C78.3225 33.3552 78.5572 33.0947 78.7249 32.7568C78.9029 32.4215 78.9906 32.0294 78.9906 31.5883C78.9906 31.1472 78.9029 30.7422 78.7249 30.4069C78.5572 30.0716 78.3225 29.8136 78.0207 29.6356C77.7292 29.4499 77.3964 29.357 77.025 29.357C76.6536 29.357 76.3131 29.4499 76.0035 29.6356C75.7017 29.8136 75.4644 30.069 75.2864 30.4069C75.1188 30.7422 75.0337 31.1369 75.0337 31.5883C75.0337 32.0397 75.1188 32.4215 75.2864 32.7568C75.4644 33.0921 75.7017 33.3552 76.0035 33.5409C76.3131 33.7189 76.6536 33.8066 77.025 33.8066Z" fill="white"/>
<path d="M64.0527 34.9338V25.6348H71.7834V34.9338H70.1893V27.1231H65.6339V34.9338H64.0527Z" fill="white"/>
<path d="M184.67 22.1158V15.4066H188.15C188.583 15.4066 188.96 15.4814 189.279 15.6336C189.599 15.7755 189.837 15.9741 189.997 16.232C190.156 16.4797 190.236 16.7583 190.236 17.0678C190.236 17.5734 190.113 17.9319 189.865 18.1434C189.617 18.3472 189.39 18.4762 189.187 18.5278H189.174V18.5665H189.187C189.31 18.5845 189.475 18.6361 189.679 18.7264C189.883 18.8141 190.076 18.9843 190.265 19.232C190.451 19.4719 190.543 19.7891 190.543 20.189C190.543 20.7642 190.332 21.2285 189.906 21.5844C189.491 21.9378 188.905 22.1158 188.152 22.1158H184.673H184.67ZM188.083 20.9215C188.392 20.9215 188.637 20.8416 188.813 20.6816C188.991 20.5217 189.078 20.3154 189.078 20.0574C189.078 19.7995 188.991 19.5931 188.813 19.4332C188.635 19.2732 188.392 19.1933 188.083 19.1933H186.117V20.9189H188.083V20.9215ZM187.977 18.0661C188.242 18.0661 188.446 17.999 188.588 17.8674C188.738 17.7359 188.815 17.5579 188.815 17.3361C188.815 17.1142 188.74 16.9388 188.588 16.8047C188.446 16.6731 188.242 16.6061 187.977 16.6061H186.117V18.0661H187.977Z" fill="white"/>
<path d="M179.799 22.2746C179.126 22.2746 178.515 22.125 177.965 21.8232C177.426 21.5137 177 21.0932 176.691 20.5619C176.381 20.0228 176.227 19.4243 176.227 18.7691C176.227 18.1139 176.381 17.5155 176.691 16.9764C177 16.4373 177.426 16.0168 177.965 15.715C178.515 15.4055 179.126 15.2507 179.799 15.2507C180.472 15.2507 181.091 15.4055 181.633 15.715C182.183 16.0168 182.611 16.4373 182.92 16.9764C183.23 17.5155 183.385 18.1139 183.385 18.7691C183.385 19.4243 183.23 20.0228 182.92 20.5619C182.611 21.0932 182.18 21.5137 181.633 21.8232C181.094 22.125 180.483 22.2746 179.799 22.2746ZM179.799 20.9849C180.199 20.9849 180.557 20.892 180.875 20.7063C181.195 20.5206 181.442 20.2601 181.618 19.9222C181.803 19.5868 181.896 19.1999 181.896 18.7666C181.896 18.3332 181.803 17.9334 181.618 17.5981C181.44 17.2627 181.192 16.9996 180.875 16.8139C180.555 16.6282 180.196 16.5353 179.799 16.5353C179.402 16.5353 179.056 16.6282 178.736 16.8139C178.419 16.9996 178.166 17.2601 177.981 17.5981C177.803 17.9334 177.715 18.3255 177.715 18.7666C177.715 19.2076 177.803 19.5868 177.981 19.9222C178.166 20.2575 178.419 20.5206 178.736 20.7063C179.056 20.892 179.41 20.9849 179.799 20.9849Z" fill="white"/>
<path d="M172.066 22.2746C171.418 22.2746 170.83 22.1199 170.299 21.8103C169.767 21.5008 169.347 21.0803 169.037 20.549C168.736 20.0176 168.586 19.4243 168.586 18.7691C168.586 18.1139 168.736 17.5207 169.037 16.9893C169.347 16.4502 169.767 16.0246 170.299 15.715C170.83 15.4055 171.418 15.2507 172.066 15.2507C172.713 15.2507 173.226 15.3694 173.686 15.6093C174.145 15.8389 174.514 16.1406 174.787 16.5121C175.06 16.8835 175.262 17.2911 175.385 17.7348H173.897C173.763 17.3994 173.544 17.1157 173.232 16.8835C172.922 16.654 172.533 16.5379 172.063 16.5379C171.699 16.5379 171.364 16.6307 171.054 16.8165C170.753 17.0022 170.515 17.2627 170.337 17.6006C170.159 17.936 170.072 18.328 170.072 18.7691C170.072 19.2102 170.159 19.5894 170.337 19.9247C170.515 20.2601 170.753 20.5232 171.054 20.7089C171.364 20.8946 171.702 20.9875 172.063 20.9875C172.54 20.9875 172.94 20.8688 173.257 20.6289C173.577 20.3813 173.796 20.0795 173.92 19.7261H175.409C175.303 20.1775 175.107 20.598 174.823 20.9875C174.55 21.3692 174.176 21.6788 173.706 21.9161C173.244 22.156 172.698 22.2746 172.058 22.2746H172.066Z" fill="white"/>
<path d="M161.086 22.1158V15.4066H162.533V19.3661L162.494 20.029H162.574L165.737 15.4066H167.318V22.1158H165.871V18.1563L165.912 17.4934H165.832L162.67 22.1158H161.089H161.086Z" fill="white"/>
<path d="M153.912 22.1158V15.4066H157.392C157.825 15.4066 158.202 15.4814 158.522 15.6336C158.841 15.7755 159.079 15.9741 159.239 16.232C159.399 16.4797 159.479 16.7583 159.479 17.0678C159.479 17.5734 159.355 17.9319 159.107 18.1434C158.86 18.3472 158.633 18.4762 158.429 18.5278H158.416V18.5665H158.429C158.553 18.5845 158.718 18.6361 158.921 18.7264C159.125 18.8141 159.321 18.9843 159.507 19.232C159.693 19.4719 159.786 19.7891 159.786 20.189C159.786 20.7642 159.574 21.2285 159.148 21.5844C158.733 21.9378 158.148 22.1158 157.394 22.1158H153.915H153.912ZM157.325 20.9215C157.634 20.9215 157.877 20.8416 158.055 20.6816C158.233 20.5217 158.32 20.3154 158.32 20.0574C158.32 19.7995 158.233 19.5931 158.055 19.4332C157.877 19.2732 157.634 19.1933 157.325 19.1933H155.359V20.9189H157.325V20.9215ZM157.219 18.0661C157.485 18.0661 157.688 17.999 157.83 17.8674C157.98 17.7359 158.057 17.5579 158.057 17.3361C158.057 17.1142 157.983 16.9388 157.83 16.8047C157.688 16.6731 157.485 16.6061 157.219 16.6061H155.359V18.0661H157.219Z" fill="white"/>
<path d="M145.711 24.64V15.4081H147.158V16.378H147.199C147.269 16.2619 147.403 16.1174 147.597 15.9395C147.793 15.7537 148.043 15.5938 148.355 15.4622C148.664 15.3204 149.033 15.2507 149.456 15.2507C150.032 15.2507 150.56 15.4003 151.038 15.7021C151.515 15.9936 151.896 16.4115 152.18 16.9506C152.464 17.482 152.606 18.0882 152.606 18.7691C152.606 19.4501 152.464 20.0485 152.18 20.5877C151.896 21.119 151.517 21.5343 151.038 21.8361C150.56 22.1276 150.032 22.2746 149.456 22.2746C149.031 22.2746 148.664 22.2076 148.355 22.076C148.045 21.9341 147.793 21.7742 147.597 21.5988C147.4 21.4131 147.269 21.2635 147.199 21.1474H147.158V24.64H145.711ZM149.152 20.9875C149.523 20.9875 149.856 20.8998 150.148 20.7218C150.449 20.5361 150.684 20.2755 150.852 19.9376C151.03 19.6023 151.117 19.2102 151.117 18.7691C151.117 18.328 151.03 17.9231 150.852 17.5877C150.684 17.2524 150.449 16.9945 150.148 16.8165C149.856 16.6308 149.523 16.5379 149.152 16.5379C148.78 16.5379 148.44 16.6308 148.13 16.8165C147.829 16.9945 147.591 17.2498 147.413 17.5877C147.246 17.9231 147.161 18.3177 147.161 18.7691C147.161 19.2205 147.246 19.6023 147.413 19.9376C147.591 20.273 147.829 20.5361 148.13 20.7218C148.44 20.8998 148.78 20.9875 149.152 20.9875Z" fill="white"/>
<path d="M140.92 22.2746C140.264 22.2746 139.671 22.125 139.14 21.8232C138.608 21.5137 138.188 21.0932 137.878 20.5619C137.569 20.0228 137.414 19.4243 137.414 18.7691C137.414 18.1139 137.569 17.5155 137.878 16.9764C138.188 16.4373 138.608 16.0168 139.14 15.715C139.671 15.4055 140.264 15.2507 140.92 15.2507C141.575 15.2507 142.181 15.4055 142.712 15.715C143.244 16.0168 143.659 16.4373 143.961 16.9764C144.263 17.5078 144.412 18.0933 144.412 18.7304V19.1277H138.9C138.944 19.4733 139.06 19.788 139.245 20.0718C139.442 20.3555 139.684 20.5799 139.975 20.7502C140.267 20.9101 140.582 20.9901 140.92 20.9901C141.379 20.9901 141.771 20.8972 142.088 20.7115C142.408 20.5154 142.643 20.2781 142.792 19.9944H144.306C144.085 20.6315 143.687 21.1732 143.11 21.6143C142.542 22.058 141.812 22.2772 140.917 22.2772L140.92 22.2746ZM142.859 18.1036C142.815 17.8199 142.705 17.5594 142.527 17.3195C142.359 17.0796 142.132 16.8887 141.848 16.7494C141.575 16.6075 141.263 16.5379 140.92 16.5379C140.577 16.5379 140.272 16.6075 139.991 16.7494C139.718 16.8913 139.491 17.0822 139.313 17.3195C139.135 17.5594 139.011 17.8199 138.941 18.1036H142.859Z" fill="white"/>
<path d="M133.253 22.2746C132.606 22.2746 132.018 22.1199 131.486 21.8103C130.955 21.5008 130.534 21.0803 130.225 20.549C129.923 20.0176 129.773 19.4243 129.773 18.7691C129.773 18.1139 129.923 17.5207 130.225 16.9893C130.534 16.4502 130.955 16.0246 131.486 15.715C132.018 15.4055 132.606 15.2507 133.253 15.2507C133.901 15.2507 134.414 15.3694 134.873 15.6093C135.332 15.8389 135.701 16.1406 135.974 16.5121C136.248 16.8835 136.449 17.2911 136.573 17.7348H135.085C134.95 17.3994 134.731 17.1157 134.422 16.8835C134.112 16.654 133.723 16.5379 133.253 16.5379C132.889 16.5379 132.554 16.6307 132.245 16.8165C131.943 17.0022 131.705 17.2627 131.527 17.6006C131.349 17.936 131.262 18.328 131.262 18.7691C131.262 19.2102 131.349 19.5894 131.527 19.9247C131.705 20.2601 131.943 20.5232 132.245 20.7089C132.554 20.8946 132.892 20.9875 133.253 20.9875C133.73 20.9875 134.13 20.8688 134.447 20.6289C134.767 20.3813 134.987 20.0795 135.11 19.7261H136.599C136.493 20.1775 136.297 20.598 136.013 20.9875C135.74 21.3692 135.366 21.6788 134.896 21.9161C134.437 22.156 133.888 22.2746 133.248 22.2746H133.253Z" fill="white"/>
<path d="M118.777 22.1168L120.769 18.7041L118.883 15.4102H120.503L121.924 18.0412H122.389L123.823 15.4102H125.443L123.557 18.7041L125.548 22.1168H123.929L122.389 19.3284H121.924L120.397 22.1168H118.777Z" fill="white"/>
<path d="M110.153 22.1158V15.4066H111.6V17.5992H113.034C113.548 17.5992 114.004 17.6998 114.401 17.9035C114.801 18.1073 115.106 18.3807 115.317 18.7264C115.539 19.072 115.65 19.4486 115.65 19.8562C115.65 20.2638 115.539 20.6533 115.317 20.9989C115.106 21.3446 114.799 21.618 114.401 21.8218C114.002 22.0178 113.548 22.1132 113.034 22.1132H110.15L110.153 22.1158ZM112.97 20.8545C113.341 20.8545 113.633 20.7616 113.847 20.5759C114.058 20.3902 114.167 20.1503 114.167 19.8588C114.167 19.5673 114.061 19.3274 113.847 19.1417C113.635 18.956 113.341 18.8631 112.97 18.8631H111.603V20.8545H112.97ZM116.424 22.1158V15.4066H117.886V22.1158H116.424Z" fill="white"/>
<path d="M102.979 22.1158V15.4066H106.458C106.892 15.4066 107.268 15.4814 107.588 15.6336C107.905 15.7755 108.145 15.9741 108.305 16.232C108.465 16.4797 108.545 16.7583 108.545 17.0678C108.545 17.5734 108.421 17.9319 108.174 18.1434C107.926 18.3472 107.699 18.4762 107.495 18.5278H107.482V18.5665H107.495C107.619 18.5845 107.784 18.6361 107.988 18.7264C108.192 18.8141 108.388 18.9843 108.573 19.232C108.759 19.4719 108.852 19.7891 108.852 20.189C108.852 20.7642 108.64 21.2285 108.215 21.5844C107.8 21.9378 107.214 22.1158 106.461 22.1158H102.981H102.979ZM106.391 20.9215C106.701 20.9215 106.946 20.8416 107.121 20.6816C107.299 20.5217 107.387 20.3154 107.387 20.0574C107.387 19.7995 107.299 19.5931 107.121 19.4332C106.943 19.2732 106.701 19.1933 106.391 19.1933H104.426V20.9189H106.391V20.9215ZM106.285 18.0661C106.551 18.0661 106.755 17.999 106.897 17.8674C107.046 17.7359 107.124 17.5579 107.124 17.3361C107.124 17.1142 107.049 16.9388 106.897 16.8047C106.755 16.6731 106.551 16.6061 106.285 16.6061H104.426V18.0661H106.285Z" fill="white"/>
<path d="M98.1136 22.2746C97.4403 22.2746 96.829 22.125 96.2796 21.8232C95.7405 21.5137 95.3149 21.0932 95.0053 20.5619C94.6958 20.0228 94.541 19.4243 94.541 18.7691C94.541 18.1139 94.6958 17.5155 95.0053 16.9764C95.3149 16.4373 95.7405 16.0168 96.2796 15.715C96.829 15.4055 97.4403 15.2507 98.1136 15.2507C98.7868 15.2507 99.4059 15.4055 99.9476 15.715C100.497 16.0168 100.925 16.4373 101.235 16.9764C101.544 17.5155 101.699 18.1139 101.699 18.7691C101.699 19.4243 101.544 20.0228 101.235 20.5619C100.925 21.0932 100.494 21.5137 99.9476 21.8232C99.4085 22.125 98.7971 22.2746 98.1136 22.2746ZM98.1136 20.9849C98.5134 20.9849 98.8719 20.892 99.1892 20.7063C99.5091 20.5206 99.7567 20.2601 99.9321 19.9222C100.118 19.5868 100.211 19.1999 100.211 18.7666C100.211 18.3332 100.118 17.9334 99.9321 17.5981C99.7541 17.2627 99.5065 16.9996 99.1892 16.8139C98.8719 16.6282 98.5108 16.5353 98.1136 16.5353C97.7163 16.5353 97.3707 16.6282 97.0508 16.8139C96.7336 16.9996 96.4808 17.2601 96.2925 17.5981C96.1145 17.9334 96.0268 18.3255 96.0268 18.7666C96.0268 19.2076 96.1145 19.5868 96.2925 19.9222C96.4782 20.2575 96.731 20.5206 97.0508 20.7063C97.3707 20.892 97.7241 20.9849 98.1136 20.9849Z" fill="white"/>
<path d="M86.7383 24.64V15.4081H88.1854V16.378H88.2241C88.2937 16.2619 88.4278 16.1174 88.6239 15.9395C88.8199 15.7537 89.0701 15.5938 89.3797 15.4622C89.6892 15.3204 90.0581 15.2507 90.4837 15.2507C91.0589 15.2507 91.5851 15.4003 92.0649 15.7021C92.5421 15.9936 92.9239 16.4115 93.2076 16.9506C93.4913 17.482 93.6332 18.0882 93.6332 18.7691C93.6332 19.4501 93.4913 20.0485 93.2076 20.5877C92.9239 21.119 92.5447 21.5343 92.0649 21.8361C91.5877 22.1276 91.0589 22.2746 90.4837 22.2746C90.0581 22.2746 89.6918 22.2076 89.3797 22.076C89.0701 21.9341 88.8173 21.7742 88.6239 21.5988C88.4278 21.4131 88.2963 21.2635 88.2241 21.1474H88.1854V24.64H86.7383ZM90.1793 20.9875C90.5507 20.9875 90.8835 20.8998 91.175 20.7218C91.4768 20.5361 91.7115 20.2755 91.8792 19.9376C92.0572 19.6023 92.1449 19.2102 92.1449 18.7691C92.1449 18.328 92.0572 17.9231 91.8792 17.5877C91.7115 17.2524 91.4768 16.9945 91.175 16.8165C90.8835 16.6308 90.5507 16.5379 90.1793 16.5379C89.8079 16.5379 89.4674 16.6308 89.1553 16.8165C88.8535 16.9945 88.6161 17.2498 88.4382 17.5877C88.2705 17.9231 88.1854 18.3177 88.1854 18.7691C88.1854 19.2205 88.2705 19.6023 88.4382 19.9376C88.6161 20.273 88.8535 20.5361 89.1553 20.7218C89.4648 20.8998 89.8053 20.9875 90.1793 20.9875Z" fill="white"/>
<path d="M78.263 23.5758V20.8261H78.993L80.4529 15.4066H83.6412L85.1011 20.8261H85.8311V23.5758H84.4356V22.1158H79.6533V23.5758H78.2578H78.263ZM80.4555 20.8261H83.6437L82.5139 16.6938H81.5853L80.4555 20.8261Z" fill="white"/>
<path d="M73.6214 22.2746C73.0462 22.2746 72.5148 22.1276 72.0273 21.8361C71.5501 21.5343 71.1683 21.119 70.8846 20.5877C70.6009 20.0485 70.459 19.4398 70.459 18.7691C70.459 18.0985 70.6009 17.4794 70.8846 16.9506C71.1683 16.4115 71.5475 15.9936 72.0273 15.7021C72.5148 15.4003 73.0462 15.2507 73.6214 15.2507C74.0367 15.2507 74.4004 15.3204 74.71 15.4622C75.0298 15.5964 75.2852 15.7537 75.4812 15.9395C75.6773 16.1252 75.8036 16.2722 75.8656 16.378H75.9042V15.4081H77.3668V22.1173H75.9042V21.1474H75.8656C75.8036 21.2635 75.6747 21.4131 75.4812 21.5988C75.2878 21.7768 75.0298 21.9341 74.71 22.076C74.4004 22.2076 74.0367 22.2746 73.6214 22.2746ZM73.9129 20.9849C74.2843 20.9849 74.6223 20.8972 74.924 20.7192C75.2336 20.5335 75.4735 20.273 75.6411 19.9351C75.8191 19.5997 75.9068 19.2076 75.9068 18.7666C75.9068 18.3255 75.8191 17.9205 75.6411 17.5852C75.4735 17.2498 75.2336 16.9919 74.924 16.8139C74.6223 16.6282 74.2869 16.5353 73.9129 16.5353C73.5389 16.5353 73.219 16.6282 72.9172 16.8139C72.6154 16.9919 72.3781 17.2472 72.2001 17.5852C72.0325 17.9205 71.9473 18.3151 71.9473 18.7666C71.9473 19.218 72.0325 19.5997 72.2001 19.9351C72.3781 20.2704 72.6154 20.5335 72.9172 20.7192C73.219 20.8972 73.5492 20.9849 73.9129 20.9849Z" fill="white"/>
<path d="M63.9199 22.1158V15.4066H65.367V17.9964H66.4297L68.3953 15.4066H70.0565L67.7324 18.5278L70.2577 22.1132H68.5294L66.5381 19.2836H65.3696V22.1132H63.9225L63.9199 22.1158Z" fill="white"/>
<path d="M136.537 9.45908C135.882 9.45908 135.288 9.30947 134.757 9.00767C134.226 8.69814 133.805 8.27768 133.496 7.74631C133.186 7.2072 133.031 6.60876 133.031 5.95358C133.031 5.29839 133.186 4.69996 133.496 4.16085C133.805 3.62174 134.226 3.20128 134.757 2.89949C135.288 2.58995 135.882 2.43518 136.537 2.43518C137.192 2.43518 137.798 2.58995 138.329 2.89949C138.861 3.20128 139.276 3.62174 139.578 4.16085C139.88 4.69222 140.029 5.27776 140.029 5.91489V6.31213H134.517C134.561 6.65777 134.677 6.97247 134.863 7.25621C135.059 7.53995 135.301 7.76437 135.593 7.93461C135.884 8.09454 136.199 8.1745 136.537 8.1745C136.996 8.1745 137.388 8.08164 137.705 7.89592C138.025 7.69988 138.26 7.46257 138.409 7.17883H139.924C139.702 7.81596 139.305 8.35765 138.729 8.79874C138.162 9.2424 137.432 9.46166 136.537 9.46166V9.45908ZM138.477 5.28808C138.433 5.00433 138.322 4.74381 138.144 4.50392C137.976 4.26403 137.749 4.07314 137.465 3.93385C137.192 3.79198 136.88 3.72234 136.537 3.72234C136.194 3.72234 135.889 3.79198 135.608 3.93385C135.335 4.07572 135.108 4.2666 134.93 4.50392C134.752 4.74381 134.628 5.00433 134.558 5.28808H138.477Z" fill="white"/>
<path d="M125.529 9.29783V2.58862H126.976V6.54811L126.938 7.21103H127.018L130.18 2.58862H131.761V9.29783H130.314V5.33834L130.355 4.67542H130.276L127.113 9.29783H125.532H125.529Z" fill="white"/>
<path d="M117.652 9.29783V2.58862H119.099V5.21968H122.393V2.58862H123.856V9.29783H122.393V6.50942H119.099V9.29783H117.652Z" fill="white"/>
<path d="M112.859 9.45908C112.204 9.45908 111.611 9.30947 111.079 9.00767C110.548 8.69814 110.127 8.27768 109.818 7.74631C109.508 7.2072 109.354 6.60876 109.354 5.95358C109.354 5.29839 109.508 4.69996 109.818 4.16085C110.127 3.62174 110.548 3.20128 111.079 2.89949C111.611 2.58995 112.204 2.43518 112.859 2.43518C113.514 2.43518 114.12 2.58995 114.652 2.89949C115.183 3.20128 115.598 3.62174 115.9 4.16085C116.202 4.69222 116.352 5.27776 116.352 5.91489V6.31213H110.839C110.883 6.65777 110.999 6.97247 111.185 7.25621C111.381 7.53995 111.623 7.76437 111.915 7.93461C112.206 8.09454 112.521 8.1745 112.859 8.1745C113.318 8.1745 113.71 8.08164 114.028 7.89592C114.347 7.69988 114.582 7.46257 114.732 7.17883H116.246C116.024 7.81596 115.627 8.35765 115.052 8.79874C114.484 9.2424 113.754 9.46166 112.859 9.46166V9.45908ZM114.799 5.28808C114.755 5.00433 114.644 4.74381 114.466 4.50392C114.298 4.26403 114.071 4.07314 113.788 3.93385C113.514 3.79198 113.202 3.72234 112.859 3.72234C112.516 3.72234 112.212 3.79198 111.93 3.93385C111.657 4.07572 111.43 4.2666 111.252 4.50392C111.074 4.74381 110.95 5.00433 110.881 5.28808H114.799Z" fill="white"/>
<path d="M102.004 9.29783L103.838 2.58862H107.013L108.847 9.29783H107.359L105.899 3.87836H104.955L103.495 9.29783H102.006H102.004Z" fill="white"/>
<path d="M95.5996 9.29783V2.58862H99.0793C99.5127 2.58862 99.8893 2.66343 100.209 2.81562C100.529 2.95749 100.766 3.15611 100.926 3.41405C101.086 3.66168 101.166 3.94027 101.166 4.2498C101.166 4.75538 101.042 5.11393 100.795 5.32544C100.547 5.52922 100.32 5.65819 100.116 5.70978H100.103V5.74848H100.116C100.24 5.76653 100.405 5.81812 100.609 5.9084C100.813 5.9961 101.006 6.16635 101.194 6.41398C101.38 6.65387 101.473 6.97114 101.473 7.37096C101.473 7.94618 101.262 8.41049 100.836 8.76646C100.421 9.11984 99.8351 9.29783 99.0819 9.29783H95.6022H95.5996ZM99.0123 8.10353C99.3218 8.10353 99.5668 8.02357 99.7422 7.86364C99.9202 7.70371 100.008 7.49736 100.008 7.23941C100.008 6.98146 99.9202 6.7751 99.7422 6.61518C99.5643 6.45525 99.3218 6.37529 99.0123 6.37529H97.0467V8.10095H99.0123V8.10353ZM98.9065 5.24806C99.1722 5.24806 99.376 5.18099 99.5178 5.04944C99.67 4.91531 99.7448 4.7399 99.7448 4.51807C99.7448 4.29623 99.67 4.12083 99.5178 3.9867C99.376 3.85514 99.1722 3.78808 98.9065 3.78808H97.0467V5.24806H98.9065Z" fill="white"/>
<path d="M90.1917 9.45908C89.6165 9.45908 89.0851 9.31205 88.5976 9.02057C88.1204 8.71877 87.7386 8.30348 87.4549 7.7721C87.1712 7.233 87.0293 6.62424 87.0293 5.95358C87.0293 5.28292 87.1712 4.66384 87.4549 4.13505C87.7386 3.59594 88.1178 3.17807 88.5976 2.88659C89.0851 2.58479 89.6165 2.43518 90.1917 2.43518C90.607 2.43518 90.9707 2.50483 91.2803 2.6467C91.6001 2.77825 91.8555 2.93818 92.0515 3.1239C92.245 3.30962 92.374 3.45665 92.4359 3.56241H92.4771V2.59253H93.9371V9.30173H92.4771V8.33185H92.4359C92.374 8.44793 92.245 8.59754 92.0515 8.78326C91.8555 8.96124 91.6001 9.11859 91.2803 9.26046C90.9707 9.39201 90.607 9.45908 90.1917 9.45908ZM90.4832 8.16934C90.8546 8.16934 91.1926 8.08164 91.4918 7.90366C91.8013 7.71794 92.0412 7.45741 92.2089 7.1195C92.3869 6.78417 92.4746 6.39209 92.4746 5.951C92.4746 5.50991 92.3869 5.10493 92.2089 4.7696C92.0412 4.43427 91.8013 4.17632 91.4918 3.99834C91.19 3.81262 90.8546 3.71976 90.4832 3.71976C90.1118 3.71976 89.7868 3.81262 89.4875 3.99834C89.1857 4.17632 88.9484 4.43169 88.7704 4.7696C88.6028 5.10493 88.5176 5.49959 88.5176 5.951C88.5176 6.40241 88.6028 6.78417 88.7704 7.1195C88.9484 7.45483 89.1857 7.71794 89.4875 7.90366C89.7893 8.08164 90.1195 8.16934 90.4832 8.16934Z" fill="white"/>
<path d="M79.2031 11.8221V2.59015H80.6502V3.56003H80.6889C80.7585 3.44395 80.8927 3.2995 81.0887 3.12152C81.2848 2.9358 81.535 2.77587 81.8445 2.64432C82.154 2.50245 82.5229 2.4328 82.9485 2.4328C83.5237 2.4328 84.05 2.58241 84.5297 2.88421C85.0069 3.17569 85.3887 3.59356 85.6724 4.13267C85.9562 4.66404 86.0981 5.27022 86.0981 5.9512C86.0981 6.63218 85.9562 7.23062 85.6724 7.76973C85.3887 8.3011 85.0095 8.71639 84.5297 9.01819C84.0525 9.30967 83.5237 9.4567 82.9485 9.4567C82.5229 9.4567 82.1566 9.38963 81.8445 9.25808C81.535 9.11621 81.2822 8.95628 81.0887 8.78088C80.8927 8.59516 80.7611 8.44555 80.6889 8.32947H80.6502V11.8221H79.2031ZM82.6441 8.16954C83.0156 8.16954 83.3483 8.08184 83.6398 7.90386C83.9416 7.71814 84.1764 7.45761 84.344 7.1197C84.522 6.78437 84.6097 6.39229 84.6097 5.9512C84.6097 5.51011 84.522 5.10513 84.344 4.7698C84.1764 4.43447 83.9416 4.17652 83.6398 3.99854C83.3483 3.81282 83.0156 3.71996 82.6441 3.71996C82.2727 3.71996 81.9322 3.81282 81.6201 3.99854C81.3183 4.17652 81.081 4.43189 80.903 4.7698C80.7353 5.10513 80.6502 5.49979 80.6502 5.9512C80.6502 6.40261 80.7353 6.78437 80.903 7.1197C81.081 7.45503 81.3183 7.71814 81.6201 7.90386C81.9296 8.08184 82.2701 8.16954 82.6441 8.16954Z" fill="white"/>
<path d="M71.3926 9.29783V2.58862H77.5291V9.29783H76.0692V3.87836H72.8422V9.29783H71.3952H71.3926Z" fill="white"/>
<path d="M66.0065 9.29899L67.402 5.87088H65.4107L63.084 0H64.771L66.4708 4.38252H67.9979L69.6978 0H71.346L67.6677 9.29899H66.0065Z" fill="white"/>
<path d="M39.4164 24.2135C38.4001 24.2135 36.2798 26.3209 36.2798 26.3209C36.2798 26.3209 34.0847 24.2161 33.1302 24.2161L9.76282 24.1722L9.74219 31.9158C9.74219 34.0284 10.8643 34.8022 12.1901 34.8022L26.5087 34.8306C27.6463 34.8513 28.8638 35.7566 29.6531 36.4918C30.2903 35.9269 31.5619 34.8255 32.7562 34.8255L47.2657 34.81C48.1789 34.81 49.6208 34.3199 49.6208 32.6149V24.198L39.4164 24.2161V24.2135Z" fill="white"/>
<path d="M22.0235 12.317C22.7664 11.6463 23.9246 10.6326 25.1731 10.6326L42.7057 10.6274C43.6524 10.6145 45.0634 9.61627 45.0634 8.27752V0H0V8.43487C0 9.92065 0.8796 10.599 2.36537 10.599L18.825 10.6326C20.1096 10.6326 21.2884 11.6437 22.0235 12.317Z" fill="white"/>
<path d="M22.0234 14.2183C22.0234 14.2183 19.8695 12.1109 18.8248 12.1109H15.5566V20.1666C15.5566 21.5827 16.5214 22.7048 17.7466 22.7048L32.4264 22.7383C34.3352 22.7435 35.4856 23.6953 36.2775 24.4201C36.9508 23.8346 38.0109 22.8183 39.3574 22.7383L54.713 22.7331C55.8686 22.7331 57.001 21.6962 57.001 20.4761V12.1031L25.1677 12.1135C24.0792 12.1135 22.0182 14.2209 22.0182 14.2209L22.0234 14.2183Z" fill="white"/>
</svg>
