<svg width="356" height="64" viewBox="0 0 356 64" fill="none" xmlns="http://www.w3.org/2000/svg">
<path d="M343.146 59.035V47.8772H345.553V51.5227H347.939C348.727 51.5077 349.507 51.6828 350.214 52.0332C350.84 52.3376 351.367 52.8123 351.736 53.4029C352.1 53.9606 352.292 54.6129 352.289 55.2788C352.295 55.9532 352.103 56.6145 351.736 57.1803C351.366 57.7699 350.839 58.2443 350.214 58.55C349.503 58.884 348.724 59.0499 347.939 59.035H343.146ZM347.824 56.9378C348.35 56.9665 348.869 56.8016 349.283 56.4742C349.449 56.3231 349.582 56.1389 349.672 55.9334C349.763 55.7279 349.81 55.5057 349.81 55.281C349.81 55.0563 349.763 54.8341 349.672 54.6286C349.582 54.4231 349.449 54.2389 349.283 54.0878C348.871 53.7575 348.351 53.5922 347.824 53.6241H345.549V56.9378H347.824ZM353.564 59.035V47.8772H355.997V59.035H353.564Z" fill="#FF0F43"/>
<path d="M331.223 59.0361V47.8783H337.01C337.655 47.8635 338.296 47.9928 338.885 48.2569C339.375 48.458 339.792 48.8038 340.08 49.2481C340.344 49.6633 340.482 50.1468 340.475 50.6391C340.475 51.4898 340.271 52.0769 339.859 52.4299C339.533 52.7209 339.149 52.9398 338.732 53.0723H338.711V53.1361H338.732C339.014 53.1905 339.289 53.2806 339.548 53.4041C339.942 53.5963 340.276 53.89 340.518 54.2548C340.85 54.7168 341.015 55.2777 340.986 55.8457C340.999 56.288 340.91 56.7273 340.726 57.1295C340.541 57.5316 340.266 57.8857 339.923 58.1641C339.09 58.8003 338.056 59.1145 337.01 59.0489L331.223 59.0361ZM336.899 57.0496C337.339 57.0739 337.772 56.9311 338.111 56.6497C338.251 56.5155 338.363 56.3544 338.439 56.176C338.515 55.9977 338.554 55.8057 338.554 55.6118C338.554 55.4179 338.515 55.2259 338.439 55.0476C338.363 54.8692 338.251 54.7081 338.111 54.5739C337.772 54.2925 337.339 54.1497 336.899 54.174H333.629V57.0496H336.899ZM336.721 52.2981C337.09 52.3232 337.454 52.2043 337.737 51.9663C337.855 51.8517 337.949 51.7145 338.013 51.5628C338.078 51.4112 338.111 51.2482 338.111 51.0836C338.111 50.9189 338.078 50.756 338.013 50.6044C337.949 50.4527 337.855 50.3155 337.737 50.2009C337.454 49.963 337.09 49.844 336.721 49.8691H333.629V52.2981H336.721Z" fill="#FF0F43"/>
<path d="M319.299 59.035V47.8772H321.706V52.1863H323.474L326.74 47.8772H329.5L325.639 53.0711L329.832 59.0265H326.961L323.649 54.3217H321.706V59.0265L319.299 59.035Z" fill="#FF0F43"/>
<path d="M311.723 59.2917C310.704 59.3032 309.7 59.0434 308.815 58.5388C307.929 58.0342 307.194 57.3031 306.684 56.4204C306.193 55.511 305.936 54.4935 305.936 53.4598C305.936 52.426 306.193 51.4085 306.684 50.4991C307.19 49.6112 307.924 48.8749 308.81 48.3663C309.696 47.8577 310.702 47.5953 311.723 47.6065C312.655 47.5852 313.579 47.7895 314.415 48.202C315.137 48.5492 315.765 49.064 316.247 49.7036C316.7 50.3151 317.037 51.0042 317.242 51.7369H314.768C314.541 51.1715 314.16 50.6818 313.666 50.3247C313.133 49.9698 312.511 49.7714 311.871 49.7518C311.23 49.7323 310.597 49.8924 310.043 50.2141C309.535 50.5328 309.123 50.9824 308.848 51.5158C308.55 52.1194 308.405 52.7868 308.423 53.4598C308.405 54.1258 308.551 54.7861 308.848 55.3825C309.121 55.9179 309.534 56.3692 310.043 56.6884C310.452 56.9477 310.913 57.1117 311.394 57.1683C311.874 57.2249 312.361 57.1726 312.818 57.0153C313.276 56.858 313.692 56.5997 314.036 56.2596C314.38 55.9195 314.643 55.5063 314.806 55.0507H317.276C317.099 55.8095 316.769 56.5244 316.307 57.1521C315.821 57.8076 315.185 58.3371 314.453 58.6962C313.604 59.1125 312.668 59.3168 311.723 59.2917Z" fill="#FF0F43"/>
<path d="M298.496 59.2929C297.433 59.3078 296.383 59.05 295.447 58.5442C294.565 58.0468 293.831 57.3229 293.321 56.4471C292.816 55.536 292.551 54.5113 292.551 53.4694C292.551 52.4275 292.816 51.4028 293.321 50.4917C293.822 49.6093 294.558 48.8833 295.447 48.3946C296.379 47.8748 297.43 47.6079 298.496 47.6204C299.563 47.6036 300.615 47.8708 301.545 48.3946C302.435 48.8826 303.171 49.6088 303.671 50.4917C304.174 51.4037 304.437 52.428 304.437 53.4694C304.437 54.5107 304.174 55.5351 303.671 56.4471C303.162 57.3236 302.428 58.0478 301.545 58.5442C300.611 59.054 299.56 59.312 298.496 59.2929ZM298.496 57.166C299.123 57.1737 299.742 57.0137 300.286 56.7023C300.814 56.3925 301.243 55.9398 301.524 55.3964C301.839 54.8055 301.999 54.1436 301.987 53.4736C302 52.7968 301.84 52.1279 301.524 51.5296C301.241 50.9883 300.813 50.5373 300.286 50.228C299.742 49.9147 299.124 49.7544 298.496 49.7643C297.877 49.7552 297.266 49.9155 296.731 50.228C296.194 50.5351 295.752 50.9858 295.456 51.5296C295.156 52.1326 295.01 52.8005 295.03 53.4736C295.011 54.1399 295.157 54.8006 295.456 55.3964C295.751 55.9423 296.193 56.3947 296.731 56.7023C297.269 57.0075 297.878 57.1632 298.496 57.1532V57.166Z" fill="#FF0F43"/>
<path d="M272.971 59.0472V43.5803H277.032L281.229 52.9728H282.002L286.221 43.5803H290.282V59.0472H287.654V47.4938L287.764 46.3878H287.633L283.614 55.4102H279.638L275.62 46.3964H275.488L275.599 47.5023V59.0557L272.971 59.0472Z" fill="#FF0F43"/>
<path d="M257.565 59.2912C256.632 59.298 255.715 59.0463 254.916 58.5639C254.111 58.0519 253.455 57.3357 253.016 56.488C252.534 55.5521 252.292 54.5116 252.31 53.4593C252.29 52.4081 252.532 51.3685 253.016 50.4348C253.446 49.5812 254.104 48.863 254.916 48.3589C255.71 47.8612 256.629 47.6001 257.565 47.606C258.188 47.5925 258.805 47.7129 259.377 47.9591C259.848 48.1431 260.28 48.4128 260.653 48.7545C260.895 48.9715 261.111 49.2172 261.295 49.4862H261.358V47.8697H263.787V59.0275H261.358V57.4153H261.295C261.116 57.6945 260.9 57.9478 260.653 58.1683C260.271 58.4984 259.841 58.7668 259.377 58.9637C258.802 59.1949 258.185 59.3063 257.565 59.2912ZM258.05 57.1643C258.638 57.1766 259.219 57.0296 259.73 56.739C260.246 56.4294 260.66 55.9754 260.921 55.433C261.221 54.8304 261.367 54.1623 261.346 53.4891C261.368 52.8089 261.222 52.1339 260.921 51.5238C260.662 50.9877 260.247 50.5428 259.73 50.2476C259.225 49.9367 258.643 49.7759 258.05 49.784C257.466 49.7777 256.892 49.9385 256.396 50.2476C255.885 50.5512 255.471 50.9938 255.201 51.5238C254.908 52.1366 254.762 52.8097 254.776 53.4891C254.762 54.1616 254.908 54.8278 255.201 55.433C255.473 55.9693 255.886 56.4209 256.396 56.739C256.9 57.0235 257.472 57.1661 258.05 57.1516V57.1643Z" fill="#FF0F43"/>
<path d="M241.002 59.0361V47.8784H246.789C247.436 47.8634 248.078 47.9928 248.669 48.257C249.157 48.4581 249.573 48.8039 249.859 49.2481C250.124 49.6633 250.261 50.1468 250.255 50.6391C250.255 51.4898 250.051 52.0769 249.638 52.43C249.313 52.7218 248.928 52.9408 248.511 53.0723H248.49V53.1361H248.511C248.794 53.1895 249.069 53.2796 249.328 53.4041C249.777 53.6261 250.152 53.9739 250.407 54.4051C250.662 54.8363 250.786 55.3324 250.765 55.833C250.779 56.2749 250.691 56.7142 250.507 57.1164C250.324 57.5185 250.05 57.8727 249.706 58.1513C248.872 58.7875 247.836 59.1016 246.789 59.0361H241.002ZM246.679 57.0496C247.12 57.0737 247.554 56.931 247.895 56.6497C248.035 56.5155 248.146 56.3544 248.222 56.176C248.298 55.9977 248.337 55.8057 248.337 55.6118C248.337 55.4179 248.298 55.2259 248.222 55.0476C248.146 54.8692 248.035 54.7081 247.895 54.5739C247.554 54.2926 247.12 54.1499 246.679 54.174H243.409V57.0496H246.679ZM246.504 52.2981C246.872 52.3225 247.235 52.2036 247.516 51.9663C247.636 51.8526 247.732 51.7157 247.797 51.564C247.862 51.4122 247.896 51.2488 247.896 51.0836C247.896 50.9184 247.862 50.755 247.797 50.6033C247.732 50.4515 247.636 50.3146 247.516 50.201C247.235 49.9636 246.872 49.8447 246.504 49.8691H243.409V52.2981H246.504Z" fill="#FF0F43"/>
<path d="M233.278 59.0324V50.0185H229.451V47.8916H239.499V50.0185H235.672V59.0324H233.278Z" fill="#FF0F43"/>
<path d="M223.157 59.2917C222.138 59.3032 221.134 59.0434 220.248 58.5388C219.363 58.0342 218.627 57.3031 218.118 56.4204C217.626 55.511 217.369 54.4935 217.369 53.4598C217.369 52.426 217.626 51.4085 218.118 50.4991C218.623 49.6112 219.357 48.8749 220.243 48.3663C221.129 47.8577 222.135 47.5953 223.157 47.6065C224.089 47.5852 225.012 47.7895 225.848 48.202C226.57 48.5492 227.198 49.064 227.681 49.7036C228.134 50.3151 228.471 51.0042 228.676 51.7369H226.201C225.975 51.1715 225.593 50.6818 225.1 50.3247C224.567 49.9698 223.944 49.7714 223.304 49.7518C222.664 49.7323 222.031 49.8924 221.477 50.2141C220.969 50.5328 220.556 50.9824 220.282 51.5158C219.984 52.1194 219.838 52.7868 219.857 53.4598C219.839 54.1258 219.985 54.7861 220.282 55.3825C220.555 55.9179 220.968 56.3692 221.477 56.6884C221.886 56.9493 222.348 57.1146 222.829 57.1721C223.311 57.2295 223.799 57.1777 224.257 57.0203C224.716 56.8629 225.133 56.604 225.478 56.263C225.822 55.922 226.086 55.5076 226.248 55.0507H228.719C228.541 55.8095 228.211 56.5244 227.749 57.1521C227.263 57.8076 226.627 58.3371 225.895 58.6962C225.044 59.1134 224.104 59.3177 223.157 59.2917Z" fill="#FF0F43"/>
<path d="M206.557 59.035V47.8772H208.963V51.5227H211.791C212.579 51.5077 213.36 51.6828 214.066 52.0332C214.692 52.3376 215.22 52.8123 215.588 53.4029C215.952 53.9606 216.144 54.6129 216.141 55.2788C216.147 55.9532 215.955 56.6145 215.588 57.1803C215.218 57.7699 214.691 58.2443 214.066 58.55C213.355 58.884 212.577 59.0499 211.791 59.035H206.557ZM211.681 56.9378C212.207 56.9673 212.726 56.8023 213.139 56.4742C213.307 56.3238 213.44 56.1398 213.532 55.9342C213.624 55.7286 213.671 55.5061 213.671 55.281C213.671 55.0559 213.624 54.8333 213.532 54.6277C213.44 54.4222 213.307 54.2382 213.139 54.0878C212.727 53.7575 212.207 53.5922 211.681 53.6241H208.963V56.9378H211.681Z" fill="#FF0F43"/>
<path d="M193.68 59.035L196.729 47.8772H202.006L205.054 59.035H202.58L200.152 50.0211H198.583L196.167 59.035H193.68Z" fill="#FF0F43"/>
<path d="M186.99 59.2959C185.949 59.3139 184.922 59.0556 184.013 58.5473C183.142 58.0444 182.419 57.3211 181.917 56.4501C181.412 55.5391 181.146 54.5143 181.146 53.4725C181.146 52.4306 181.412 51.4059 181.917 50.4948C182.412 49.6178 183.136 48.8927 184.013 48.3976C184.922 47.8875 185.947 47.6196 186.99 47.6196C188.032 47.6196 189.057 47.8875 189.966 48.3976C190.84 48.8894 191.559 49.6158 192.041 50.4948C192.544 51.3844 192.804 52.3909 192.794 53.4129V54.0765H183.626C183.691 54.6349 183.886 55.1701 184.198 55.6382C184.509 56.1062 184.926 56.4938 185.416 56.7692C185.896 57.0353 186.437 57.173 186.985 57.169C187.663 57.1893 188.333 57.0293 188.929 56.7054C189.418 56.4187 189.822 56.0059 190.098 55.5101H192.615C192.213 56.6665 191.447 57.6614 190.432 58.3461C189.417 59.0309 188.208 59.3686 186.985 59.3087L186.99 59.2959ZM190.213 52.3622C190.14 51.8877 189.95 51.4389 189.66 51.0563C189.371 50.6496 188.983 50.3232 188.533 50.1077C188.055 49.8675 187.525 49.7464 186.99 49.7546C186.453 49.7498 185.923 49.8707 185.442 50.1077C184.999 50.3337 184.613 50.6582 184.315 51.0563C184.026 51.4471 183.817 51.8908 183.698 52.3622H190.213Z" fill="#FF0F43"/>
<path d="M174.087 59.0324V50.0185H170.26V47.8916H180.308V50.0185H176.481V59.0324H174.087Z" fill="#FF0F43"/>
<path d="M158.424 59.035V47.8772H160.831V54.4621L160.767 55.5681H160.899L166.154 47.8772H168.782V59.035H166.375V52.4501L166.444 51.3483H166.308L161.052 59.035H158.424Z" fill="#FF0F43"/>
<path d="M146.49 59.0361V47.8784H152.278C152.924 47.8634 153.566 47.9928 154.157 48.257C154.646 48.4581 155.061 48.8039 155.348 49.2481C155.612 49.6634 155.751 50.1465 155.747 50.6391C155.747 51.4898 155.539 52.0769 155.127 52.43C154.801 52.7218 154.417 52.9408 154 53.0723V53.1361C154.282 53.1895 154.557 53.2796 154.816 53.4041C155.265 53.6261 155.64 53.9739 155.895 54.4051C156.15 54.8363 156.275 55.3324 156.253 55.833C156.268 56.2749 156.179 56.7142 155.996 57.1164C155.812 57.5185 155.538 57.8727 155.195 58.1513C154.36 58.7875 153.325 59.1016 152.278 59.0361H146.49ZM152.167 57.0496C152.608 57.0737 153.042 56.931 153.383 56.6497C153.523 56.5155 153.634 56.3544 153.711 56.176C153.787 55.9977 153.826 55.8057 153.826 55.6118C153.826 55.4179 153.787 55.2259 153.711 55.0476C153.634 54.8692 153.523 54.7081 153.383 54.5739C153.042 54.2926 152.608 54.1499 152.167 54.174H148.901V57.0496H152.167ZM151.993 52.2981C152.361 52.3228 152.726 52.2039 153.009 51.9663C153.127 51.8517 153.221 51.7145 153.285 51.5629C153.349 51.4112 153.382 51.2483 153.382 51.0836C153.382 50.9189 153.349 50.756 153.285 50.6044C153.221 50.4527 153.127 50.3156 153.009 50.201C152.726 49.9634 152.361 49.8445 151.993 49.8691H148.901V52.2981H151.993Z" fill="#FF0F43"/>
<path d="M137.505 59.2912C136.571 59.2963 135.653 59.0447 134.852 58.5638C134.047 58.0516 133.393 57.3354 132.955 56.4879C132.474 55.552 132.231 54.5116 132.249 53.4592C132.229 52.408 132.472 51.3685 132.955 50.4347C133.384 49.5815 134.041 48.8632 134.852 48.3588C135.647 47.8617 136.567 47.6006 137.505 47.6059C138.126 47.5929 138.742 47.7133 139.312 47.959C139.783 48.1436 140.215 48.4132 140.588 48.7545C140.831 48.9701 141.045 49.216 141.226 49.4861H141.294V47.8697H143.722V59.0274H141.311V57.4153H141.243C141.067 57.6955 140.853 57.9491 140.605 58.1682C140.224 58.498 139.793 58.7663 139.329 58.9637C138.75 59.1968 138.129 59.3082 137.505 59.2912ZM137.99 57.1643C138.576 57.1766 139.155 57.0296 139.665 56.7389C140.182 56.4294 140.597 55.9755 140.86 55.433C141.159 54.8296 141.305 54.162 141.285 53.489C141.305 52.8091 141.159 52.1345 140.86 51.5237C140.6 50.9874 140.183 50.5425 139.665 50.2475C139.162 49.944 138.586 49.7836 137.998 49.7836C137.411 49.7836 136.834 49.944 136.331 50.2475C135.822 50.5525 135.41 50.9948 135.141 51.5237C134.847 52.1365 134.702 52.8096 134.715 53.489C134.702 54.1615 134.847 54.8277 135.141 55.433C135.412 55.9681 135.824 56.4194 136.331 56.7389C136.837 57.023 137.41 57.1655 137.99 57.1515V57.1643Z" fill="#FF0F43"/>
<path d="M119.229 63.2262V47.8699H121.635V49.4863H121.703C121.892 49.2148 122.115 48.9689 122.367 48.7547C122.74 48.4145 123.172 48.145 123.642 47.9592C124.221 47.712 124.846 47.5916 125.475 47.6062C126.405 47.5986 127.318 47.86 128.103 48.3591C128.915 48.8631 129.573 49.5814 130.004 50.4349C130.484 51.3696 130.727 52.4085 130.71 53.4594C130.725 54.5115 130.482 55.5513 130.004 56.4882C129.564 57.3359 128.909 58.0521 128.103 58.564C127.312 59.0476 126.402 59.2996 125.475 59.2914C124.848 59.3076 124.225 59.1962 123.642 58.9639C123.179 58.765 122.749 58.4968 122.367 58.1684C122.118 57.9436 121.895 57.691 121.703 57.4155H121.635V63.2262H119.229ZM124.948 57.1517C125.538 57.1669 126.12 57.0097 126.622 56.6991C127.124 56.3886 127.525 55.9383 127.775 55.4034C128.076 54.8008 128.222 54.1327 128.201 53.4594C128.223 52.7793 128.077 52.1043 127.775 51.4942C127.521 50.9623 127.114 50.5182 126.606 50.218C126.11 49.905 125.534 49.7438 124.948 49.7543C124.349 49.7475 123.76 49.9081 123.247 50.218C122.736 50.5216 122.321 50.9642 122.052 51.4942C121.758 52.107 121.613 52.7801 121.627 53.4594C121.613 54.132 121.759 54.7982 122.052 55.4034C122.324 55.9397 122.737 56.3913 123.247 56.7093C123.765 57.0048 124.352 57.1575 124.948 57.1517Z" fill="#FF0F43"/>
<path d="M103.387 59.0472V43.5803H116.22V59.0472H113.571V46.0518H106.015V59.043L103.387 59.0472Z" fill="#FF0F43"/>
<path d="M303.924 37.734V26.5805H309.703C310.349 26.5642 310.991 26.6921 311.582 26.9548C312.073 27.1549 312.489 27.5028 312.773 27.9502C313.04 28.3642 313.179 28.8482 313.172 29.3412C313.172 30.192 312.964 30.779 312.552 31.132C312.226 31.4202 311.843 31.6375 311.429 31.7701H311.404V31.8382H311.429C311.711 31.891 311.986 31.9796 312.245 32.1019C312.635 32.2992 312.969 32.5919 313.215 32.9527C313.544 33.4158 313.707 33.9763 313.679 34.5436C313.692 34.9861 313.604 35.4257 313.42 35.8285C313.236 36.2313 312.963 36.5863 312.62 36.8662C311.784 37.4999 310.749 37.8123 309.703 37.7468L303.924 37.734ZM309.596 35.7475C310.037 35.7736 310.471 35.6323 310.813 35.3519C310.953 35.2173 311.064 35.0558 311.14 34.8771C311.216 34.6983 311.256 34.5061 311.256 34.3118C311.256 34.1175 311.216 33.9252 311.14 33.7465C311.064 33.5678 310.953 33.4063 310.813 33.2717C310.471 32.9913 310.037 32.85 309.596 32.8761H306.331V35.7475H309.596ZM309.422 30.9959C309.79 31.0196 310.153 30.9025 310.438 30.6684C310.557 30.5534 310.651 30.4159 310.715 30.2639C310.779 30.1119 310.812 29.9486 310.812 29.7836C310.812 29.6186 310.779 29.4553 310.715 29.3033C310.651 29.1513 310.557 29.0138 310.438 28.8988C310.155 28.6612 309.791 28.5423 309.422 28.567H306.331V30.9959H309.422Z" fill="#FF0F43"/>
<path d="M295.821 38.003C294.759 38.0171 293.71 37.7578 292.777 37.2501C291.892 36.7547 291.158 36.0303 290.65 35.153C290.144 34.2422 289.879 33.2173 289.879 32.1753C289.879 31.1333 290.144 30.1084 290.65 29.1976C291.149 28.3125 291.886 27.5847 292.777 27.0962C293.706 26.5758 294.756 26.3089 295.821 26.322C296.888 26.3053 297.94 26.5725 298.87 27.0962C299.762 27.5834 300.498 28.3116 300.996 29.1976C301.502 30.1084 301.768 31.1333 301.768 32.1753C301.768 33.2173 301.502 34.2422 300.996 35.153C300.49 36.0314 299.755 36.7561 298.87 37.2501C297.936 37.7612 296.886 38.0207 295.821 38.003ZM295.821 35.8761C296.449 35.886 297.067 35.7258 297.611 35.4124C298.139 35.1042 298.568 34.6529 298.849 34.1108C299.154 33.5121 299.313 32.8495 299.313 32.1774C299.313 31.5053 299.154 30.8428 298.849 30.2441C298.569 29.6998 298.14 29.2468 297.611 28.9381C297.067 28.6268 296.449 28.4667 295.821 28.4745C295.202 28.4684 294.593 28.6285 294.057 28.9381C293.518 29.2457 293.076 29.6981 292.781 30.2441C292.49 30.847 292.339 31.5079 292.339 32.1774C292.339 32.847 292.49 33.5079 292.781 34.1108C293.077 34.6546 293.519 35.1053 294.057 35.4124C294.594 35.716 295.204 35.8674 295.821 35.8506V35.8761Z" fill="#FF0F43"/>
<path d="M282.965 37.9974C281.947 38.0059 280.945 37.7447 280.061 37.2404C279.176 36.7361 278.441 36.0066 277.93 35.126C277.439 34.2166 277.182 33.1991 277.182 32.1654C277.182 31.1316 277.439 30.1142 277.93 29.2047C278.699 27.9251 279.919 26.9796 281.35 26.5545C282.78 26.1294 284.318 26.2554 285.661 26.9076C286.383 27.2534 287.012 27.7685 287.493 28.4092C287.946 29.0207 288.283 29.7098 288.488 30.4426H286.014C285.777 29.8341 285.355 29.315 284.808 28.958C284.262 28.601 283.617 28.424 282.965 28.4518C282.374 28.4501 281.795 28.6105 281.289 28.9154C280.78 29.2346 280.367 29.686 280.094 30.2214C279.803 30.8243 279.652 31.4852 279.652 32.1547C279.652 32.8243 279.803 33.4852 280.094 34.0881C280.369 34.6215 280.781 35.0711 281.289 35.3898C281.794 35.6965 282.374 35.8571 282.965 35.8534C283.675 35.8785 284.375 35.6692 284.955 35.2579C285.461 34.8748 285.845 34.3532 286.06 33.7563H288.531C288.353 34.5138 288.023 35.2273 287.561 35.8534C287.075 36.5111 286.438 37.0421 285.703 37.4018C284.852 37.8179 283.912 38.0222 282.965 37.9974Z" fill="#FF0F43"/>
<path d="M264.707 37.7326V26.5791H267.114V33.1598L267.046 34.2658H267.178L272.433 26.5791H275.061V37.7326H272.654V31.169L272.723 30.063H272.591L267.335 37.7496L264.707 37.7326Z" fill="#FF0F43"/>
<path d="M252.775 37.7339V26.5804H258.563C259.208 26.5646 259.848 26.6925 260.438 26.9547C260.928 27.1548 261.345 27.5027 261.629 27.9501C261.896 28.3641 262.035 28.8482 262.028 29.3411C262.028 30.1919 261.82 30.7789 261.412 31.132C261.084 31.4195 260.7 31.6367 260.285 31.77H260.259V31.8381H260.285C260.567 31.8909 260.842 31.9795 261.101 32.1019C261.492 32.2977 261.826 32.5907 262.071 32.9526C262.4 33.4157 262.563 33.9762 262.534 34.5435C262.548 34.986 262.459 35.4257 262.276 35.8284C262.092 36.2312 261.818 36.5863 261.476 36.8661C260.641 37.4992 259.608 37.8116 258.563 37.7467L252.775 37.7339ZM258.452 35.7474C258.892 35.7729 259.324 35.6316 259.664 35.3518C259.804 35.2172 259.916 35.0557 259.992 34.877C260.068 34.6983 260.107 34.506 260.107 34.3117C260.107 34.1174 260.068 33.9252 259.992 33.7464C259.916 33.5677 259.804 33.4062 259.664 33.2717C259.324 32.9919 258.892 32.8506 258.452 32.8761H255.182V35.7474H258.452ZM258.274 30.9959C258.642 31.0204 259.005 30.9032 259.29 30.6683C259.408 30.5533 259.502 30.4158 259.566 30.2638C259.631 30.1118 259.664 29.9485 259.664 29.7835C259.664 29.6185 259.631 29.4552 259.566 29.3032C259.502 29.1512 259.408 29.0137 259.29 28.8987C259.007 28.6607 258.643 28.5418 258.274 28.5669H255.182V30.9959H258.274Z" fill="#FF0F43"/>
<path d="M239.146 41.9285V26.5764H241.553V28.1886H241.621C241.809 27.9161 242.032 27.67 242.285 27.457C242.658 27.1173 243.09 26.8491 243.56 26.6657C244.138 26.4149 244.763 26.293 245.393 26.3084C246.323 26.3008 247.236 26.5623 248.021 27.0613C248.833 27.5645 249.489 28.2831 249.917 29.1372C250.402 30.072 250.646 31.113 250.628 32.1659C250.644 33.2172 250.4 34.2562 249.917 35.1904C249.482 36.0396 248.827 36.7565 248.021 37.2663C247.231 37.7533 246.32 38.0069 245.393 37.9979C244.766 38.0128 244.142 37.8999 243.56 37.6661C243.096 37.47 242.665 37.2015 242.285 36.8707C242.033 36.6482 241.81 36.3953 241.621 36.1177H241.553V41.9285H239.146ZM244.866 35.8455C245.455 35.8605 246.037 35.7036 246.539 35.394C247.041 35.0843 247.442 34.6352 247.693 34.1014C247.991 33.4977 248.137 32.8304 248.119 32.1574C248.139 31.4761 247.993 30.8 247.693 30.1879C247.432 29.6616 247.029 29.2192 246.529 28.9109C246.029 28.6025 245.453 28.4407 244.866 28.4438C244.267 28.4406 243.679 28.6009 243.165 28.9075C242.657 29.2137 242.245 29.6557 241.974 30.1837C241.68 30.7978 241.535 31.4724 241.549 32.1532C241.536 32.8256 241.682 33.4915 241.974 34.0972C242.247 34.6302 242.658 35.0799 243.165 35.3988C243.683 35.6943 244.269 35.8483 244.866 35.8455Z" fill="#FF0F43"/>
<path d="M231.184 38.003C230.143 38.0208 229.116 37.7609 228.208 37.2501C227.336 36.7473 226.611 36.0241 226.107 35.153C225.604 34.2413 225.34 33.2168 225.34 32.1753C225.34 31.1338 225.604 30.1093 226.107 29.1976C226.603 28.3185 227.329 27.5918 228.208 27.0962C229.111 26.5729 230.14 26.3053 231.184 26.322C232.228 26.3085 233.256 26.5759 234.161 27.0962C235.036 27.5884 235.755 28.3165 236.236 29.1976C236.738 30.0859 236.996 31.0912 236.984 32.1115V32.7751H227.821C227.89 33.3353 228.086 33.8722 228.395 34.3448C228.711 34.8065 229.127 35.1916 229.611 35.472C230.092 35.7349 230.632 35.871 231.18 35.8676C231.858 35.8898 232.529 35.7296 233.123 35.404C233.613 35.119 234.017 34.7076 234.293 34.2129H236.81C236.406 35.3681 235.639 36.3619 234.625 37.0464C233.611 37.7308 232.402 38.0693 231.18 38.0116L231.184 38.003ZM234.408 31.0651C234.334 30.5921 234.144 30.1449 233.855 29.7634C233.565 29.3562 233.178 29.0285 232.728 28.8105C232.249 28.5704 231.72 28.4493 231.184 28.4575C230.648 28.4527 230.118 28.5736 229.637 28.8105C229.192 29.0368 228.807 29.363 228.51 29.7634C228.219 30.1513 228.009 30.594 227.893 31.0651H234.408Z" fill="#FF0F43"/>
<path d="M218.438 38.0013C217.42 38.0111 216.417 37.7505 215.533 37.2461C214.648 36.7416 213.913 36.0114 213.403 35.13C212.909 34.2213 212.65 33.2035 212.65 32.1693C212.65 31.135 212.909 30.1172 213.403 29.2086C213.899 28.3251 214.623 27.5907 215.499 27.0817C216.356 26.605 217.314 26.3404 218.293 26.3101C219.273 26.2797 220.245 26.4845 221.129 26.9073C221.852 27.2531 222.481 27.7682 222.962 28.4089C223.418 29.0184 223.756 29.7081 223.957 30.4422H221.482C221.26 29.8837 220.886 29.3988 220.402 29.0427C219.835 28.6439 219.152 28.4422 218.459 28.4685C217.86 28.4624 217.271 28.6229 216.758 28.9321C216.249 29.2504 215.837 29.7021 215.567 30.2381C215.276 30.841 215.125 31.5019 215.125 32.1714C215.125 32.841 215.276 33.5019 215.567 34.1048C215.839 34.6388 216.25 35.0888 216.758 35.4065C217.32 35.7316 217.961 35.8918 218.61 35.8684C219.258 35.8451 219.887 35.6393 220.424 35.2746C220.931 34.8927 221.315 34.3707 221.529 33.773H224C223.822 34.5305 223.492 35.244 223.03 35.8701C222.545 36.5272 221.909 37.0582 221.176 37.4185C220.323 37.8297 219.384 38.0296 218.438 38.0013Z" fill="#FF0F43"/>
<path d="M194.367 37.7326L197.68 32.058L194.541 26.5791H197.237L199.597 30.952H200.371L202.757 26.5791H205.453L202.315 32.058L205.627 37.7326H202.935L200.384 33.096H199.61L197.059 37.7326H194.367Z" fill="#FF0F43"/>
<path d="M180.029 37.7326V26.5791H182.436V30.2246H184.822C185.609 30.2088 186.39 30.3824 187.096 30.7308C187.721 31.0377 188.248 31.5119 188.619 32.1006C188.982 32.6602 189.174 33.3136 189.172 33.9807C189.175 34.6534 188.983 35.3126 188.619 35.878C188.249 36.4677 187.722 36.9421 187.096 37.2477C186.385 37.5811 185.607 37.747 184.822 37.7326H180.029ZM184.707 35.6355C185.232 35.6663 185.75 35.5011 186.161 35.1718C186.328 35.0214 186.462 34.8374 186.554 34.6319C186.646 34.4263 186.693 34.2037 186.693 33.9786C186.693 33.7535 186.646 33.531 186.554 33.3254C186.462 33.1198 186.328 32.9358 186.161 32.7854C185.75 32.4561 185.232 32.2909 184.707 32.3218H182.432V35.6355H184.707ZM190.447 37.7326V26.5791H192.875V37.7326H190.447Z" fill="#FF0F43"/>
<path d="M168.098 37.7339V26.5804H173.885C174.53 26.5646 175.171 26.6925 175.76 26.9547C176.251 27.1548 176.667 27.5027 176.951 27.9501C177.218 28.3641 177.357 28.8482 177.351 29.3411C177.351 30.1919 177.142 30.7789 176.73 31.132C176.403 31.4211 176.019 31.6385 175.603 31.77H175.582V31.8381H175.603C175.887 31.8902 176.163 31.9788 176.424 32.1019C176.814 32.2977 177.148 32.5907 177.393 32.9526C177.722 33.4157 177.885 33.9762 177.857 34.5435C177.87 34.986 177.782 35.4257 177.598 35.8284C177.414 36.2312 177.141 36.5863 176.798 36.8661C175.964 37.4992 174.93 37.8116 173.885 37.7467L168.098 37.7339ZM173.774 35.7474C174.214 35.7729 174.647 35.6316 174.986 35.3518C175.126 35.2172 175.238 35.0557 175.314 34.877C175.39 34.6983 175.429 34.506 175.429 34.3117C175.429 34.1174 175.39 33.9252 175.314 33.7464C175.238 33.5677 175.126 33.4062 174.986 33.2717C174.647 32.9919 174.214 32.8506 173.774 32.8761H170.504V35.7474H173.774ZM173.596 30.9959C173.964 31.0195 174.327 30.9025 174.612 30.6683C174.73 30.5533 174.824 30.4158 174.889 30.2638C174.953 30.1118 174.986 29.9485 174.986 29.7835C174.986 29.6185 174.953 29.4552 174.889 29.3032C174.824 29.1512 174.73 29.0137 174.612 28.8987C174.329 28.6611 173.965 28.5422 173.596 28.5669H170.504V30.9959H173.596Z" fill="#FF0F43"/>
<path d="M160.02 38.003C158.958 38.0171 157.909 37.7578 156.976 37.2501C156.092 36.7547 155.357 36.0303 154.85 35.153C154.344 34.2422 154.078 33.2173 154.078 32.1753C154.078 31.1333 154.344 30.1084 154.85 29.1976C155.349 28.3125 156.085 27.5847 156.976 27.0962C157.905 26.5758 158.955 26.3089 160.02 26.322C161.087 26.3053 162.139 26.5725 163.069 27.0962C163.961 27.5834 164.698 28.3116 165.195 29.1976C165.699 30.1093 165.963 31.1338 165.963 32.1753C165.963 33.2168 165.699 34.2413 165.195 35.153C164.689 36.0314 163.954 36.7561 163.069 37.2501C162.135 37.7612 161.085 38.0207 160.02 38.003ZM160.02 35.8761C160.648 35.886 161.267 35.7258 161.811 35.4124C162.339 35.1055 162.768 34.6539 163.048 34.1108C163.353 33.5121 163.513 32.8495 163.513 32.1774C163.513 31.5053 163.353 30.8428 163.048 30.2441C162.77 29.6989 162.34 29.2455 161.811 28.9381C161.266 28.6268 160.648 28.4667 160.02 28.4745C159.401 28.4684 158.792 28.6285 158.256 28.9381C157.717 29.2457 157.275 29.6981 156.98 30.2441C156.689 30.847 156.538 31.5079 156.538 32.1774C156.538 32.847 156.689 33.5079 156.98 34.1108C157.276 34.6546 157.718 35.1053 158.256 35.4124C158.793 35.716 159.403 35.8674 160.02 35.8506V35.8761Z" fill="#FF0F43"/>
<path d="M141.1 41.9285V26.5764H143.511V28.1886H143.574C143.764 27.9181 143.987 27.6724 144.238 27.457C144.612 27.1182 145.044 26.8501 145.513 26.6657C146.091 26.4149 146.717 26.293 147.346 26.3084C148.276 26.3008 149.189 26.5623 149.974 27.0613C150.786 27.5654 151.444 28.2837 151.875 29.1372C152.356 30.0731 152.599 31.1136 152.581 32.1659C152.595 33.2166 152.353 34.2549 151.875 35.1904C151.437 36.039 150.781 36.7555 149.974 37.2663C149.185 37.7533 148.274 38.0069 147.346 37.9979C146.719 38.0128 146.095 37.8999 145.513 37.6661C145.049 37.4689 144.619 37.2005 144.238 36.8707C143.989 36.6458 143.766 36.3932 143.574 36.1177H143.511V41.9285H141.1ZM146.836 35.8455C147.425 35.8597 148.005 35.7024 148.506 35.3928C149.008 35.0832 149.408 34.6345 149.659 34.1014C149.959 33.4984 150.105 32.8306 150.085 32.1574C150.107 31.4759 149.961 30.7994 149.659 30.1879C149.403 29.6568 148.997 29.2129 148.49 28.9118C147.995 28.6014 147.42 28.4404 146.836 28.4481C146.237 28.4437 145.649 28.6041 145.135 28.9118C144.626 29.2177 144.212 29.6596 143.94 30.1879C143.646 30.802 143.5 31.4767 143.515 32.1574C143.502 32.8298 143.648 33.4958 143.94 34.1014C144.204 34.6403 144.617 35.0915 145.131 35.4009C145.644 35.7103 146.237 35.8647 146.836 35.8455Z" fill="#FF0F43"/>
<path d="M127.008 40.1658V35.593H128.224L130.652 26.5791H135.954L138.383 35.593H139.607V40.1658H137.285V37.7326H129.338V40.1658H127.008ZM130.652 35.593H135.954L134.079 28.723H132.536L130.652 35.593Z" fill="#FF0F43"/>
<path d="M119.3 37.9976C118.365 38.0043 117.446 37.7511 116.647 37.266C115.841 36.7549 115.187 36.0384 114.75 35.1901C114.269 34.2555 114.027 33.2166 114.044 32.1656C114.024 31.113 114.267 30.072 114.75 29.1369C115.179 28.2837 115.836 27.5654 116.647 27.061C117.442 26.5638 118.362 26.3028 119.3 26.3081C119.922 26.2947 120.541 26.4166 121.111 26.6654C121.581 26.8492 122.014 27.1173 122.387 27.4567C122.63 27.6723 122.844 27.9182 123.025 28.1883H123.093V26.5761H125.521V37.7296H123.093V36.1174H123.025C122.85 36.3977 122.635 36.6513 122.387 36.8704C122.006 37.201 121.576 37.4695 121.111 37.6658C120.536 37.8977 119.92 38.0105 119.3 37.9976ZM119.785 35.8707C120.373 35.8826 120.953 35.7356 121.464 35.4453C121.978 35.135 122.391 34.683 122.655 34.1437C122.953 33.54 123.099 32.8726 123.08 32.1997C123.101 31.5183 122.955 30.8423 122.655 30.2301C122.394 29.6953 121.98 29.2508 121.464 28.954C120.959 28.6454 120.377 28.4848 119.785 28.4903C119.199 28.4865 118.625 28.6471 118.126 28.954C117.618 29.2602 117.206 29.7022 116.936 30.2301C116.642 30.8443 116.496 31.5189 116.51 32.1997C116.498 32.8721 116.644 33.538 116.936 34.1437C117.208 34.6767 117.62 35.1264 118.126 35.4453C118.633 35.725 119.206 35.8631 119.785 35.8452V35.8707Z" fill="#FF0F43"/>
<path d="M103.164 37.7326V26.5791H105.588V30.884H107.352L110.623 26.5791H113.382L109.517 31.7687L113.714 37.7241H110.844L107.531 33.0194H105.588V37.7241L103.164 37.7326Z" fill="#FF0F43"/>
<path d="M223.887 16.6747C222.847 16.6897 221.821 16.4316 220.911 15.926C220.039 15.4226 219.316 14.6977 218.815 13.8246C218.309 12.9138 218.043 11.889 218.043 10.847C218.043 9.80494 218.309 8.78011 218.815 7.86929C219.308 6.99101 220.033 6.26546 220.911 5.77216C221.82 5.26204 222.845 4.99414 223.887 4.99414C224.93 4.99414 225.955 5.26204 226.864 5.77216C227.74 6.26257 228.46 6.98921 228.943 7.86929C229.443 8.75986 229.702 9.76599 229.692 10.7874V11.4468H220.528C220.592 12.0059 220.787 12.542 221.099 13.0108C221.41 13.4797 221.828 13.8679 222.318 14.1437C222.798 14.4073 223.336 14.5449 223.883 14.5435C224.561 14.5648 225.232 14.4032 225.826 14.0756C226.319 13.7942 226.723 13.382 226.996 12.8846H229.517C229.113 14.0409 228.347 15.0356 227.331 15.7202C226.316 16.4048 225.106 16.7426 223.883 16.6832L223.887 16.6747ZM227.111 9.74098C227.037 9.26731 226.849 8.81886 226.562 8.43505C226.272 8.02942 225.884 7.70324 225.435 7.48646C224.956 7.24468 224.424 7.12348 223.887 7.13338C223.352 7.12701 222.823 7.24803 222.344 7.48646C221.899 7.71012 221.513 8.03502 221.217 8.43505C220.927 8.82569 220.716 9.26933 220.596 9.74098H227.111Z" fill="#FF0F43"/>
<path d="M205.594 16.41V5.2522H208.001V11.8371L207.937 12.9388H208.069L213.324 5.2522H215.952V16.41H213.546V9.82506L213.609 8.71905H213.477L208.222 16.41H205.594Z" fill="#FF0F43"/>
<path d="M192.496 16.41V5.2522H194.886V9.62511H200.363V5.2522H202.795V16.41H200.363V11.769H194.886V16.41H192.496Z" fill="#FF0F43"/>
<path d="M184.528 16.6716C183.487 16.6886 182.46 16.4304 181.551 15.923C180.678 15.4198 179.954 14.6949 179.451 13.8216C178.948 12.9099 178.684 11.8854 178.684 10.8439C178.684 9.8024 178.948 8.77791 179.451 7.86621C179.946 6.98776 180.672 6.26229 181.551 5.76908C182.455 5.24578 183.484 4.97816 184.528 4.99488C185.572 4.98134 186.6 5.24874 187.505 5.76908C188.379 6.25958 189.098 6.98629 189.58 7.86621C190.083 8.75562 190.343 9.76228 190.332 10.7843V11.4437H181.165C181.236 12.0034 181.432 12.5398 181.739 13.0134C182.059 13.4801 182.483 13.8671 182.976 14.1449C183.457 14.409 183.997 14.5466 184.545 14.5447C185.223 14.5656 185.894 14.404 186.488 14.0768C186.979 13.7877 187.382 13.37 187.653 12.8687H190.171C189.768 14.0251 189.002 15.0201 187.987 15.7048C186.973 16.3895 185.763 16.7272 184.541 16.6674L184.528 16.6716ZM187.751 9.7379C187.676 9.26394 187.487 8.81554 187.198 8.43198C186.908 8.02634 186.521 7.70016 186.072 7.48338C185.594 7.2413 185.064 7.12007 184.528 7.13031C183.991 7.12423 183.461 7.24522 182.98 7.48338C182.537 7.70937 182.152 8.03386 181.853 8.43198C181.563 8.82185 181.353 9.26585 181.237 9.7379H187.751Z" fill="#FF0F43"/>
<path d="M166.48 16.41L169.529 5.2522H174.806L177.855 16.41H175.38L172.952 7.39611H171.383L168.951 16.41H166.48Z" fill="#FF0F43"/>
<path d="M155.832 16.4113V5.25357H161.615C162.262 5.23732 162.904 5.36517 163.495 5.62789C163.984 5.83061 164.399 6.17792 164.685 6.62329C164.953 7.03732 165.092 7.52133 165.085 8.0143C165.085 8.86507 164.877 9.45208 164.464 9.80515C164.139 10.0959 163.757 10.3148 163.342 10.4475H163.316V10.5113H163.342C163.623 10.5661 163.897 10.6547 164.158 10.775C164.549 10.9709 164.882 11.2638 165.127 11.6258C165.458 12.0883 165.621 12.6492 165.591 13.2167C165.605 13.6587 165.517 14.0979 165.333 14.5001C165.15 14.9022 164.875 15.2565 164.532 15.5351C163.698 16.1719 162.662 16.4862 161.615 16.4199L155.832 16.4113ZM161.505 14.4206C161.945 14.4467 162.38 14.3054 162.721 14.025C162.861 13.8908 162.972 13.7296 163.048 13.5512C163.124 13.3729 163.163 13.181 163.163 12.987C163.163 12.7931 163.124 12.6012 163.048 12.4228C162.972 12.2444 162.861 12.0833 162.721 11.9491C162.381 11.6656 161.946 11.5226 161.505 11.5492H158.239V14.4206H161.505ZM161.33 9.67328C161.699 9.69796 162.063 9.57909 162.346 9.34149C162.465 9.22652 162.559 9.08896 162.623 8.93698C162.687 8.78501 162.72 8.62169 162.72 8.45669C162.72 8.29169 162.687 8.12837 162.623 7.9764C162.559 7.82442 162.465 7.68686 162.346 7.57189C162.063 7.33429 161.699 7.21542 161.33 7.2401H158.239V9.67328H161.33Z" fill="#FF0F43"/>
<path d="M146.845 16.6664C145.912 16.6732 144.995 16.4214 144.196 15.939C143.39 15.4273 142.734 14.711 142.295 13.8632C141.815 12.9269 141.572 11.8867 141.589 10.8344C141.569 9.78321 141.812 8.7436 142.295 7.80998C142.725 6.95554 143.382 6.23697 144.196 5.73411C144.989 5.2364 145.908 4.97522 146.845 4.98118C147.467 4.96817 148.085 5.08856 148.656 5.33425C149.126 5.51935 149.559 5.78894 149.932 6.12971C150.174 6.34507 150.388 6.58939 150.57 6.85713H150.638V5.24494H153.066V16.4027H150.638V14.7905H150.57C150.395 15.0701 150.18 15.3224 149.932 15.5392C149.552 15.8714 149.122 16.14 148.656 16.3346C148.081 16.5669 147.465 16.6798 146.845 16.6664ZM147.33 14.5395C147.918 14.5514 148.498 14.4044 149.009 14.1142C149.525 13.8046 149.939 13.3506 150.2 12.8082C150.498 12.2047 150.644 11.5372 150.625 10.8642C150.645 10.1843 150.499 9.50975 150.2 8.89896C149.942 8.36216 149.527 7.91691 149.009 7.62281C148.505 7.31232 147.922 7.15154 147.33 7.15916C146.745 7.15287 146.171 7.31373 145.676 7.62281C145.164 7.9253 144.749 8.36814 144.481 8.89896C144.187 9.51175 144.041 10.1849 144.055 10.8642C144.041 11.5367 144.187 12.203 144.481 12.8082C144.752 13.3445 145.165 13.7961 145.676 14.1142C146.181 14.3994 146.754 14.5421 147.334 14.5268L147.33 14.5395Z" fill="#FF0F43"/>
<path d="M128.553 20.6015V5.24517H130.964V6.85736H131.028C131.217 6.58749 131.44 6.34301 131.691 6.12995C132.064 5.78978 132.497 5.52026 132.967 5.33449C133.545 5.0872 134.17 4.96681 134.799 4.98141C135.729 4.9738 136.642 5.23527 137.427 5.73435C138.239 6.23841 138.897 6.95667 139.328 7.81021C139.811 8.74383 140.054 9.78345 140.034 10.8347C140.051 11.8869 139.808 12.9271 139.328 13.8634C138.888 14.7103 138.232 15.4263 137.427 15.9393C136.637 16.4229 135.726 16.6749 134.799 16.6667C134.172 16.6815 133.549 16.5686 132.967 16.3349C132.502 16.1393 132.071 15.8707 131.691 15.5394C131.441 15.3168 131.218 15.0655 131.028 14.7908H130.964V20.6015H128.553ZM134.276 14.527C134.866 14.5411 135.448 14.3834 135.95 14.073C136.452 13.7626 136.853 13.3129 137.104 12.7787C137.403 12.1752 137.549 11.5077 137.529 10.8347C137.549 10.1547 137.403 9.48015 137.104 8.86941C136.842 8.34408 136.438 7.90245 135.939 7.5943C135.439 7.28615 134.863 7.12374 134.276 7.12535C133.677 7.11879 133.088 7.27933 132.575 7.58901C132.064 7.8926 131.65 8.33516 131.38 8.86515C131.089 9.47861 130.943 10.1513 130.955 10.8304C130.944 11.5027 131.09 12.1682 131.38 12.7744C131.653 13.3098 132.066 13.7612 132.575 14.0803C133.098 14.38 133.691 14.5343 134.293 14.527H134.276Z" fill="#FF0F43"/>
<path d="M115.584 16.41V5.2522H125.789V16.41H123.357V7.39611H117.991V16.41H115.584Z" fill="#FF0F43"/>
<path d="M106.631 16.4055L108.948 10.7053H105.636L101.762 0.955566H104.568L107.396 8.24663H109.947L112.775 0.955566H115.514L109.394 16.4225L106.631 16.4055Z" fill="#FF0F43"/>
<path d="M92.3567 19.5363H71.9928C73.4385 18.5239 74.0509 17.2605 74.0509 15.9248V0.955566H0.333984V16.1928C0.342354 16.9167 0.501309 17.631 0.800734 18.2901C1.10016 18.9492 1.53353 19.5388 2.07319 20.0212C2.96191 20.8294 4.59472 21.795 7.34167 21.795L24.2273 21.8206V34.2247C24.2273 35.7136 24.6823 37.1386 26.0728 38.1127H15.3316V51.9674C15.3316 56.4552 17.3429 58.8161 21.4548 58.9862L43.2731 59.0245C44.5956 59.0628 48.108 62.2617 48.108 62.2617C48.108 62.2617 51.5395 59.1309 52.8832 59.0245L75.1777 58.999C77.8481 58.999 81.0032 55.9405 81.0032 53.3627V47.1861V40.38H86.2548C89.8479 40.38 92.3483 37.347 92.3483 34.6884L92.3567 19.5363ZM7.36295 19.498C5.0795 19.498 2.57067 18.4601 2.57067 16.1758V3.21009H71.8014V15.9333C71.8014 17.9879 68.9396 19.5278 67.4811 19.5448H41.2448C39.327 19.5448 37.5454 21.1017 36.4058 22.1311C35.2789 21.0974 33.4675 19.5448 31.4944 19.5448L7.36295 19.498ZM78.8006 53.3329C78.8006 54.6558 76.5809 56.7062 75.1819 56.7062L52.8917 56.7274C51.0548 56.7274 49.0987 58.429 48.1207 59.2797C46.9088 58.1567 45.0421 56.7615 43.2944 56.7274L21.5357 56.6807C18.6995 56.5573 17.5385 55.1791 17.5385 51.9334V47.8029L17.5598 40.346L53.4572 40.4098C54.6393 40.4098 58.2963 43.6469 58.2963 43.6469C58.2963 43.6469 61.8257 40.4183 63.1141 40.4098L78.7878 40.3843L78.8006 53.3329ZM86.2718 38.1467H63.0375C60.9667 38.2701 59.3381 39.8483 58.3048 40.7331C57.0887 39.6143 55.3282 38.151 53.5083 38.1467L30.9714 38.0957C28.8836 38.0957 26.4895 36.3686 26.4895 34.1907V21.8121H31.5072C32.8466 21.7738 36.4186 25.0492 36.4186 25.0492C36.4186 25.0492 39.9309 21.8121 41.2576 21.8121H90.1583V34.6799C90.1286 36.5516 88.0322 38.1467 86.2548 38.1467H86.2718Z" fill="#FF0F43"/>
</svg>
