<svg width="345" height="61" viewBox="0 0 345 61" fill="none" xmlns="http://www.w3.org/2000/svg">
<path d="M332.649 56.5949V45.749H334.96V49.2934H337.251C338.071 49.2934 338.8 49.4561 339.434 49.7855C340.069 50.1149 340.559 50.5569 340.897 51.1157C341.251 51.6744 341.428 52.2832 341.428 52.9421C341.428 53.6009 341.251 54.2306 340.897 54.7894C340.559 55.3481 340.069 55.7901 339.434 56.1196C338.796 56.4365 338.071 56.5908 337.251 56.5908H332.645L332.649 56.5949ZM337.148 54.5558C337.741 54.5558 338.206 54.4057 338.548 54.1055C338.89 53.8053 339.059 53.4175 339.059 52.9463C339.059 52.4751 338.89 52.0873 338.548 51.787C338.211 51.4868 337.741 51.3367 337.148 51.3367H334.96V54.5558H337.148ZM342.664 56.5949V45.749H345V56.5949H342.664Z" fill="#1A1230"/>
<path d="M321.184 56.5949V45.749H326.741C327.434 45.749 328.035 45.87 328.546 46.116C329.057 46.3453 329.436 46.6664 329.691 47.0834C329.947 47.4837 330.075 47.934 330.075 48.4344C330.075 49.2517 329.877 49.8314 329.481 50.1733C329.086 50.5027 328.723 50.7112 328.398 50.7946H328.377V50.8571H328.398C328.595 50.8863 328.859 50.9697 329.185 51.1157C329.51 51.2575 329.819 51.5327 330.12 51.933C330.416 52.3208 330.565 52.8337 330.565 53.48C330.565 54.4099 330.227 55.1605 329.547 55.7359C328.884 56.3072 327.949 56.5949 326.746 56.5949H321.188H321.184ZM326.634 54.6643C327.129 54.6643 327.52 54.535 327.8 54.2765C328.085 54.0179 328.225 53.6843 328.225 53.2673C328.225 52.8504 328.085 52.5168 327.8 52.2582C327.516 51.9997 327.129 51.8704 326.634 51.8704H323.495V54.6601H326.634V54.6643ZM326.465 50.0482C326.89 50.0482 327.215 49.9398 327.442 49.7271C327.681 49.5144 327.804 49.2267 327.804 48.8681C327.804 48.5095 327.685 48.2259 327.442 48.0091C327.215 47.7964 326.89 47.688 326.465 47.688H323.495V50.0482H326.465Z" fill="#1A1230"/>
<path d="M309.727 56.5949V45.749H312.038V49.9356H313.735L316.875 45.749H319.528L315.816 50.7946L319.845 56.5908H317.089L313.908 52.0164H312.042V56.5908H309.731L309.727 56.5949Z" fill="#1A1230"/>
<path d="M302.448 56.8539C301.414 56.8539 300.475 56.6037 299.626 56.1033C298.778 55.6029 298.106 54.9232 297.612 54.0642C297.13 53.2052 296.891 52.2462 296.891 51.187C296.891 50.1279 297.13 49.1688 297.612 48.3098C298.106 47.4383 298.778 46.7502 299.626 46.2498C300.475 45.7495 301.414 45.4993 302.448 45.4993C303.483 45.4993 304.302 45.6911 305.036 46.0789C305.769 46.45 306.358 46.9379 306.795 47.5383C307.232 48.1388 307.553 48.7977 307.751 49.5149H305.374C305.159 48.9728 304.809 48.5141 304.311 48.1388C303.816 47.7677 303.194 47.58 302.444 47.58C301.863 47.58 301.328 47.7302 300.833 48.0304C300.351 48.3306 299.972 48.7518 299.688 49.298C299.404 49.8401 299.264 50.474 299.264 51.187C299.264 51.9001 299.404 52.513 299.688 53.0551C299.972 53.5972 300.351 54.0225 300.833 54.3228C301.328 54.623 301.868 54.7731 302.444 54.7731C303.207 54.7731 303.845 54.5813 304.352 54.1935C304.863 53.7932 305.213 53.3053 305.411 52.734H307.788C307.619 53.4638 307.306 54.1435 306.853 54.7731C306.416 55.3903 305.819 55.8906 305.069 56.2743C304.335 56.6621 303.458 56.8539 302.436 56.8539H302.448Z" fill="#1A1230"/>
<path d="M289.749 56.8539C288.674 56.8539 287.697 56.612 286.82 56.1242C285.959 55.6238 285.279 54.9441 284.785 54.0851C284.29 53.2136 284.043 52.2462 284.043 51.187C284.043 50.1279 284.29 49.1604 284.785 48.2889C285.279 47.4174 285.959 46.7377 286.82 46.2498C287.697 45.7495 288.674 45.4993 289.749 45.4993C290.824 45.4993 291.813 45.7495 292.678 46.2498C293.556 46.7377 294.24 47.4174 294.738 48.2889C295.233 49.1604 295.48 50.1279 295.48 51.187C295.48 52.2462 295.233 53.2136 294.738 54.0851C294.244 54.9441 293.556 55.6238 292.678 56.1242C291.817 56.612 290.841 56.8539 289.749 56.8539ZM289.749 54.7689C290.384 54.7689 290.956 54.6188 291.467 54.3186C291.978 54.0184 292.374 53.5972 292.654 53.0509C292.95 52.5089 293.099 51.8834 293.099 51.1828C293.099 50.4823 292.95 49.836 292.654 49.2939C292.369 48.7518 291.974 48.3265 291.467 48.0262C290.956 47.726 290.384 47.5759 289.749 47.5759C289.115 47.5759 288.563 47.726 288.052 48.0262C287.541 48.3265 287.141 48.7476 286.84 49.2939C286.556 49.836 286.416 50.4698 286.416 51.1828C286.416 51.8959 286.556 52.5089 286.84 53.0509C287.137 53.593 287.541 54.0184 288.052 54.3186C288.563 54.6188 289.127 54.7689 289.749 54.7689Z" fill="#1A1230"/>
<path d="M265.227 56.5952V41.5627H269.128L273.162 50.6906H273.903L277.957 41.5627H281.863V56.5952H279.338V45.3657L279.445 44.294H279.317L275.457 53.055H271.637L267.777 44.294H267.649L267.756 45.3657V56.5952H265.231H265.227Z" fill="#1A1230"/>
<path d="M250.43 56.8537C249.511 56.8537 248.663 56.616 247.884 56.1448C247.122 55.6569 246.512 54.9855 246.059 54.1266C245.605 53.255 245.379 52.271 245.379 51.1868C245.379 50.1026 245.605 49.1018 246.059 48.2428C246.512 47.3713 247.122 46.6958 247.884 46.2246C248.663 45.7367 249.511 45.4949 250.43 45.4949C251.093 45.4949 251.674 45.6075 252.169 45.8368C252.68 46.0536 253.087 46.308 253.401 46.6082C253.714 46.9085 253.916 47.1462 254.014 47.3171H254.08V45.7492H256.412V56.5951H254.08V55.0273H254.014C253.916 55.2149 253.71 55.4567 253.401 55.757C253.087 56.0447 252.68 56.2991 252.169 56.5284C251.674 56.7452 251.093 56.8495 250.43 56.8495V56.8537ZM250.896 54.7687C251.489 54.7687 252.029 54.6269 252.506 54.3392C253.001 54.039 253.384 53.6178 253.652 53.0716C253.936 52.5295 254.076 51.8957 254.076 51.1826C254.076 50.4696 253.936 49.8149 253.652 49.2728C253.384 48.7307 253.001 48.3137 252.506 48.026C252.024 47.7258 251.489 47.5757 250.896 47.5757C250.302 47.5757 249.783 47.7258 249.305 48.026C248.823 48.3137 248.444 48.7265 248.16 49.2728C247.892 49.8149 247.756 50.4529 247.756 51.1826C247.756 51.9123 247.892 52.5295 248.16 53.0716C248.444 53.6137 248.823 54.039 249.305 54.3392C249.787 54.6269 250.315 54.7687 250.896 54.7687Z" fill="#1A1230"/>
<path d="M234.518 56.5949V45.749H240.075C240.768 45.749 241.369 45.87 241.88 46.116C242.391 46.3453 242.77 46.6664 243.025 47.0834C243.281 47.4837 243.409 47.934 243.409 48.4344C243.409 49.2517 243.211 49.8314 242.815 50.1733C242.42 50.5027 242.057 50.7112 241.732 50.7946H241.711V50.8571H241.732C241.929 50.8863 242.193 50.9697 242.519 51.1157C242.844 51.2575 243.157 51.5327 243.454 51.933C243.75 52.3208 243.899 52.8337 243.899 53.48C243.899 54.4099 243.561 55.1605 242.881 55.7359C242.218 56.3072 241.283 56.5949 240.08 56.5949H234.522H234.518ZM239.968 54.6643C240.463 54.6643 240.854 54.535 241.134 54.2765C241.419 54.0179 241.559 53.6843 241.559 53.2673C241.559 52.8504 241.419 52.5168 241.134 52.2582C240.85 51.9997 240.463 51.8704 239.968 51.8704H236.829V54.6601H239.968V54.6643ZM239.799 50.0482C240.224 50.0482 240.549 49.9398 240.776 49.7271C241.015 49.5144 241.138 49.2267 241.138 48.8681C241.138 48.5095 241.019 48.2259 240.776 48.0091C240.549 47.7964 240.224 47.688 239.799 47.688H236.829V50.0482H239.799Z" fill="#1A1230"/>
<path d="M227.093 56.5949V47.834H223.422V45.749H233.075V47.834H229.404V56.5949H227.093Z" fill="#1A1230"/>
<path d="M217.37 56.8539C216.336 56.8539 215.397 56.6037 214.548 56.1033C213.699 55.6029 213.028 54.9232 212.533 54.0642C212.051 53.2052 211.812 52.2462 211.812 51.187C211.812 50.1279 212.051 49.1688 212.533 48.3098C213.028 47.4383 213.699 46.7502 214.548 46.2498C215.397 45.7495 216.336 45.4993 217.37 45.4993C218.404 45.4993 219.224 45.6911 219.958 46.0789C220.691 46.45 221.28 46.9379 221.717 47.5383C222.154 48.1388 222.475 48.7977 222.673 49.5149H220.296C220.081 48.9728 219.731 48.5141 219.233 48.1388C218.738 47.7677 218.116 47.58 217.366 47.58C216.785 47.58 216.25 47.7302 215.755 48.0304C215.273 48.3306 214.894 48.7518 214.61 49.298C214.326 49.8401 214.186 50.474 214.186 51.187C214.186 51.9001 214.326 52.513 214.61 53.0551C214.894 53.5972 215.273 54.0225 215.755 54.3228C216.25 54.623 216.789 54.7731 217.366 54.7731C218.128 54.7731 218.767 54.5813 219.274 54.1935C219.785 53.7932 220.135 53.3053 220.333 52.734H222.71C222.541 53.4638 222.228 54.1435 221.775 54.7731C221.338 55.3903 220.741 55.8906 219.991 56.2743C219.253 56.6621 218.38 56.8539 217.358 56.8539H217.37Z" fill="#1A1230"/>
<path d="M201.426 56.5949V45.749H203.737V49.2934H206.452C207.272 49.2934 208.001 49.4561 208.636 49.7855C209.274 50.1149 209.761 50.5569 210.098 51.1157C210.453 51.6744 210.63 52.2832 210.63 52.9421C210.63 53.6009 210.453 54.2306 210.098 54.7894C209.761 55.3481 209.27 55.7901 208.636 56.1196C207.997 56.4365 207.272 56.5908 206.452 56.5908H201.426V56.5949ZM206.349 54.5558C206.942 54.5558 207.408 54.4057 207.75 54.1055C208.092 53.8053 208.261 53.4175 208.261 52.9463C208.261 52.4751 208.092 52.0873 207.75 51.787C207.412 51.4868 206.942 51.3367 206.349 51.3367H203.741V54.5558H206.349Z" fill="#1A1230"/>
<path d="M189.047 56.5949L191.976 45.749H197.048L199.977 56.5949H197.6L195.264 47.834H193.756L191.42 56.5949H189.043H189.047Z" fill="#1A1230"/>
<path d="M182.626 56.8539C181.58 56.8539 180.632 56.612 179.784 56.1242C178.935 55.6238 178.263 54.9441 177.769 54.0851C177.275 53.2136 177.027 52.2462 177.027 51.187C177.027 50.1279 177.275 49.1604 177.769 48.2889C178.263 47.4174 178.935 46.7377 179.784 46.2498C180.632 45.7495 181.58 45.4993 182.626 45.4993C183.673 45.4993 184.641 45.7495 185.49 46.2498C186.339 46.7377 187.002 47.4174 187.484 48.2889C187.966 49.1479 188.205 50.0945 188.205 51.1245V51.7666H179.4C179.471 52.3254 179.656 52.8341 179.953 53.2928C180.266 53.7515 180.653 54.1143 181.118 54.3895C181.584 54.648 182.087 54.7773 182.626 54.7773C183.36 54.7773 183.986 54.6272 184.493 54.3269C185 54.01 185.379 53.6264 185.618 53.1677H188.036C187.682 54.1977 187.047 55.0733 186.128 55.7864C185.222 56.5036 184.056 56.8581 182.626 56.8581V56.8539ZM185.725 50.1112C185.655 49.6525 185.477 49.2313 185.193 48.8435C184.925 48.4557 184.563 48.1513 184.11 47.922C183.673 47.6926 183.174 47.58 182.626 47.58C182.078 47.58 181.592 47.6926 181.143 47.922C180.707 48.1513 180.344 48.4599 180.06 48.8435C179.775 49.2313 179.578 49.6525 179.466 50.1112H185.725Z" fill="#1A1230"/>
<path d="M170.237 56.5949V47.834H166.566V45.749H176.22V47.834H172.549V56.5949H170.237Z" fill="#1A1230"/>
<path d="M155.18 56.5949V45.749H157.491V52.1498L157.425 53.2215H157.553L162.604 45.749H165.13V56.5949H162.818V50.1941L162.88 49.1225H162.752L157.701 56.5949H155.176H155.18Z" fill="#1A1230"/>
<path d="M143.723 56.5949V45.749H149.281C149.973 45.749 150.574 45.87 151.085 46.116C151.592 46.3453 151.975 46.6664 152.23 47.0834C152.486 47.4837 152.614 47.934 152.614 48.4344C152.614 49.2517 152.416 49.8314 152.02 50.1733C151.625 50.5027 151.262 50.7112 150.937 50.7946H150.916V50.8571H150.937C151.135 50.8863 151.398 50.9697 151.724 51.1157C152.049 51.2575 152.362 51.5327 152.659 51.933C152.956 52.3208 153.104 52.8337 153.104 53.48C153.104 54.4099 152.766 55.1605 152.086 55.7359C151.423 56.3072 150.488 56.5949 149.285 56.5949H143.727H143.723ZM149.173 54.6643C149.668 54.6643 150.059 54.535 150.339 54.2765C150.624 54.0179 150.764 53.6843 150.764 53.2673C150.764 52.8504 150.624 52.5168 150.339 52.2582C150.055 51.9997 149.668 51.8704 149.173 51.8704H146.034V54.6601H149.173V54.6643ZM149.004 50.0482C149.429 50.0482 149.754 49.9398 149.981 49.7271C150.22 49.5144 150.343 49.2267 150.343 48.8681C150.343 48.5095 150.224 48.2259 149.981 48.0091C149.754 47.7964 149.429 47.688 149.004 47.688H146.034V50.0482H149.004Z" fill="#1A1230"/>
<path d="M135.082 56.8537C134.164 56.8537 133.315 56.616 132.536 56.1448C131.774 55.6569 131.164 54.9855 130.711 54.1266C130.258 53.255 130.031 52.271 130.031 51.1868C130.031 50.1026 130.258 49.1018 130.711 48.2428C131.164 47.3713 131.77 46.6958 132.536 46.2246C133.315 45.7367 134.164 45.4949 135.082 45.4949C135.746 45.4949 136.327 45.6075 136.821 45.8368C137.332 46.0536 137.74 46.308 138.053 46.6082C138.366 46.9085 138.568 47.1462 138.667 47.3171H138.729V45.7492H141.065V56.5951H138.729V55.0273H138.667C138.568 55.2149 138.362 55.4567 138.053 55.757C137.744 56.0447 137.332 56.2991 136.821 56.5284C136.327 56.7452 135.746 56.8495 135.082 56.8495V56.8537ZM135.548 54.7687C136.141 54.7687 136.681 54.6269 137.159 54.3392C137.653 54.039 138.036 53.6178 138.304 53.0716C138.588 52.5295 138.729 51.8957 138.729 51.1826C138.729 50.4696 138.588 49.8149 138.304 49.2728C138.036 48.7307 137.653 48.3137 137.159 48.026C136.677 47.7258 136.141 47.5757 135.548 47.5757C134.955 47.5757 134.44 47.7258 133.958 48.026C133.476 48.3137 133.097 48.7265 132.812 49.2728C132.544 49.8149 132.408 50.4529 132.408 51.1826C132.408 51.9123 132.544 52.5295 132.812 53.0716C133.097 53.6137 133.476 54.039 133.958 54.3392C134.44 54.6269 134.967 54.7687 135.548 54.7687Z" fill="#1A1230"/>
<path d="M117.531 60.6777V45.7536H119.843V47.3215H119.908C120.02 47.1339 120.234 46.9004 120.543 46.6126C120.856 46.3124 121.26 46.0539 121.754 45.8412C122.249 45.6119 122.838 45.4993 123.518 45.4993C124.436 45.4993 125.277 45.7411 126.043 46.229C126.805 46.7002 127.415 47.3757 127.868 48.2472C128.322 49.1062 128.548 50.0862 128.548 51.1912C128.548 52.2962 128.322 53.2594 127.868 54.131C127.415 54.9899 126.809 55.6613 126.043 56.1492C125.281 56.6204 124.436 56.8581 123.518 56.8581C122.838 56.8581 122.253 56.7496 121.754 56.537C121.26 56.3076 120.856 56.0491 120.543 55.7655C120.234 55.4653 120.02 55.2235 119.908 55.0358H119.843V60.6819H117.531V60.6777ZM123.027 54.7731C123.621 54.7731 124.152 54.6313 124.618 54.3436C125.1 54.0434 125.475 53.6222 125.742 53.076C126.027 52.5339 126.167 51.9001 126.167 51.187C126.167 50.474 126.027 49.8193 125.742 49.2772C125.475 48.7351 125.1 48.3181 124.618 48.0304C124.152 47.7302 123.621 47.58 123.027 47.58C122.434 47.58 121.89 47.7302 121.396 48.0304C120.914 48.3181 120.535 48.7309 120.25 49.2772C119.983 49.8193 119.847 50.4573 119.847 51.187C119.847 51.9167 119.983 52.5339 120.25 53.076C120.535 53.6181 120.914 54.0434 121.396 54.3436C121.89 54.6313 122.434 54.7731 123.027 54.7731Z" fill="#1A1230"/>
<path d="M102.305 56.5952V41.5627H114.652V56.5952H112.106V43.9688H104.83V56.5952H102.305Z" fill="#1A1230"/>
<path d="M294.957 35.8752V25.0293H300.515C301.207 25.0293 301.809 25.1502 302.319 25.3962C302.83 25.6256 303.209 25.9467 303.465 26.3637C303.72 26.764 303.848 27.2143 303.848 27.7147C303.848 28.532 303.65 29.1116 303.255 29.4536C302.859 29.783 302.497 29.9915 302.171 30.0749H302.151V30.1374H302.171C302.369 30.1666 302.633 30.25 302.958 30.396C303.284 30.5377 303.593 30.8129 303.893 31.2133C304.19 31.6011 304.338 32.1139 304.338 32.7603C304.338 33.6902 304 34.4408 303.321 35.0162C302.657 35.5875 301.722 35.8752 300.519 35.8752H294.961H294.957ZM300.408 33.9445C300.902 33.9445 301.294 33.8153 301.574 33.5567C301.858 33.2982 301.998 32.9646 301.998 32.5476C301.998 32.1306 301.858 31.797 301.574 31.5385C301.289 31.28 300.902 31.1507 300.408 31.1507H297.268V33.9404H300.408V33.9445ZM300.239 29.3285C300.663 29.3285 300.989 29.22 301.215 29.0074C301.454 28.7947 301.578 28.507 301.578 28.1484C301.578 27.7898 301.458 27.5062 301.215 27.2894C300.989 27.0767 300.663 26.9683 300.239 26.9683H297.268V29.3285H300.239Z" fill="#1A1230"/>
<path d="M287.179 36.1325C286.104 36.1325 285.127 35.8906 284.25 35.4027C283.388 34.9023 282.709 34.2226 282.214 33.3636C281.72 32.4921 281.473 31.5247 281.473 30.4656C281.473 29.4064 281.72 28.439 282.214 27.5675C282.709 26.696 283.388 26.0163 284.25 25.5284C285.127 25.028 286.104 24.7778 287.179 24.7778C288.254 24.7778 289.243 25.028 290.108 25.5284C290.986 26.0163 291.67 26.696 292.164 27.5675C292.658 28.439 292.906 29.4064 292.906 30.4656C292.906 31.5247 292.658 32.4921 292.164 33.3636C291.67 34.2226 290.982 34.9023 290.108 35.4027C289.247 35.8906 288.271 36.1325 287.179 36.1325ZM287.179 34.0475C287.817 34.0475 288.39 33.8974 288.897 33.5972C289.408 33.2969 289.803 32.8758 290.083 32.3295C290.38 31.7874 290.528 31.1619 290.528 30.4614C290.528 29.7609 290.38 29.1145 290.083 28.5724C289.799 28.0304 289.404 27.605 288.897 27.3048C288.386 27.0046 287.813 26.8544 287.179 26.8544C286.544 26.8544 285.992 27.0046 285.481 27.3048C284.975 27.605 284.571 28.0262 284.274 28.5724C283.99 29.1145 283.85 29.7483 283.85 30.4614C283.85 31.1744 283.99 31.7874 284.274 32.3295C284.571 32.8716 284.975 33.2969 285.481 33.5972C285.992 33.8974 286.557 34.0475 287.179 34.0475Z" fill="#1A1230"/>
<path d="M274.827 36.1325C273.793 36.1325 272.854 35.8823 272.005 35.3819C271.156 34.8815 270.485 34.2018 269.991 33.3428C269.508 32.4838 269.27 31.5247 269.27 30.4656C269.27 29.4064 269.508 28.4473 269.991 27.5883C270.485 26.7168 271.156 26.0288 272.005 25.5284C272.854 25.028 273.793 24.7778 274.827 24.7778C275.862 24.7778 276.681 24.9696 277.415 25.3574C278.148 25.7286 278.737 26.2164 279.174 26.8169C279.611 27.4174 279.932 28.0762 280.13 28.7934H277.753C277.538 28.2514 277.188 27.7927 276.69 27.4174C276.195 27.0463 275.573 26.8586 274.823 26.8586C274.242 26.8586 273.707 27.0087 273.212 27.309C272.73 27.6092 272.351 28.0303 272.067 28.5766C271.783 29.1187 271.643 29.7525 271.643 30.4656C271.643 31.1786 271.783 31.7916 272.067 32.3337C272.351 32.8758 272.73 33.3011 273.212 33.6013C273.707 33.9016 274.246 34.0517 274.823 34.0517C275.585 34.0517 276.224 33.8599 276.731 33.4721C277.242 33.0718 277.592 32.5839 277.79 32.0126H280.167C279.998 32.7423 279.685 33.422 279.232 34.0517C278.795 34.6688 278.198 35.1692 277.448 35.5528C276.71 35.9406 275.837 36.1325 274.815 36.1325H274.827Z" fill="#1A1230"/>
<path d="M257.289 35.8752V25.0293H259.6V31.4301L259.539 32.5017H259.666L264.717 25.0293H267.243V35.8752H264.932V29.4744L264.998 28.4027H264.87L259.819 35.8752H257.293H257.289Z" fill="#1A1230"/>
<path d="M245.83 35.8752V25.0293H251.388C252.08 25.0293 252.682 25.1502 253.192 25.3962C253.703 25.6256 254.082 25.9467 254.338 26.3637C254.593 26.764 254.721 27.2143 254.721 27.7147C254.721 28.532 254.523 29.1116 254.128 29.4536C253.732 29.783 253.37 29.9915 253.044 30.0749H253.024V30.1374H253.044C253.242 30.1666 253.506 30.25 253.831 30.396C254.157 30.5377 254.47 30.8129 254.766 31.2133C255.063 31.6011 255.211 32.1139 255.211 32.7603C255.211 33.6902 254.873 34.4408 254.194 35.0162C253.53 35.5875 252.595 35.8752 251.392 35.8752H245.834H245.83ZM251.281 33.9445C251.775 33.9445 252.163 33.8153 252.447 33.5567C252.731 33.2982 252.871 32.9646 252.871 32.5476C252.871 32.1306 252.731 31.797 252.447 31.5385C252.163 31.28 251.775 31.1507 251.281 31.1507H248.141V33.9404H251.281V33.9445ZM251.112 29.3285C251.536 29.3285 251.862 29.22 252.088 29.0074C252.327 28.7947 252.451 28.507 252.451 28.1484C252.451 27.7898 252.331 27.5062 252.088 27.2894C251.862 27.0767 251.536 26.9683 251.112 26.9683H248.141V29.3285H251.112Z" fill="#1A1230"/>
<path d="M232.734 39.9526V25.0285H235.046V26.5964H235.112C235.223 26.4088 235.437 26.1753 235.746 25.8875C236.059 25.5873 236.459 25.3288 236.957 25.1161C237.452 24.8868 238.041 24.7742 238.717 24.7742C239.635 24.7742 240.48 25.016 241.242 25.5039C242.004 25.9751 242.614 26.6506 243.067 27.5221C243.52 28.3811 243.747 29.3611 243.747 30.4619C243.747 31.5628 243.52 32.5302 243.067 33.4017C242.614 34.2607 242.008 34.932 241.242 35.4199C240.48 35.8911 239.635 36.1288 238.717 36.1288C238.037 36.1288 237.452 36.0204 236.957 35.8077C236.463 35.5784 236.059 35.3198 235.746 35.0363C235.433 34.7361 235.223 34.4942 235.112 34.3066H235.046V39.9526H232.734ZM238.23 34.048C238.824 34.048 239.355 33.9062 239.821 33.6185C240.303 33.3183 240.678 32.8971 240.946 32.3509C241.23 31.8088 241.37 31.175 241.37 30.4619C241.37 29.7489 241.23 29.0942 240.946 28.5521C240.678 28.01 240.303 27.593 239.821 27.3053C239.355 27.0051 238.824 26.8549 238.23 26.8549C237.637 26.8549 237.093 27.0051 236.599 27.3053C236.117 27.593 235.738 28.0058 235.454 28.5521C235.186 29.0942 235.05 29.7322 235.05 30.4619C235.05 31.1916 235.186 31.8088 235.454 32.3509C235.738 32.893 236.117 33.3183 236.599 33.6185C237.093 33.9062 237.637 34.048 238.23 34.048Z" fill="#1A1230"/>
<path d="M225.08 36.1325C224.033 36.1325 223.085 35.8906 222.237 35.4027C221.388 34.9023 220.716 34.2226 220.222 33.3636C219.728 32.4921 219.48 31.5247 219.48 30.4656C219.48 29.4064 219.728 28.439 220.222 27.5675C220.716 26.696 221.388 26.0163 222.237 25.5284C223.085 25.028 224.033 24.7778 225.08 24.7778C226.126 24.7778 227.094 25.028 227.943 25.5284C228.792 26.0163 229.455 26.696 229.937 27.5675C230.419 28.4265 230.658 29.3731 230.658 30.403V31.0452H221.854C221.924 31.604 222.109 32.1127 222.406 32.5714C222.719 33.0301 223.106 33.3928 223.572 33.668C224.037 33.9266 224.54 34.0558 225.08 34.0558C225.813 34.0558 226.439 33.9057 226.946 33.6055C227.457 33.2886 227.832 32.905 228.071 32.4463H230.489C230.135 33.4762 229.5 34.3519 228.577 35.065C227.671 35.7822 226.505 36.1366 225.075 36.1366L225.08 36.1325ZM228.178 29.3897C228.108 28.931 227.931 28.5099 227.646 28.1221C227.378 27.7343 227.016 27.4257 226.563 27.2005C226.126 26.9712 225.628 26.8586 225.08 26.8586C224.532 26.8586 224.045 26.9712 223.596 27.2005C223.16 27.4299 222.797 27.7385 222.513 28.1221C222.229 28.5099 222.031 28.931 221.92 29.3897H228.178Z" fill="#1A1230"/>
<path d="M212.835 36.1325C211.801 36.1325 210.862 35.8823 210.013 35.3819C209.164 34.8815 208.493 34.2018 207.998 33.3428C207.516 32.4838 207.277 31.5247 207.277 30.4656C207.277 29.4064 207.516 28.4473 207.998 27.5883C208.493 26.7168 209.164 26.0288 210.013 25.5284C210.862 25.028 211.801 24.7778 212.835 24.7778C213.869 24.7778 214.689 24.9696 215.423 25.3574C216.156 25.7286 216.745 26.2164 217.182 26.8169C217.619 27.4174 217.94 28.0762 218.138 28.7934H215.76C215.546 28.2514 215.196 27.7927 214.702 27.4174C214.207 27.0463 213.585 26.8586 212.835 26.8586C212.254 26.8586 211.719 27.0087 211.224 27.309C210.742 27.6092 210.363 28.0303 210.079 28.5766C209.795 29.1187 209.655 29.7525 209.655 30.4656C209.655 31.1786 209.795 31.7916 210.079 32.3337C210.363 32.8758 210.742 33.3011 211.224 33.6013C211.719 33.9016 212.258 34.0517 212.835 34.0517C213.597 34.0517 214.236 33.8599 214.743 33.4721C215.254 33.0718 215.604 32.5839 215.802 32.0126H218.179C218.01 32.7423 217.697 33.422 217.244 34.0517C216.807 34.6688 216.209 35.1692 215.46 35.5528C214.726 35.9406 213.849 36.1325 212.827 36.1325H212.835Z" fill="#1A1230"/>
<path d="M189.711 35.8747L192.892 30.3579L189.88 25.033H192.467L194.737 29.2863H195.479L197.77 25.033H200.357L197.345 30.3579L200.526 35.8747H197.939L195.479 31.367H194.737L192.298 35.8747H189.711Z" fill="#1A1230"/>
<path d="M175.94 35.8752V25.0293H178.251V28.5737H180.542C181.362 28.5737 182.091 28.7363 182.725 29.0658C183.364 29.3952 183.85 29.8372 184.188 30.396C184.542 30.9547 184.719 31.5635 184.719 32.2224C184.719 32.8812 184.542 33.5109 184.188 34.0696C183.85 34.6284 183.36 35.0704 182.725 35.3998C182.087 35.7167 181.362 35.871 180.542 35.871H175.936L175.94 35.8752ZM180.439 33.8361C181.032 33.8361 181.498 33.686 181.839 33.3858C182.177 33.0855 182.35 32.6977 182.35 32.2265C182.35 31.7553 182.181 31.3675 181.839 31.0673C181.502 30.7671 181.032 30.617 180.439 30.617H178.255V33.8361H180.439ZM185.955 35.8752V25.0293H188.291V35.8752H185.955Z" fill="#1A1230"/>
<path d="M164.48 35.8752V25.0293H170.038C170.73 25.0293 171.332 25.1502 171.843 25.3962C172.35 25.6256 172.733 25.9467 172.988 26.3637C173.244 26.764 173.371 27.2143 173.371 27.7147C173.371 28.532 173.174 29.1116 172.778 29.4536C172.383 29.783 172.02 29.9915 171.695 30.0749H171.674V30.1374H171.695C171.892 30.1666 172.156 30.25 172.481 30.396C172.807 30.5377 173.12 30.8129 173.417 31.2133C173.713 31.6011 173.862 32.1139 173.862 32.7603C173.862 33.6902 173.524 34.4408 172.844 35.0162C172.181 35.5875 171.245 35.8752 170.042 35.8752H164.485H164.48ZM169.931 33.9445C170.426 33.9445 170.817 33.8153 171.097 33.5567C171.381 33.2982 171.522 32.9646 171.522 32.5476C171.522 32.1306 171.381 31.797 171.097 31.5385C170.813 31.28 170.426 31.1507 169.931 31.1507H166.792V33.9404H169.931V33.9445ZM169.762 29.3285C170.187 29.3285 170.512 29.22 170.739 29.0074C170.978 28.7947 171.101 28.507 171.101 28.1484C171.101 27.7898 170.982 27.5062 170.739 27.2894C170.512 27.0767 170.187 26.9683 169.762 26.9683H166.792V29.3285H169.762Z" fill="#1A1230"/>
<path d="M156.706 36.1325C155.631 36.1325 154.654 35.8906 153.777 35.4027C152.916 34.9023 152.236 34.2226 151.742 33.3636C151.247 32.4921 151 31.5247 151 30.4656C151 29.4064 151.247 28.439 151.742 27.5675C152.236 26.696 152.916 26.0163 153.777 25.5284C154.654 25.028 155.631 24.7778 156.706 24.7778C157.781 24.7778 158.77 25.028 159.635 25.5284C160.513 26.0163 161.197 26.696 161.691 27.5675C162.186 28.439 162.433 29.4064 162.433 30.4656C162.433 31.5247 162.186 32.4921 161.691 33.3636C161.197 34.2226 160.509 34.9023 159.635 35.4027C158.774 35.8906 157.798 36.1325 156.706 36.1325ZM156.706 34.0475C157.345 34.0475 157.917 33.8974 158.424 33.5972C158.935 33.2969 159.331 32.8758 159.611 32.3295C159.907 31.7874 160.056 31.1619 160.056 30.4614C160.056 29.7609 159.907 29.1145 159.611 28.5724C159.326 28.0304 158.931 27.605 158.424 27.3048C157.917 27.0046 157.341 26.8544 156.706 26.8544C156.072 26.8544 155.52 27.0046 155.009 27.3048C154.502 27.605 154.098 28.0262 153.797 28.5724C153.513 29.1145 153.373 29.7483 153.373 30.4614C153.373 31.1744 153.513 31.7874 153.797 32.3295C154.094 32.8716 154.498 33.2969 155.009 33.5972C155.52 33.8974 156.084 34.0475 156.706 34.0475Z" fill="#1A1230"/>
<path d="M138.543 39.9526V25.0285H140.854V26.5964H140.916C141.027 26.4088 141.242 26.1753 141.555 25.8875C141.868 25.5873 142.267 25.3288 142.762 25.1161C143.256 24.8868 143.845 24.7742 144.525 24.7742C145.444 24.7742 146.284 25.016 147.051 25.5039C147.813 25.9751 148.423 26.6506 148.876 27.5221C149.329 28.3811 149.556 29.3611 149.556 30.4619C149.556 31.5628 149.329 32.5302 148.876 33.4017C148.423 34.2607 147.817 34.932 147.051 35.4199C146.289 35.8911 145.444 36.1288 144.525 36.1288C143.845 36.1288 143.26 36.0204 142.762 35.8077C142.267 35.5784 141.864 35.3198 141.555 35.0363C141.242 34.7361 141.031 34.4942 140.916 34.3066H140.854V39.9526H138.543ZM144.039 34.048C144.632 34.048 145.164 33.9062 145.629 33.6185C146.111 33.3183 146.486 32.8971 146.754 32.3509C147.038 31.8088 147.178 31.175 147.178 30.4619C147.178 29.7489 147.038 29.0942 146.754 28.5521C146.486 28.01 146.111 27.593 145.629 27.3053C145.164 27.0051 144.632 26.8549 144.039 26.8549C143.446 26.8549 142.902 27.0051 142.403 27.3053C141.921 27.593 141.542 28.0058 141.258 28.5521C140.99 29.0942 140.854 29.7322 140.854 30.4619C140.854 31.1916 140.99 31.8088 141.258 32.3509C141.542 32.893 141.921 33.3183 142.403 33.6185C142.898 33.9062 143.442 34.048 144.039 34.048Z" fill="#1A1230"/>
<path d="M125.004 38.2354V33.7902H126.17L128.502 25.0293H133.595L135.926 33.7902H137.092V38.2354H134.863V35.8752H127.225V38.2354H124.996H125.004ZM128.506 33.7902H133.599L131.794 27.1101H130.311L128.506 33.7902Z" fill="#1A1230"/>
<path d="M117.592 36.1325C116.673 36.1325 115.825 35.8948 115.046 35.4236C114.284 34.9357 113.674 34.2643 113.221 33.4053C112.768 32.5338 112.541 31.5497 112.541 30.4656C112.541 29.3814 112.768 28.3806 113.221 27.5258C113.674 26.6543 114.28 25.9788 115.046 25.5076C115.825 25.0197 116.673 24.7778 117.592 24.7778C118.255 24.7778 118.836 24.8904 119.331 25.1198C119.842 25.3366 120.25 25.591 120.563 25.8912C120.876 26.1914 121.078 26.4291 121.177 26.6001H121.238V25.0322H123.574V35.8781H121.238V34.3102H121.177C121.078 34.4979 120.872 34.7397 120.563 35.0399C120.254 35.3277 119.842 35.582 119.331 35.8114C118.836 36.024 118.255 36.1325 117.592 36.1325ZM118.058 34.0475C118.651 34.0475 119.191 33.9057 119.673 33.618C120.167 33.3178 120.55 32.8966 120.818 32.3504C121.102 31.8083 121.242 31.1744 121.242 30.4614C121.242 29.7483 121.102 29.0937 120.818 28.5516C120.55 28.0095 120.167 27.5925 119.673 27.3048C119.191 27.0046 118.655 26.8544 118.058 26.8544C117.46 26.8544 116.949 27.0046 116.467 27.3048C115.985 27.5925 115.606 28.0053 115.322 28.5516C115.054 29.0937 114.918 29.7317 114.918 30.4614C114.918 31.1911 115.054 31.8083 115.322 32.3504C115.606 32.8924 115.985 33.3178 116.467 33.618C116.949 33.9057 117.477 34.0475 118.058 34.0475Z" fill="#1A1230"/>
<path d="M102.098 35.8752V25.0293H104.409V29.2159H106.106L109.246 25.0293H111.899L108.187 30.0749L112.22 35.871H109.46L106.279 31.2966H104.413V35.871H102.102L102.098 35.8752Z" fill="#1A1230"/>
<path d="M218.08 15.4132C217.033 15.4132 216.085 15.1714 215.237 14.6835C214.388 14.1831 213.716 13.5034 213.222 12.6444C212.728 11.7729 212.48 10.8055 212.48 9.74633C212.48 8.68718 212.728 7.71976 213.222 6.84825C213.716 5.97675 214.388 5.29705 215.237 4.80917C216.085 4.30879 217.033 4.05859 218.08 4.05859C219.126 4.05859 220.094 4.30879 220.943 4.80917C221.792 5.29705 222.455 5.97675 222.937 6.84825C223.419 7.70725 223.658 8.65382 223.658 9.68378V10.3259H214.854C214.924 10.8847 215.109 11.3934 215.406 11.8521C215.719 12.3108 216.106 12.6736 216.572 12.9488C217.037 13.2073 217.54 13.3366 218.08 13.3366C218.813 13.3366 219.439 13.1865 219.946 12.8863C220.457 12.5693 220.832 12.1857 221.071 11.727H223.489C223.135 12.757 222.5 13.6327 221.582 14.3457C220.675 15.0629 219.509 15.4174 218.08 15.4174V15.4132ZM221.178 8.6705C221.108 8.21181 220.931 7.79065 220.646 7.40285C220.378 7.01505 220.016 6.70648 219.563 6.4813C219.126 6.25196 218.628 6.13937 218.08 6.13937C217.532 6.13937 217.045 6.25196 216.596 6.4813C216.16 6.71065 215.797 7.01922 215.513 7.40285C215.229 7.79065 215.031 8.21181 214.92 8.6705H221.178Z" fill="#1A1230"/>
<path d="M200.496 15.1545V4.30859H202.807V10.7094L202.746 11.781H202.873L207.924 4.30859H210.45V15.1545H208.139V8.7537L208.205 7.68204H208.077L203.026 15.1545H200.5H200.496Z" fill="#1A1230"/>
<path d="M187.916 15.1545V4.30859H190.227V8.56189H195.489V4.30859H197.825V15.1545H195.489V10.6468H190.227V15.1545H187.916Z" fill="#1A1230"/>
<path d="M180.263 15.4132C179.217 15.4132 178.269 15.1714 177.42 14.6835C176.572 14.1831 175.9 13.5034 175.406 12.6444C174.911 11.7729 174.664 10.8055 174.664 9.74633C174.664 8.68718 174.911 7.71976 175.406 6.84825C175.9 5.97675 176.572 5.29705 177.42 4.80917C178.269 4.30879 179.217 4.05859 180.263 4.05859C181.31 4.05859 182.278 4.30879 183.127 4.80917C183.975 5.29705 184.639 5.97675 185.121 6.84825C185.603 7.70725 185.842 8.65382 185.842 9.68378V10.3259H177.037C177.107 10.8847 177.293 11.3934 177.589 11.8521C177.902 12.3108 178.29 12.6736 178.755 12.9488C179.221 13.2073 179.723 13.3366 180.263 13.3366C180.996 13.3366 181.623 13.1865 182.129 12.8863C182.64 12.5693 183.015 12.1857 183.254 11.727H185.673C185.318 12.757 184.684 13.6327 183.765 14.3457C182.859 15.0629 181.693 15.4174 180.263 15.4174V15.4132ZM183.361 8.6705C183.291 8.21181 183.114 7.79065 182.83 7.40285C182.562 7.01505 182.2 6.70648 181.746 6.4813C181.31 6.25196 180.811 6.13937 180.263 6.13937C179.715 6.13937 179.229 6.25196 178.78 6.4813C178.343 6.71065 177.981 7.01922 177.696 7.40285C177.412 7.79065 177.214 8.21181 177.103 8.6705H183.361Z" fill="#1A1230"/>
<path d="M162.922 15.1545L165.851 4.30859H170.923L173.852 15.1545H171.475L169.143 6.39354H167.635L165.303 15.1545H162.926H162.922Z" fill="#1A1230"/>
<path d="M152.695 15.1545V4.30859H158.253C158.945 4.30859 159.547 4.42952 160.058 4.67554C160.569 4.90489 160.948 5.22597 161.203 5.64296C161.459 6.04327 161.586 6.49362 161.586 6.99401C161.586 7.81131 161.388 8.39092 160.993 8.73285C160.597 9.06227 160.235 9.27077 159.909 9.35417H159.889V9.41672H159.909C160.107 9.4459 160.371 9.5293 160.696 9.67525C161.022 9.81702 161.331 10.0922 161.632 10.4925C161.928 10.8803 162.077 11.3932 162.077 12.0396C162.077 12.9695 161.739 13.72 161.059 14.2955C160.396 14.8668 159.46 15.1545 158.257 15.1545H152.699H152.695ZM158.146 13.2238C158.64 13.2238 159.032 13.0946 159.312 12.836C159.596 12.5775 159.736 12.2439 159.736 11.8269C159.736 11.4099 159.596 11.0763 159.312 10.8178C159.028 10.5593 158.64 10.43 158.146 10.43H155.007V13.2197H158.146V13.2238ZM157.977 8.60776C158.402 8.60776 158.727 8.49934 158.954 8.28667C159.197 8.06984 159.316 7.78629 159.316 7.42768C159.316 7.06906 159.197 6.78551 158.954 6.56868C158.727 6.35601 158.402 6.24759 157.977 6.24759H155.007V8.60776H157.977Z" fill="#1A1230"/>
<path d="M144.055 15.4132C143.136 15.4132 142.288 15.1755 141.509 14.7043C140.747 14.2165 140.137 13.5451 139.684 12.6861C139.231 11.8146 139.004 10.8305 139.004 9.74633C139.004 8.66216 139.231 7.66138 139.684 6.80655C140.137 5.93505 140.743 5.25952 141.509 4.78833C142.288 4.30045 143.136 4.05859 144.055 4.05859C144.718 4.05859 145.299 4.17118 145.794 4.40053C146.305 4.61319 146.712 4.87172 147.026 5.17196C147.335 5.47219 147.541 5.70987 147.639 5.88084H147.705V4.31296H150.037V15.1589H147.705V13.591H147.639C147.541 13.7786 147.335 14.0205 147.026 14.3207C146.712 14.6084 146.305 14.8628 145.794 15.0921C145.299 15.3048 144.718 15.4132 144.055 15.4132ZM144.521 13.3283C145.114 13.3283 145.654 13.1865 146.131 12.8988C146.626 12.5985 147.009 12.1774 147.277 11.6311C147.561 11.089 147.701 10.4552 147.701 9.74216C147.701 9.02911 147.561 8.37443 147.277 7.83235C147.009 7.29026 146.626 6.87327 146.131 6.58555C145.649 6.28532 145.114 6.1352 144.521 6.1352C143.927 6.1352 143.408 6.28532 142.93 6.58555C142.448 6.87327 142.069 7.28609 141.785 7.83235C141.517 8.37443 141.381 9.01243 141.381 9.74216C141.381 10.4719 141.517 11.089 141.785 11.6311C142.069 12.1732 142.448 12.5985 142.93 12.8988C143.412 13.1865 143.94 13.3283 144.521 13.3283Z" fill="#1A1230"/>
<path d="M126.504 19.2324V4.30832H128.815V5.8762H128.877C128.988 5.68855 129.202 5.45504 129.516 5.16732C129.829 4.86708 130.228 4.60855 130.723 4.39589C131.217 4.16654 131.806 4.05396 132.486 4.05396C133.405 4.05396 134.245 4.29581 135.012 4.78369C135.774 5.25488 136.384 5.93041 136.837 6.80192C137.29 7.66091 137.517 8.64084 137.517 9.74169C137.517 10.8425 137.29 11.81 136.837 12.6815C136.384 13.5405 135.778 14.2118 135.012 14.6997C134.249 15.1709 133.405 15.4086 132.486 15.4086C131.806 15.4086 131.221 15.3002 130.723 15.0875C130.228 14.8582 129.825 14.5996 129.516 14.3161C129.202 14.0158 128.992 13.774 128.877 13.5863H128.815V19.2324H126.504ZM132 13.3278C132.593 13.3278 133.125 13.186 133.59 12.8983C134.072 12.5981 134.447 12.1769 134.715 11.6307C134.999 11.0886 135.139 10.4547 135.139 9.74169C135.139 9.02864 134.999 8.37397 134.715 7.83188C134.447 7.28979 134.072 6.8728 133.59 6.58508C133.125 6.28485 132.593 6.13473 132 6.13473C131.407 6.13473 130.863 6.28485 130.364 6.58508C129.882 6.8728 129.503 7.28562 129.219 7.83188C128.951 8.37397 128.815 9.01196 128.815 9.74169C128.815 10.4714 128.951 11.0886 129.219 11.6307C129.503 12.1727 129.882 12.5981 130.364 12.8983C130.859 13.186 131.403 13.3278 132 13.3278Z" fill="#1A1230"/>
<path d="M114.029 15.1545V4.30859H123.831V15.1545H121.499V6.39354H116.345V15.1545H114.033H114.029Z" fill="#1A1230"/>
<path d="M105.426 15.1545L107.655 9.61275H104.474L100.758 0.12207H103.452L106.167 7.20672H108.606L111.321 0.12207H113.954L108.079 15.1545H105.426Z" fill="#1A1230"/>
<path d="M62.9569 39.2647C61.3336 39.2647 57.947 42.6715 57.947 42.6715C57.947 42.6715 54.4409 39.2689 52.9165 39.2689L15.5935 39.198L15.5605 51.716C15.5605 55.1312 17.3527 56.3821 19.4704 56.3821L42.3405 56.428C44.1574 56.4614 46.102 57.925 47.3627 59.1134C48.3804 58.2002 50.4115 56.4197 52.3191 56.4197L75.494 56.3946C76.9525 56.3946 79.2556 55.6024 79.2556 52.8461V39.2397L62.9569 39.2689V39.2647Z" fill="#1A1230"/>
<path d="M35.1765 20.0336C36.363 18.9494 38.2129 17.3106 40.207 17.3106L68.2105 17.3023C69.7226 17.2814 71.9762 15.6677 71.9762 13.5035V0.122314H0V13.7579C0 16.1597 1.40492 17.2564 3.77803 17.2564L30.0677 17.3106C32.1194 17.3106 34.0023 18.9452 35.1765 20.0336Z" fill="#1A1230"/>
<path d="M35.1765 23.1068C35.1765 23.1068 31.7363 19.7 30.0677 19.7H24.8477V32.7226C24.8477 35.0119 26.3885 36.8258 28.3455 36.8258L51.7924 36.88C54.8412 36.8883 56.6787 38.427 57.9435 39.5987C59.0188 38.6522 60.7122 37.0092 62.8628 36.88L87.3891 36.8716C89.2348 36.8716 91.0435 35.1953 91.0435 33.223V19.6875L40.1987 19.7042C38.4601 19.7042 35.1682 23.111 35.1682 23.111L35.1765 23.1068Z" fill="#1A1230"/>
</svg>
