<svg width="374" height="66" viewBox="0 0 374 66" fill="none" xmlns="http://www.w3.org/2000/svg">
<path d="M360.61 61.3416V49.584H363.116V53.4263H365.599C366.488 53.4263 367.278 53.6026 367.966 53.9597C368.654 54.3169 369.185 54.796 369.551 55.4018C369.936 56.0075 370.128 56.6675 370.128 57.3817C370.128 58.0959 369.936 58.7785 369.551 59.3842C369.185 59.99 368.654 60.4691 367.966 60.8262C367.274 61.1698 366.488 61.337 365.599 61.337H360.605L360.61 61.3416ZM365.487 59.1311C366.13 59.1311 366.635 58.9684 367.006 58.6429C367.376 58.3174 367.56 57.897 367.56 57.3862C367.56 56.8754 367.376 56.455 367.006 56.1295C366.639 55.8041 366.13 55.6413 365.487 55.6413H363.116V59.1311H365.487ZM371.468 61.3416V49.584H374V61.3416H371.468Z" fill="#1A1230"/>
<path d="M348.182 61.3416V49.584H354.207C354.957 49.584 355.609 49.7151 356.163 49.9818C356.717 50.2304 357.128 50.5785 357.405 51.0305C357.681 51.4645 357.82 51.9527 357.82 52.4951C357.82 53.3811 357.606 54.0095 357.177 54.3801C356.748 54.7373 356.355 54.9633 356.002 55.0537H355.98V55.1215H356.002C356.217 55.1531 356.502 55.2435 356.855 55.4018C357.208 55.5554 357.543 55.8538 357.869 56.2878C358.191 56.7081 358.351 57.2642 358.351 57.9648C358.351 58.9729 357.985 59.7865 357.248 60.4104C356.529 61.0297 355.515 61.3416 354.211 61.3416H348.186H348.182ZM354.091 59.2486C354.627 59.2486 355.051 59.1085 355.355 58.8282C355.663 58.548 355.815 58.1863 355.815 57.7343C355.815 57.2822 355.663 56.9206 355.355 56.6403C355.046 56.3601 354.627 56.2199 354.091 56.2199H350.687V59.2441H354.091V59.2486ZM353.907 54.2445C354.367 54.2445 354.72 54.127 354.966 53.8965C355.225 53.6659 355.359 53.354 355.359 52.9653C355.359 52.5765 355.229 52.2691 354.966 52.034C354.72 51.8035 354.367 51.686 353.907 51.686H350.687V54.2445H353.907Z" fill="#1A1230"/>
<path d="M335.762 61.3416V49.584H338.267V54.1225H340.107L343.511 49.584H346.387L342.363 55.0537L346.731 61.337H343.743L340.295 56.3782H338.272V61.337H335.766L335.762 61.3416Z" fill="#1A1230"/>
<path d="M327.871 61.6216C326.75 61.6216 325.731 61.3503 324.811 60.8079C323.891 60.2654 323.163 59.5286 322.627 58.5974C322.105 57.6662 321.846 56.6265 321.846 55.4783C321.846 54.3302 322.105 53.2905 322.627 52.3593C323.163 51.4145 323.891 50.6686 324.811 50.1262C325.731 49.5837 326.75 49.3125 327.871 49.3125C328.992 49.3125 329.881 49.5204 330.676 49.9408C331.471 50.3432 332.109 50.872 332.583 51.523C333.056 52.1739 333.405 52.8881 333.619 53.6657H331.042C330.81 53.078 330.43 52.5808 329.89 52.1739C329.354 51.7716 328.679 51.5682 327.866 51.5682C327.237 51.5682 326.656 51.7309 326.12 52.0564C325.597 52.3819 325.187 52.8384 324.878 53.4306C324.57 54.0182 324.418 54.7053 324.418 55.4783C324.418 56.2513 324.57 56.9158 324.878 57.5035C325.187 58.0911 325.597 58.5522 326.12 58.8777C326.656 59.2031 327.241 59.3659 327.866 59.3659C328.693 59.3659 329.385 59.1579 329.934 58.7375C330.488 58.3036 330.868 57.7747 331.082 57.1554H333.659C333.476 57.9465 333.137 58.6833 332.645 59.3659C332.172 60.0349 331.524 60.5774 330.711 60.9932C329.916 61.4136 328.965 61.6216 327.857 61.6216H327.871Z" fill="#1A1230"/>
<path d="M314.104 61.6216C312.938 61.6216 311.88 61.3594 310.928 60.8305C309.995 60.2881 309.258 59.5512 308.722 58.62C308.186 57.6753 307.918 56.6265 307.918 55.4783C307.918 54.3302 308.186 53.2814 308.722 52.3367C309.258 51.3919 309.995 50.6551 310.928 50.1262C311.88 49.5837 312.938 49.3125 314.104 49.3125C315.27 49.3125 316.341 49.5837 317.279 50.1262C318.231 50.6551 318.972 51.3919 319.513 52.3367C320.048 53.2814 320.316 54.3302 320.316 55.4783C320.316 56.6265 320.048 57.6753 319.513 58.62C318.977 59.5512 318.231 60.2881 317.279 60.8305C316.346 61.3594 315.287 61.6216 314.104 61.6216ZM314.104 59.3614C314.792 59.3614 315.412 59.1986 315.966 58.8732C316.52 58.5477 316.949 58.0911 317.253 57.499C317.574 56.9113 317.735 56.2332 317.735 55.4738C317.735 54.7144 317.574 54.0137 317.253 53.4261C316.944 52.8384 316.516 52.3773 315.966 52.0519C315.412 51.7264 314.792 51.5637 314.104 51.5637C313.416 51.5637 312.817 51.7264 312.264 52.0519C311.71 52.3773 311.277 52.8339 310.951 53.4261C310.642 54.0137 310.491 54.7008 310.491 55.4738C310.491 56.2468 310.642 56.9113 310.951 57.499C311.272 58.0866 311.71 58.5477 312.264 58.8732C312.817 59.1986 313.429 59.3614 314.104 59.3614Z" fill="#1A1230"/>
<path d="M287.52 61.341V45.0449H291.749L296.122 54.9401H296.926L301.32 45.0449H305.554V61.341H302.817V49.1675L302.933 48.0058H302.794L298.609 57.5032H294.469L290.284 48.0058H290.146L290.262 49.1675V61.341H287.524H287.52Z" fill="#1A1230"/>
<path d="M271.48 61.6222C270.484 61.6222 269.564 61.3645 268.719 60.8537C267.893 60.3248 267.232 59.597 266.741 58.6658C266.25 57.7211 266.004 56.6543 266.004 55.4789C266.004 54.3036 266.25 53.2187 266.741 52.2875C267.232 51.3428 267.893 50.6105 268.719 50.0997C269.564 49.5708 270.484 49.3086 271.48 49.3086C272.199 49.3086 272.828 49.4306 273.364 49.6793C273.918 49.9143 274.36 50.1901 274.7 50.5155C275.039 50.841 275.258 51.0987 275.365 51.284H275.437V49.5843H277.965V61.3419H275.437V59.6422H275.365C275.258 59.8457 275.035 60.1078 274.7 60.4333C274.36 60.7452 273.918 61.021 273.364 61.2696C272.828 61.5047 272.199 61.6177 271.48 61.6177V61.6222ZM271.984 59.362C272.627 59.362 273.213 59.2083 273.731 58.8964C274.267 58.5709 274.682 58.1143 274.972 57.5222C275.28 56.9345 275.432 56.2474 275.432 55.4744C275.432 54.7014 275.28 53.9917 274.972 53.4041C274.682 52.8164 274.267 52.3644 273.731 52.0525C273.208 51.727 272.627 51.5643 271.984 51.5643C271.341 51.5643 270.778 51.727 270.26 52.0525C269.738 52.3644 269.327 52.8119 269.019 53.4041C268.728 53.9917 268.581 54.6834 268.581 55.4744C268.581 56.2655 268.728 56.9345 269.019 57.5222C269.327 58.1098 269.738 58.5709 270.26 58.8964C270.783 59.2083 271.355 59.362 271.984 59.362Z" fill="#1A1230"/>
<path d="M254.23 61.3416V49.584H260.256C261.006 49.584 261.658 49.7151 262.212 49.9818C262.766 50.2304 263.176 50.5785 263.453 51.0305C263.73 51.4645 263.869 51.9527 263.869 52.4951C263.869 53.3811 263.654 54.0095 263.226 54.3801C262.797 54.7373 262.404 54.9633 262.051 55.0537H262.029V55.1215H262.051C262.265 55.1531 262.551 55.2435 262.904 55.4018C263.257 55.5554 263.596 55.8538 263.918 56.2878C264.239 56.7081 264.4 57.2642 264.4 57.9648C264.4 58.9729 264.034 59.7865 263.297 60.4104C262.578 61.0297 261.564 61.3416 260.26 61.3416H254.235H254.23ZM260.139 59.2486C260.675 59.2486 261.1 59.1085 261.403 58.8282C261.712 58.548 261.863 58.1863 261.863 57.7343C261.863 57.2822 261.712 56.9206 261.403 56.6403C261.095 56.3601 260.675 56.2199 260.139 56.2199H256.736V59.2441H260.139V59.2486ZM259.956 54.2445C260.416 54.2445 260.769 54.127 261.015 53.8965C261.274 53.6659 261.408 53.354 261.408 52.9653C261.408 52.5765 261.278 52.2691 261.015 52.034C260.769 51.8035 260.416 51.686 259.956 51.686H256.736V54.2445H259.956Z" fill="#1A1230"/>
<path d="M246.181 61.3416V51.8442H242.201V49.584H252.666V51.8442H248.686V61.3416H246.181Z" fill="#1A1230"/>
<path d="M235.642 61.6216C234.521 61.6216 233.503 61.3503 232.583 60.8079C231.663 60.2654 230.935 59.5286 230.399 58.5974C229.876 57.6662 229.617 56.6265 229.617 55.4783C229.617 54.3302 229.876 53.2905 230.399 52.3593C230.935 51.4145 231.663 50.6686 232.583 50.1262C233.503 49.5837 234.521 49.3125 235.642 49.3125C236.763 49.3125 237.652 49.5204 238.447 49.9408C239.242 50.3432 239.881 50.872 240.354 51.523C240.828 52.1739 241.176 52.8881 241.39 53.6657H238.813C238.581 53.078 238.201 52.5808 237.661 52.1739C237.125 51.7716 236.451 51.5682 235.638 51.5682C235.008 51.5682 234.427 51.7309 233.891 52.0564C233.369 52.3819 232.958 52.8384 232.65 53.4306C232.342 54.0182 232.19 54.7053 232.19 55.4783C232.19 56.2513 232.342 56.9158 232.65 57.5035C232.958 58.0911 233.369 58.5522 233.891 58.8777C234.427 59.2031 235.013 59.3659 235.638 59.3659C236.464 59.3659 237.156 59.1579 237.706 58.7375C238.259 58.3036 238.639 57.7747 238.854 57.1554H241.431C241.247 57.9465 240.908 58.6833 240.417 59.3659C239.943 60.0349 239.296 60.5774 238.483 60.9932C237.683 61.4136 236.736 61.6216 235.629 61.6216H235.642Z" fill="#1A1230"/>
<path d="M218.357 61.3416V49.584H220.863V53.4263H223.806C224.695 53.4263 225.486 53.6026 226.173 53.9597C226.866 54.3169 227.393 54.796 227.759 55.4018C228.143 56.0075 228.335 56.6675 228.335 57.3817C228.335 58.0959 228.143 58.7785 227.759 59.3842C227.393 59.99 226.861 60.4691 226.173 60.8262C225.481 61.1698 224.695 61.337 223.806 61.337H218.357V61.3416ZM223.695 59.1311C224.338 59.1311 224.843 58.9684 225.213 58.6429C225.584 58.3174 225.767 57.897 225.767 57.3862C225.767 56.8754 225.584 56.455 225.213 56.1295C224.847 55.8041 224.338 55.6413 223.695 55.6413H220.867V59.1311H223.695Z" fill="#1A1230"/>
<path d="M204.938 61.3416L208.114 49.584H213.612L216.787 61.3416H214.21L211.678 51.8442H210.043L207.511 61.3416H204.934H204.938Z" fill="#1A1230"/>
<path d="M197.976 61.6216C196.842 61.6216 195.814 61.3594 194.894 60.8305C193.974 60.288 193.246 59.5512 192.71 58.62C192.174 57.6753 191.906 56.6265 191.906 55.4783C191.906 54.3302 192.174 53.2814 192.71 52.3367C193.246 51.3919 193.974 50.6551 194.894 50.1262C195.814 49.5837 196.842 49.3125 197.976 49.3125C199.11 49.3125 200.16 49.5837 201.08 50.1262C202 50.6551 202.719 51.3919 203.242 52.3367C203.764 53.2679 204.023 54.294 204.023 55.4105V56.1067H194.479C194.555 56.7124 194.756 57.2639 195.077 57.7611C195.417 58.2584 195.837 58.6517 196.341 58.95C196.846 59.2303 197.391 59.3704 197.976 59.3704C198.771 59.3704 199.45 59.2077 199.999 58.8822C200.549 58.5387 200.959 58.1228 201.219 57.6255H203.84C203.456 58.7421 202.768 59.6914 201.772 60.4643C200.79 61.2419 199.526 61.6261 197.976 61.6261V61.6216ZM201.335 54.3121C201.259 53.8148 201.067 53.3583 200.758 52.9379C200.468 52.5175 200.075 52.1875 199.584 51.9389C199.11 51.6902 198.57 51.5682 197.976 51.5682C197.382 51.5682 196.855 51.6902 196.368 51.9389C195.895 52.1875 195.502 52.522 195.193 52.9379C194.885 53.3583 194.671 53.8148 194.55 54.3121H201.335Z" fill="#1A1230"/>
<path d="M184.546 61.3416V51.8442H180.566V49.584H191.031V51.8442H187.051V61.3416H184.546Z" fill="#1A1230"/>
<path d="M168.223 61.3416V49.584H170.729V56.5228L170.657 57.6846H170.796L176.272 49.584H179.009V61.3416H176.504V54.4027L176.571 53.241H176.432L170.957 61.3416H168.219H168.223Z" fill="#1A1230"/>
<path d="M155.803 61.3416V49.584H161.828C162.578 49.584 163.23 49.7151 163.784 49.9818C164.333 50.2304 164.749 50.5785 165.026 51.0305C165.303 51.4645 165.441 51.9527 165.441 52.4951C165.441 53.3811 165.227 54.0095 164.798 54.3801C164.369 54.7373 163.976 54.9633 163.623 55.0537H163.601V55.1215H163.623C163.838 55.1531 164.123 55.2435 164.476 55.4018C164.829 55.5554 165.169 55.8538 165.49 56.2878C165.812 56.7081 165.973 57.2642 165.973 57.9648C165.973 58.9729 165.606 59.7865 164.869 60.4104C164.15 61.0297 163.136 61.3416 161.832 61.3416H155.807H155.803ZM161.712 59.2486C162.248 59.2486 162.672 59.1085 162.976 58.8282C163.284 58.548 163.436 58.1863 163.436 57.7343C163.436 57.2822 163.284 56.9206 162.976 56.6403C162.667 56.3601 162.248 56.2199 161.712 56.2199H158.308V59.2441H161.712V59.2486ZM161.529 54.2445C161.989 54.2445 162.341 54.127 162.587 53.8965C162.846 53.6659 162.98 53.354 162.98 52.9653C162.98 52.5765 162.851 52.2691 162.587 52.034C162.341 51.8035 161.989 51.686 161.529 51.686H158.308V54.2445H161.529Z" fill="#1A1230"/>
<path d="M146.437 61.6222C145.441 61.6222 144.521 61.3645 143.676 60.8537C142.85 60.3248 142.189 59.597 141.698 58.6658C141.207 57.7211 140.961 56.6543 140.961 55.4789C140.961 54.3036 141.207 53.2187 141.698 52.2875C142.189 51.3428 142.846 50.6105 143.676 50.0997C144.521 49.5708 145.441 49.3086 146.437 49.3086C147.156 49.3086 147.785 49.4306 148.321 49.6793C148.875 49.9143 149.317 50.1901 149.657 50.5155C149.996 50.841 150.215 51.0987 150.322 51.284H150.389V49.5843H152.922V61.3419H150.389V59.6422H150.322C150.215 59.8457 149.992 60.1078 149.657 60.4333C149.322 60.7452 148.875 61.021 148.321 61.2696C147.785 61.5047 147.156 61.6177 146.437 61.6177V61.6222ZM146.941 59.362C147.584 59.362 148.17 59.2083 148.688 58.8964C149.224 58.5709 149.639 58.1143 149.929 57.5222C150.237 56.9345 150.389 56.2474 150.389 55.4744C150.389 54.7014 150.237 53.9917 149.929 53.4041C149.639 52.8164 149.224 52.3644 148.688 52.0525C148.165 51.727 147.584 51.5643 146.941 51.5643C146.298 51.5643 145.74 51.727 145.217 52.0525C144.695 52.3644 144.284 52.8119 143.976 53.4041C143.685 53.9917 143.538 54.6834 143.538 55.4744C143.538 56.2655 143.685 56.9345 143.976 57.5222C144.284 58.1098 144.695 58.5709 145.217 58.8964C145.74 59.2083 146.312 59.362 146.941 59.362Z" fill="#1A1230"/>
<path d="M127.41 65.7668V49.5882H129.916V51.2879H129.987C130.108 51.0845 130.34 50.8314 130.675 50.5194C131.014 50.194 131.452 49.9137 131.988 49.6832C132.524 49.4346 133.163 49.3125 133.9 49.3125C134.896 49.3125 135.807 49.5747 136.638 50.1036C137.464 50.6144 138.125 51.3467 138.616 52.2915C139.107 53.2227 139.353 54.2849 139.353 55.4829C139.353 56.6808 139.107 57.725 138.616 58.6697C138.125 59.6009 137.468 60.3287 136.638 60.8576C135.811 61.3684 134.896 61.6261 133.9 61.6261C133.163 61.6261 132.529 61.5086 131.988 61.278C131.452 61.0294 131.014 60.7491 130.675 60.4417C130.34 60.1163 130.108 59.8541 129.987 59.6507H129.916V65.7713H127.41V65.7668ZM133.368 59.3659C134.011 59.3659 134.588 59.2122 135.092 58.9003C135.615 58.5748 136.021 58.1183 136.312 57.5261C136.62 56.9384 136.772 56.2513 136.772 55.4783C136.772 54.7053 136.62 53.9956 136.312 53.408C136.021 52.8203 135.615 52.3683 135.092 52.0564C134.588 51.7309 134.011 51.5682 133.368 51.5682C132.725 51.5682 132.136 51.7309 131.6 52.0564C131.077 52.3683 130.666 52.8158 130.358 53.408C130.068 53.9956 129.92 54.6873 129.92 55.4783C129.92 56.2694 130.068 56.9384 130.358 57.5261C130.666 58.1137 131.077 58.5748 131.6 58.9003C132.136 59.2122 132.725 59.3659 133.368 59.3659Z" fill="#1A1230"/>
<path d="M110.904 61.341V45.0449H124.29V61.341H121.53V47.6532H113.642V61.341H110.904Z" fill="#1A1230"/>
<path d="M319.75 38.8787V27.1211H325.775C326.525 27.1211 327.177 27.2522 327.731 27.5189C328.285 27.7675 328.696 28.1156 328.973 28.5676C329.25 29.0016 329.388 29.4898 329.388 30.0322C329.388 30.9182 329.174 31.5466 328.745 31.9172C328.316 32.2744 327.923 32.5004 327.571 32.5908H327.548V32.6586H327.571C327.785 32.6902 328.071 32.7806 328.424 32.9389C328.776 33.0926 329.111 33.3909 329.437 33.8249C329.759 34.2453 329.92 34.8013 329.92 35.5019C329.92 36.51 329.554 37.3237 328.817 37.9475C328.098 38.5668 327.084 38.8787 325.78 38.8787H319.754H319.75ZM325.659 36.7857C326.195 36.7857 326.619 36.6456 326.923 36.3653C327.231 36.0851 327.383 35.7234 327.383 35.2714C327.383 34.8193 327.231 34.4577 326.923 34.1774C326.615 33.8972 326.195 33.7571 325.659 33.7571H322.256V36.7812H325.659V36.7857ZM325.476 31.7816C325.936 31.7816 326.289 31.6641 326.534 31.4336C326.793 31.203 326.927 30.8911 326.927 30.5024C326.927 30.1136 326.798 29.8062 326.534 29.5712C326.289 29.3406 325.936 29.2231 325.476 29.2231H322.256V31.7816H325.476Z" fill="#1A1230"/>
<path d="M311.319 39.1587C310.153 39.1587 309.094 38.8965 308.143 38.3676C307.21 37.8252 306.473 37.0883 305.937 36.1571C305.401 35.2124 305.133 34.1636 305.133 33.0154C305.133 31.8673 305.401 30.8185 305.937 29.8738C306.473 28.929 307.21 28.1922 308.143 27.6633C309.094 27.1208 310.153 26.8496 311.319 26.8496C312.484 26.8496 313.556 27.1208 314.494 27.6633C315.446 28.1922 316.187 28.929 316.723 29.8738C317.259 30.8185 317.527 31.8673 317.527 33.0154C317.527 34.1636 317.259 35.2124 316.723 36.1571C316.187 37.0883 315.441 37.8252 314.494 38.3676C313.561 38.8965 312.502 39.1587 311.319 39.1587ZM311.319 36.8985C312.011 36.8985 312.632 36.7357 313.181 36.4103C313.735 36.0848 314.164 35.6282 314.467 35.0361C314.789 34.4484 314.95 33.7704 314.95 33.0109C314.95 32.2515 314.789 31.5508 314.467 30.9632C314.159 30.3755 313.73 29.9144 313.181 29.589C312.627 29.2635 312.006 29.1008 311.319 29.1008C310.631 29.1008 310.032 29.2635 309.479 29.589C308.929 29.9144 308.491 30.371 308.17 30.9632C307.862 31.5508 307.71 32.2379 307.71 33.0109C307.71 33.7839 307.862 34.4484 308.17 35.0361C308.491 35.6237 308.929 36.0848 309.479 36.4103C310.032 36.7357 310.644 36.8985 311.319 36.8985Z" fill="#1A1230"/>
<path d="M297.927 39.1587C296.806 39.1587 295.788 38.8875 294.868 38.345C293.948 37.8026 293.22 37.0657 292.684 36.1345C292.161 35.2033 291.902 34.1636 291.902 33.0154C291.902 31.8673 292.161 30.8276 292.684 29.8964C293.22 28.9516 293.948 28.2057 294.868 27.6633C295.788 27.1208 296.806 26.8496 297.927 26.8496C299.048 26.8496 299.937 27.0575 300.732 27.4779C301.527 27.8803 302.166 28.4091 302.639 29.0601C303.113 29.711 303.461 30.4253 303.676 31.2028H301.098C300.866 30.6151 300.487 30.1179 299.946 29.711C299.41 29.3087 298.736 29.1053 297.923 29.1053C297.293 29.1053 296.713 29.268 296.177 29.5935C295.654 29.919 295.243 30.3755 294.935 30.9677C294.627 31.5554 294.475 32.2425 294.475 33.0154C294.475 33.7884 294.627 34.4529 294.935 35.0406C295.243 35.6282 295.654 36.0893 296.177 36.4148C296.713 36.7403 297.298 36.903 297.923 36.903C298.749 36.903 299.441 36.6951 299.991 36.2747C300.545 35.8407 300.924 35.3118 301.139 34.6925H303.716C303.533 35.4836 303.193 36.2204 302.702 36.903C302.228 37.572 301.581 38.1145 300.768 38.5303C299.968 38.9507 299.022 39.1587 297.914 39.1587H297.927Z" fill="#1A1230"/>
<path d="M278.916 38.8787V27.1211H281.422V34.0599L281.355 35.2217H281.493L286.969 27.1211H289.707V38.8787H287.201V31.9398L287.272 30.7781H287.134L281.658 38.8787H278.92H278.916Z" fill="#1A1230"/>
<path d="M266.494 38.8787V27.1211H272.519C273.27 27.1211 273.922 27.2522 274.475 27.5189C275.029 27.7675 275.44 28.1156 275.717 28.5676C275.994 29.0016 276.132 29.4898 276.132 30.0322C276.132 30.9182 275.918 31.5466 275.489 31.9172C275.061 32.2744 274.667 32.5004 274.315 32.5908H274.292V32.6586H274.315C274.529 32.6902 274.815 32.7806 275.168 32.9389C275.521 33.0926 275.86 33.3909 276.182 33.8249C276.503 34.2453 276.664 34.8013 276.664 35.5019C276.664 36.51 276.298 37.3237 275.561 37.9475C274.842 38.5668 273.828 38.8787 272.524 38.8787H266.499H266.494ZM272.403 36.7857C272.939 36.7857 273.359 36.6456 273.667 36.3653C273.975 36.0851 274.127 35.7234 274.127 35.2714C274.127 34.8193 273.975 34.4577 273.667 34.1774C273.359 33.8972 272.939 33.7571 272.403 33.7571H269V36.7812H272.403V36.7857ZM272.22 31.7816C272.68 31.7816 273.033 31.6641 273.278 31.4336C273.538 31.203 273.672 30.8911 273.672 30.5024C273.672 30.1136 273.542 29.8062 273.278 29.5712C273.033 29.3406 272.68 29.2231 272.22 29.2231H269V31.7816H272.22Z" fill="#1A1230"/>
<path d="M252.297 43.3V27.1214H254.802V28.8211H254.874C254.995 28.6177 255.227 28.3646 255.562 28.0527C255.901 27.7272 256.334 27.4469 256.875 27.2164C257.411 26.9678 258.049 26.8457 258.782 26.8457C259.778 26.8457 260.694 27.1079 261.52 27.6368C262.346 28.1476 263.007 28.8799 263.498 29.8247C263.99 30.7559 264.235 31.8182 264.235 33.0115C264.235 34.2049 263.99 35.2537 263.498 36.1984C263.007 37.1296 262.351 37.8574 261.52 38.3863C260.694 38.8971 259.778 39.1548 258.782 39.1548C258.045 39.1548 257.411 39.0372 256.875 38.8067C256.339 38.5581 255.901 38.2778 255.562 37.9704C255.222 37.645 254.995 37.3828 254.874 37.1794H254.802V43.3H252.297ZM258.255 36.8991C258.898 36.8991 259.474 36.7454 259.979 36.4335C260.501 36.108 260.908 35.6515 261.198 35.0593C261.506 34.4716 261.658 33.7845 261.658 33.0115C261.658 32.2386 261.506 31.5288 261.198 30.9412C260.908 30.3535 260.501 29.9015 259.979 29.5896C259.474 29.2641 258.898 29.1014 258.255 29.1014C257.612 29.1014 257.022 29.2641 256.486 29.5896C255.964 29.9015 255.553 30.349 255.245 30.9412C254.954 31.5288 254.807 32.2205 254.807 33.0115C254.807 33.8026 254.954 34.4716 255.245 35.0593C255.553 35.6469 255.964 36.108 256.486 36.4335C257.022 36.7454 257.612 36.8991 258.255 36.8991Z" fill="#1A1230"/>
<path d="M243.999 39.1587C242.865 39.1587 241.838 38.8965 240.918 38.3676C239.998 37.8252 239.27 37.0883 238.734 36.1571C238.198 35.2124 237.93 34.1636 237.93 33.0154C237.93 31.8673 238.198 30.8185 238.734 29.8738C239.27 28.929 239.998 28.1922 240.918 27.6633C241.838 27.1208 242.865 26.8496 243.999 26.8496C245.134 26.8496 246.183 27.1208 247.104 27.6633C248.024 28.1922 248.743 28.929 249.265 29.8738C249.788 30.805 250.047 31.8311 250.047 32.9476V33.6438H240.502C240.578 34.2495 240.779 34.801 241.101 35.2983C241.44 35.7955 241.86 36.1888 242.365 36.4871C242.869 36.7674 243.414 36.9075 243.999 36.9075C244.794 36.9075 245.473 36.7448 246.023 36.4193C246.576 36.0758 246.983 35.6599 247.242 35.1626H249.864C249.48 36.2792 248.792 37.2285 247.791 38.0015C246.809 38.779 245.545 39.1632 243.995 39.1632L243.999 39.1587ZM247.358 31.8492C247.282 31.3519 247.09 30.8954 246.782 30.475C246.492 30.0546 246.099 29.7201 245.607 29.476C245.134 29.2273 244.593 29.1053 243.999 29.1053C243.405 29.1053 242.878 29.2273 242.392 29.476C241.918 29.7246 241.525 30.0591 241.217 30.475C240.909 30.8954 240.694 31.3519 240.574 31.8492H247.358Z" fill="#1A1230"/>
<path d="M230.724 39.1587C229.603 39.1587 228.585 38.8875 227.665 38.345C226.745 37.8026 226.017 37.0657 225.481 36.1345C224.958 35.2033 224.699 34.1636 224.699 33.0154C224.699 31.8673 224.958 30.8276 225.481 29.8964C226.017 28.9516 226.745 28.2057 227.665 27.6633C228.585 27.1208 229.603 26.8496 230.724 26.8496C231.845 26.8496 232.734 27.0575 233.529 27.4779C234.324 27.8803 234.963 28.4091 235.436 29.0601C235.91 29.711 236.258 30.4253 236.472 31.2028H233.895C233.663 30.6151 233.283 30.1179 232.748 29.711C232.212 29.3087 231.537 29.1053 230.724 29.1053C230.095 29.1053 229.514 29.268 228.978 29.5935C228.455 29.919 228.044 30.3755 227.736 30.9677C227.428 31.5554 227.276 32.2425 227.276 33.0154C227.276 33.7884 227.428 34.4529 227.736 35.0406C228.044 35.6282 228.455 36.0893 228.978 36.4148C229.514 36.7403 230.099 36.903 230.724 36.903C231.551 36.903 232.243 36.6951 232.792 36.2747C233.346 35.8407 233.726 35.3118 233.94 34.6925H236.517C236.334 35.4836 235.994 36.2204 235.503 36.903C235.03 37.572 234.382 38.1145 233.569 38.5303C232.774 38.9507 231.823 39.1587 230.715 39.1587H230.724Z" fill="#1A1230"/>
<path d="M205.656 38.8781L209.104 32.8976L205.839 27.125H208.644L211.105 31.7358H211.909L214.392 27.125H217.197L213.932 32.8976L217.38 38.8781H214.575L211.909 33.9915H211.105L208.461 38.8781H205.656Z" fill="#1A1230"/>
<path d="M190.727 38.8787V27.1211H193.233V30.9634H195.716C196.605 30.9634 197.395 31.1397 198.083 31.4969C198.775 31.854 199.302 32.3331 199.669 32.9389C200.053 33.5446 200.245 34.2046 200.245 34.9188C200.245 35.633 200.053 36.3156 199.669 36.9213C199.302 37.5271 198.771 38.0062 198.083 38.3633C197.391 38.7069 196.605 38.8742 195.716 38.8742H190.723L190.727 38.8787ZM195.604 36.6682C196.247 36.6682 196.752 36.5055 197.123 36.18C197.489 35.8545 197.677 35.4341 197.677 34.9233C197.677 34.4125 197.494 33.9921 197.123 33.6666C196.757 33.3412 196.247 33.1784 195.604 33.1784H193.237V36.6682H195.604ZM201.585 38.8787V27.1211H204.117V38.8787H201.585Z" fill="#1A1230"/>
<path d="M178.305 38.8787V27.1211H184.33C185.08 27.1211 185.732 27.2522 186.286 27.5189C186.835 27.7675 187.251 28.1156 187.528 28.5676C187.805 29.0016 187.943 29.4898 187.943 30.0322C187.943 30.9182 187.729 31.5466 187.3 31.9172C186.871 32.2744 186.478 32.5004 186.125 32.5908H186.103V32.6586H186.125C186.34 32.6902 186.625 32.7806 186.978 32.9389C187.331 33.0926 187.671 33.3909 187.992 33.8249C188.314 34.2453 188.474 34.8013 188.474 35.5019C188.474 36.51 188.108 37.3237 187.371 37.9475C186.652 38.5668 185.638 38.8787 184.334 38.8787H178.309H178.305ZM184.214 36.7857C184.75 36.7857 185.174 36.6456 185.478 36.3653C185.786 36.0851 185.938 35.7234 185.938 35.2714C185.938 34.8193 185.786 34.4577 185.478 34.1774C185.169 33.8972 184.75 33.7571 184.214 33.7571H180.81V36.7812H184.214V36.7857ZM184.03 31.7816C184.491 31.7816 184.843 31.6641 185.089 31.4336C185.348 31.203 185.482 30.8911 185.482 30.5024C185.482 30.1136 185.353 29.8062 185.089 29.5712C184.843 29.3406 184.491 29.2231 184.03 29.2231H180.81V31.7816H184.03Z" fill="#1A1230"/>
<path d="M169.877 39.1587C168.712 39.1587 167.653 38.8965 166.702 38.3676C165.768 37.8252 165.031 37.0883 164.495 36.1571C163.959 35.2124 163.691 34.1636 163.691 33.0154C163.691 31.8673 163.959 30.8185 164.495 29.8738C165.031 28.929 165.768 28.1922 166.702 27.6633C167.653 27.1208 168.712 26.8496 169.877 26.8496C171.043 26.8496 172.115 27.1208 173.053 27.6633C174.004 28.1922 174.746 28.929 175.281 29.8738C175.817 30.8185 176.085 31.8673 176.085 33.0154C176.085 34.1636 175.817 35.2124 175.281 36.1571C174.746 37.0883 174 37.8252 173.053 38.3676C172.119 38.8965 171.061 39.1587 169.877 39.1587ZM169.877 36.8985C170.57 36.8985 171.19 36.7357 171.74 36.4103C172.294 36.0848 172.722 35.6282 173.026 35.0361C173.348 34.4484 173.508 33.7704 173.508 33.0109C173.508 32.2515 173.348 31.5508 173.026 30.9632C172.718 30.3755 172.289 29.9144 171.74 29.589C171.19 29.2635 170.565 29.1008 169.877 29.1008C169.189 29.1008 168.591 29.2635 168.037 29.589C167.488 29.9144 167.05 30.371 166.724 30.9632C166.416 31.5508 166.264 32.2379 166.264 33.0109C166.264 33.7839 166.416 34.4484 166.724 35.0361C167.046 35.6237 167.483 36.0848 168.037 36.4103C168.591 36.7357 169.203 36.8985 169.877 36.8985Z" fill="#1A1230"/>
<path d="M150.188 43.3V27.1214H152.693V28.8211H152.76C152.881 28.6177 153.113 28.3646 153.452 28.0527C153.792 27.7272 154.225 27.4469 154.761 27.2164C155.297 26.9678 155.936 26.8457 156.673 26.8457C157.669 26.8457 158.58 27.1079 159.41 27.6368C160.237 28.1476 160.898 28.8799 161.389 29.8247C161.88 30.7559 162.126 31.8182 162.126 33.0115C162.126 34.2049 161.88 35.2537 161.389 36.1984C160.898 37.1296 160.241 37.8574 159.41 38.3863C158.584 38.8971 157.669 39.1548 156.673 39.1548C155.936 39.1548 155.301 39.0372 154.761 38.8067C154.225 38.5581 153.787 38.2778 153.452 37.9704C153.113 37.645 152.885 37.3828 152.76 37.1794H152.693V43.3H150.188ZM156.146 36.8991C156.789 36.8991 157.365 36.7454 157.87 36.4335C158.392 36.108 158.799 35.6515 159.089 35.0593C159.397 34.4716 159.549 33.7845 159.549 33.0115C159.549 32.2386 159.397 31.5288 159.089 30.9412C158.799 30.3535 158.392 29.9015 157.87 29.5896C157.365 29.2641 156.789 29.1014 156.146 29.1014C155.502 29.1014 154.913 29.2641 154.372 29.5896C153.85 29.9015 153.439 30.349 153.131 30.9412C152.84 31.5288 152.693 32.2205 152.693 33.0115C152.693 33.8026 152.84 34.4716 153.131 35.0593C153.439 35.6469 153.85 36.108 154.372 36.4335C154.908 36.7454 155.498 36.8991 156.146 36.8991Z" fill="#1A1230"/>
<path d="M135.511 41.4372V36.6185H136.775L139.303 27.1211H144.823L147.351 36.6185H148.615V41.4372H146.199V38.8787H137.918V41.4372H135.502H135.511ZM139.307 36.6185H144.828L142.871 29.3768H141.263L139.307 36.6185Z" fill="#1A1230"/>
<path d="M127.476 39.1587C126.48 39.1587 125.56 38.901 124.716 38.3902C123.889 37.8613 123.228 37.1335 122.737 36.2023C122.246 35.2576 122 34.1907 122 33.0154C122 31.8401 122.246 30.7552 122.737 29.8286C123.228 28.8838 123.885 28.1515 124.716 27.6407C125.56 27.1118 126.48 26.8496 127.476 26.8496C128.195 26.8496 128.825 26.9717 129.36 27.2203C129.914 27.4553 130.356 27.7311 130.696 28.0566C131.035 28.382 131.254 28.6397 131.361 28.825H131.428V27.1254H133.961V38.8829H131.428V37.1833H131.361C131.254 37.3867 131.031 37.6489 130.696 37.9743C130.361 38.2862 129.914 38.562 129.36 38.8106C128.825 39.0411 128.195 39.1587 127.476 39.1587ZM127.98 36.8985C128.624 36.8985 129.209 36.7448 129.731 36.4329C130.267 36.1074 130.683 35.6508 130.973 35.0587C131.281 34.471 131.433 33.7839 131.433 33.0109C131.433 32.2379 131.281 31.5282 130.973 30.9406C130.683 30.3529 130.267 29.9009 129.731 29.589C129.209 29.2635 128.628 29.1008 127.98 29.1008C127.333 29.1008 126.779 29.2635 126.256 29.589C125.734 29.9009 125.323 30.3484 125.015 30.9406C124.724 31.5282 124.577 32.2199 124.577 33.0109C124.577 33.802 124.724 34.471 125.015 35.0587C125.323 35.6463 125.734 36.1074 126.256 36.4329C126.779 36.7448 127.351 36.8985 127.98 36.8985Z" fill="#1A1230"/>
<path d="M110.68 38.8787V27.1211H113.185V31.6596H115.025L118.429 27.1211H121.305L117.281 32.5908L121.653 38.8742H118.661L115.213 33.9153H113.19V38.8742H110.684L110.68 38.8787Z" fill="#1A1230"/>
<path d="M236.41 16.6977C235.275 16.6977 234.248 16.4356 233.328 15.9067C232.408 15.3642 231.68 14.6274 231.144 13.6962C230.608 12.7514 230.34 11.7027 230.34 10.5545C230.34 9.40632 230.608 8.35759 231.144 7.41282C231.68 6.46806 232.408 5.73123 233.328 5.20235C234.248 4.6599 235.275 4.38867 236.41 4.38867C237.544 4.38867 238.594 4.6599 239.514 5.20235C240.434 5.73123 241.153 6.46806 241.675 7.41282C242.198 8.34403 242.457 9.37016 242.457 10.4867V11.1828H232.912C232.988 11.7886 233.189 12.3401 233.511 12.8373C233.85 13.3346 234.27 13.7278 234.775 14.0262C235.28 14.3064 235.824 14.4466 236.41 14.4466C237.205 14.4466 237.883 14.2838 238.433 13.9584C238.987 13.6148 239.393 13.1989 239.652 12.7017H242.274C241.89 13.8182 241.202 14.7675 240.206 15.5405C239.223 16.318 237.959 16.7023 236.41 16.7023V16.6977ZM239.768 9.38824C239.692 8.891 239.5 8.43444 239.192 8.01404C238.902 7.59364 238.509 7.25913 238.017 7.01503C237.544 6.76641 237.004 6.64436 236.41 6.64436C235.816 6.64436 235.289 6.76641 234.802 7.01503C234.328 7.26365 233.935 7.59816 233.627 8.01404C233.319 8.43444 233.105 8.891 232.984 9.38824H239.768Z" fill="#1A1230"/>
<path d="M217.35 16.4177V4.66016H219.855V11.599L219.788 12.7607H219.927L225.402 4.66016H228.14V16.4177H225.635V9.47891L225.706 8.31717H225.568L220.092 16.4177H217.354H217.35Z" fill="#1A1230"/>
<path d="M203.711 16.4177V4.66016H206.217V9.27097H211.92V4.66016H214.452V16.4177H211.92V11.5312H206.217V16.4177H203.711Z" fill="#1A1230"/>
<path d="M195.415 16.6977C194.281 16.6977 193.254 16.4356 192.334 15.9067C191.414 15.3642 190.686 14.6274 190.15 13.6962C189.614 12.7514 189.346 11.7027 189.346 10.5545C189.346 9.40632 189.614 8.35759 190.15 7.41282C190.686 6.46806 191.414 5.73123 192.334 5.20235C193.254 4.6599 194.281 4.38867 195.415 4.38867C196.55 4.38867 197.599 4.6599 198.52 5.20235C199.44 5.73123 200.159 6.46806 200.681 7.41282C201.204 8.34403 201.463 9.37016 201.463 10.4867V11.1828H191.918C191.994 11.7886 192.195 12.3401 192.517 12.8373C192.856 13.3346 193.276 13.7278 193.781 14.0262C194.285 14.3064 194.83 14.4466 195.415 14.4466C196.21 14.4466 196.889 14.2838 197.439 13.9584C197.992 13.6148 198.399 13.1989 198.658 12.7017H201.28C200.896 13.8182 200.208 14.7675 199.212 15.5405C198.229 16.318 196.965 16.7023 195.415 16.7023V16.6977ZM198.774 9.38824C198.698 8.891 198.506 8.43444 198.198 8.01404C197.908 7.59364 197.515 7.25913 197.023 7.01503C196.55 6.76641 196.009 6.64436 195.415 6.64436C194.821 6.64436 194.294 6.76641 193.808 7.01503C193.334 7.26365 192.941 7.59816 192.633 8.01404C192.325 8.43444 192.11 8.891 191.99 9.38824H198.774Z" fill="#1A1230"/>
<path d="M176.615 16.4177L179.791 4.66016H185.289L188.464 16.4177H185.887L183.359 6.92036H181.725L179.197 16.4177H176.62H176.615Z" fill="#1A1230"/>
<path d="M165.529 16.4177V4.66016H171.554C172.305 4.66016 172.957 4.79125 173.511 5.05795C174.064 5.30657 174.475 5.65465 174.752 6.10669C175.029 6.54065 175.168 7.02885 175.168 7.5713C175.168 8.4573 174.953 9.08564 174.524 9.45631C174.096 9.81342 173.703 10.0394 173.35 10.1298H173.327V10.1977H173.35C173.564 10.2293 173.85 10.3197 174.203 10.4779C174.556 10.6316 174.891 10.93 175.217 11.3639C175.538 11.7843 175.699 12.3403 175.699 13.041C175.699 14.049 175.333 14.8627 174.596 15.4865C173.877 16.1058 172.863 16.4177 171.559 16.4177H165.534H165.529ZM171.438 14.3248C171.974 14.3248 172.398 14.1847 172.702 13.9044C173.01 13.6241 173.162 13.2625 173.162 12.8105C173.162 12.3584 173.01 11.9968 172.702 11.7165C172.394 11.4362 171.974 11.2961 171.438 11.2961H168.035V14.3203H171.438V14.3248ZM171.255 9.3207C171.715 9.3207 172.068 9.20317 172.314 8.97263C172.577 8.73756 172.707 8.43018 172.707 8.04142C172.707 7.65267 172.577 7.34528 172.314 7.11022C172.068 6.87968 171.715 6.76215 171.255 6.76215H168.035V9.3207H171.255Z" fill="#1A1230"/>
<path d="M156.163 16.6977C155.167 16.6977 154.247 16.4401 153.403 15.9293C152.577 15.4004 151.916 14.6726 151.424 13.7414C150.933 12.7966 150.688 11.7298 150.688 10.5545C150.688 9.3792 150.933 8.2943 151.424 7.36762C151.916 6.42286 152.572 5.69055 153.403 5.17974C154.247 4.65086 155.167 4.38867 156.163 4.38867C156.882 4.38867 157.512 4.51072 158.048 4.75935C158.602 4.98989 159.044 5.27015 159.383 5.59562C159.718 5.92109 159.942 6.17875 160.049 6.36409H160.12V4.66442H162.648V16.422H160.12V14.7223H160.049C159.942 14.9257 159.718 15.1879 159.383 15.5134C159.044 15.8253 158.602 16.101 158.048 16.3497C157.512 16.5802 156.882 16.6977 156.163 16.6977ZM156.668 14.4375C157.311 14.4375 157.896 14.2838 158.414 13.9719C158.95 13.6465 159.366 13.1899 159.656 12.5977C159.964 12.0101 160.116 11.323 160.116 10.55C160.116 9.777 159.964 9.06729 159.656 8.47964C159.366 7.89199 158.95 7.43995 158.414 7.12804C157.892 6.80257 157.311 6.63983 156.668 6.63983C156.025 6.63983 155.462 6.80257 154.944 7.12804C154.421 7.43995 154.01 7.88747 153.702 8.47964C153.412 9.06729 153.265 9.75892 153.265 10.55C153.265 11.3411 153.412 12.0101 153.702 12.5977C154.01 13.1854 154.421 13.6465 154.944 13.9719C155.466 14.2838 156.038 14.4375 156.668 14.4375Z" fill="#1A1230"/>
<path d="M137.137 20.8371V4.65856H139.642V6.35823H139.709C139.83 6.15481 140.062 5.90167 140.402 5.58976C140.741 5.26429 141.174 4.98403 141.71 4.75349C142.246 4.50486 142.885 4.38281 143.622 4.38281C144.618 4.38281 145.529 4.645 146.36 5.17388C147.186 5.68469 147.847 6.417 148.338 7.36176C148.83 8.29297 149.075 9.35526 149.075 10.5486C149.075 11.742 148.83 12.7908 148.338 13.7355C147.847 14.6667 147.19 15.3945 146.36 15.9234C145.533 16.4342 144.618 16.6919 143.622 16.6919C142.885 16.6919 142.251 16.5744 141.71 16.3438C141.174 16.0952 140.737 15.8149 140.402 15.5075C140.062 15.1821 139.834 14.9199 139.709 14.7165H139.642V20.8371H137.137ZM143.095 14.4362C143.738 14.4362 144.314 14.2825 144.819 13.9706C145.341 13.6451 145.748 13.1886 146.038 12.5964C146.346 12.0087 146.498 11.3216 146.498 10.5486C146.498 9.77566 146.346 9.06595 146.038 8.4783C145.748 7.89065 145.341 7.43861 144.819 7.1267C144.314 6.80123 143.738 6.6385 143.095 6.6385C142.452 6.6385 141.862 6.80123 141.322 7.1267C140.799 7.43861 140.388 7.88613 140.08 8.4783C139.79 9.06595 139.642 9.75758 139.642 10.5486C139.642 11.3397 139.79 12.0087 140.08 12.5964C140.388 13.184 140.799 13.6451 141.322 13.9706C141.858 14.2825 142.447 14.4362 143.095 14.4362Z" fill="#1A1230"/>
<path d="M123.613 16.4177V4.66016H134.239V16.4177H131.711V6.92036H126.123V16.4177H123.618H123.613Z" fill="#1A1230"/>
<path d="M114.287 16.4172L116.703 10.4095H113.255L109.227 0.121094H112.148L115.091 7.80127H117.735L120.678 0.121094H123.532L117.163 16.4172H114.287Z" fill="#1A1230"/>
<path d="M68.2476 42.5528C66.4879 42.5528 62.8166 46.246 62.8166 46.246C62.8166 46.246 59.0157 42.5573 57.3632 42.5573L16.9029 42.4805L16.8672 56.0507C16.8672 59.7529 18.81 61.1091 21.1057 61.1091L45.8982 61.1588C47.8678 61.195 49.9759 62.7816 51.3426 64.0699C52.4458 63.08 54.6477 61.1498 56.7156 61.1498L81.8386 61.1226C83.4196 61.1226 85.9163 60.2638 85.9163 57.2758V42.5257L68.2476 42.5573V42.5528Z" fill="#1A1230"/>
<path d="M38.1314 21.706C39.4177 20.5307 41.423 18.7542 43.5847 18.7542L73.9422 18.7452C75.5814 18.7226 78.0244 16.9732 78.0244 14.6271V0.121094H-0.00195312V14.9028C-0.00195312 17.5066 1.52106 18.6954 4.09365 18.6954L32.5932 18.7542C34.8174 18.7542 36.8585 20.5262 38.1314 21.706Z" fill="#1A1230"/>
<path d="M38.1306 25.0368C38.1306 25.0368 34.4013 21.3436 32.5924 21.3436H26.9336V35.4609C26.9336 37.9426 28.604 39.909 30.7255 39.909L56.1432 39.9677C59.4483 39.9768 61.4403 41.6448 62.8114 42.915C63.9771 41.8889 65.8128 40.1079 68.1442 39.9677L94.7321 39.9587C96.733 39.9587 98.6938 38.1415 98.6938 36.0033V21.3301L43.5751 21.3482C41.6903 21.3482 38.1217 25.0413 38.1217 25.0413L38.1306 25.0368Z" fill="#1A1230"/>
</svg>
