<svg width="36" height="36" viewBox="0 0 36 36" fill="none" xmlns="http://www.w3.org/2000/svg">
<path d="M16.1677 24.8119V13.1154H19.6015V24.8119H16.1677ZM17.9204 11.8277C17.3719 11.8277 16.9189 11.6965 16.5612 11.4342C16.2035 11.1719 16.0246 10.7546 16.0246 10.1823C16.0246 9.53846 16.2035 9.10923 16.5612 8.89461C16.9189 8.65615 17.3719 8.53692 17.9204 8.53692C18.3973 8.53692 18.8146 8.65615 19.1723 8.89461C19.5539 9.10923 19.7446 9.53846 19.7446 10.1823C19.7446 10.7785 19.5539 11.2077 19.1723 11.47C18.8146 11.7085 18.3973 11.8277 17.9204 11.8277ZM17.8846 33.7185C15.7385 33.7185 13.7235 33.3131 11.8396 32.5023C9.97962 31.7154 8.33423 30.6185 6.90346 29.2115C5.49654 27.7808 4.38769 26.1354 3.57692 24.2754C2.79 22.3915 2.39654 20.3765 2.39654 18.2304C2.39654 16.0842 2.79 14.0811 3.57692 12.2211C4.38769 10.3373 5.49654 8.69192 6.90346 7.28499C8.33423 5.85422 9.97962 4.74538 11.8396 3.95845C13.7235 3.14769 15.7385 2.7423 17.8846 2.7423C20.0308 2.7423 22.0339 3.14769 23.8939 3.95845C25.7777 4.74538 27.4231 5.85422 28.83 7.28499C30.2608 8.69192 31.3696 10.3373 32.1565 12.2211C32.9673 14.0811 33.3727 16.0842 33.3727 18.2304C33.3727 20.3765 32.9673 22.3915 32.1565 24.2754C31.3696 26.1354 30.2608 27.7808 28.83 29.2115C27.4231 30.6185 25.7777 31.7154 23.8939 32.5023C22.0339 33.3131 20.0308 33.7185 17.8846 33.7185ZM17.8846 30.535C19.6015 30.535 21.1992 30.225 22.6777 29.605C24.1562 28.9612 25.4558 28.0788 26.5765 26.9581C27.7212 25.8135 28.6035 24.5019 29.2235 23.0235C29.8673 21.5212 30.1892 19.9235 30.1892 18.2304C30.1892 16.5135 29.8673 14.9158 29.2235 13.4373C28.6035 11.9588 27.7212 10.6592 26.5765 9.53846C25.4558 8.39384 24.1442 7.51153 22.6419 6.89153C21.1635 6.24769 19.5777 5.92576 17.8846 5.92576C16.1677 5.92576 14.57 6.24769 13.0915 6.89153C11.6131 7.51153 10.3015 8.39384 9.15693 9.53846C8.03616 10.6592 7.15385 11.9708 6.51 13.4731C5.89 14.9515 5.58 16.5373 5.58 18.2304C5.58 19.9473 5.89 21.545 6.51 23.0235C7.15385 24.5019 8.03616 25.8135 9.15693 26.9581C10.3015 28.0788 11.6131 28.9612 13.0915 29.605C14.5938 30.225 16.1915 30.535 17.8846 30.535Z" fill="url(#paint0_linear_4030_14554)"/>
<defs>
<linearGradient id="paint0_linear_4030_14554" x1="0" y1="-5" x2="42.2119" y2="-3.76047" gradientUnits="userSpaceOnUse">
<stop stop-color="#5400B7"/>
<stop offset="1" stop-color="#0098E3"/>
</linearGradient>
</defs>
</svg>
