<svg width="134" height="29" viewBox="0 0 134 29" fill="none" xmlns="http://www.w3.org/2000/svg">
<g clip-path="url(#clip0_4001_3405)">
<path d="M47.4366 14.2125L48.8984 13.0822V9.54059L46.7446 7.3855H36.0771V21.7553H47.257C48.4463 21.7553 49.4083 20.7907 49.4108 19.6002V15.8275L47.4366 14.2099V14.2125ZM39.6664 10.1585H45.3593V13.1864H39.6664V10.1585ZM45.77 18.9848H39.6664V15.7509H45.77V18.9848Z" fill="#1A1230"/>
<path d="M57.6489 21.7565V7.38672H61.2922V12.7506H64.6768L67.7537 7.38672H71.8818L67.7801 14.0065L72.0626 21.7565H67.9609L64.9343 15.8287H61.2935V21.7565H57.6502H57.6489Z" fill="#1A1230"/>
<path d="M83.4473 7.38672H75.6282V10.4661H82.6272V13.2893L73.291 13.3509V18.9358L76.1117 21.759H86.2667V10.2112L83.446 7.38797L83.4473 7.38672ZM82.6272 18.7788H76.9343V15.8011L82.6272 15.7509V18.7788Z" fill="#1A1230"/>
<path d="M91.6281 7.38672L88.7559 10.1082V16.9854L91.4761 19.7069H98.2716V22.2726H89.6036V25.3521H101.912V7.38672H91.6281ZM98.2691 16.7254H92.3966V10.4661H98.2691V16.7254Z" fill="#1A1230"/>
<path d="M115.321 7.38675H104.579V25.3483H108.22V21.7565H115.493C116.875 21.744 117.989 20.6187 117.989 19.236V10.3129L115.321 7.38801V7.3855V7.38675ZM114.349 18.6771H108.22V10.4649H114.349V18.6771Z" fill="#1A1230"/>
<path d="M133.119 15.4432V7.38672H123.014L120.294 10.2602V19.0362L120.466 21.7577H130.086C131.476 21.7577 132.603 20.6312 132.603 19.2397V18.6783H123.935V15.4444H133.118L133.119 15.4432ZM123.938 10.2602H129.938V13.1851H123.938V10.2602Z" fill="#1A1230"/>
<path fill-rule="evenodd" clip-rule="evenodd" d="M10.5475 0.164062C8.76167 0.164062 7.30988 1.61335 7.30988 3.40297V4.12133C7.30988 5.90845 5.86185 7.36024 4.07223 7.36024H3.35386C1.56801 7.36024 0.116211 8.80953 0.116211 10.5992V21.7526H4.07097C5.85683 21.7526 7.30862 20.3033 7.30862 18.5137V7.36024H18.4558C20.2417 7.36024 21.6922 5.91096 21.6922 4.12133V0.164062H10.545H10.5475Z" fill="#0098E3"/>
<path fill-rule="evenodd" clip-rule="evenodd" d="M24.9325 7.36035C23.1466 7.36035 21.6961 8.80963 21.6961 10.5993V18.5138C21.6961 20.3009 20.248 21.7527 18.4597 21.7527H10.5502C8.76429 21.7527 7.3125 23.202 7.3125 24.9916V28.9489H18.4597C20.2455 28.9489 21.6961 27.4996 21.6961 25.71V21.7527H25.6508C27.4367 21.7527 28.8872 20.3034 28.8872 18.5138V7.36035H24.9325Z" fill="#5400B7"/>
</g>
<defs>
<clipPath id="clip0_4001_3405">
<rect width="133" height="28.786" fill="white" transform="translate(0.118652 0.164062)"/>
</clipPath>
</defs>
</svg>
