<svg width="147" height="32" viewBox="0 0 147 32" fill="none" xmlns="http://www.w3.org/2000/svg">
<g clip-path="url(#clip0_1792_6051)">
<path d="M52.2993 15.6175L53.915 14.361V10.424L51.5345 8.02832H39.7441V24.0025H52.1008C53.4153 24.0025 54.4786 22.9303 54.4813 21.6068V17.4129L52.2993 15.6147V15.6175ZM43.7113 11.1109H50.0034V14.4769H43.7113V11.1109ZM50.4573 20.9227H43.7113V17.3277H50.4573V20.9227Z" fill="white"/>
<path d="M63.5859 24.0044V8.03027H67.6127V13.993H71.3536L74.7544 8.03027H79.317L74.7835 15.3891L79.5169 24.0044H74.9834L71.6382 17.4149H67.6141V24.0044H63.5873H63.5859Z" fill="white"/>
<path d="M92.1004 8.03027H83.4582V11.4535H91.194V14.5919L80.875 14.6604V20.8688L83.9926 24.0072H95.2166V11.1701L92.099 8.03167L92.1004 8.03027ZM91.194 20.6943H84.9018V17.3841L91.194 17.3283V20.6943Z" fill="white"/>
<path d="M101.141 8.03027L97.9668 11.0556V18.7007L100.973 21.726H108.484V24.5782H98.9037V28.0015H112.508V8.03027H101.141ZM108.481 18.4117H101.991V11.4535H108.481V18.4117Z" fill="white"/>
<path d="M127.327 8.02972H115.455V27.9967H119.479V24.0039H127.517C129.046 23.9899 130.277 22.739 130.277 21.2019V11.2826L127.327 8.03111V8.02832V8.02972ZM126.253 20.5807H119.479V11.4516H126.253V20.5807Z" fill="white"/>
<path d="M146.999 16.9863V8.03027H135.831L132.824 11.2245V20.9805L133.014 24.0058H143.647C145.184 24.0058 146.429 22.7535 146.429 21.2067V20.5826H136.848V16.9876H146.998L146.999 16.9863ZM136.852 11.2245H143.483V14.4761H136.852V11.2245Z" fill="white"/>
<path fill-rule="evenodd" clip-rule="evenodd" d="M11.5274 0C9.55356 0 7.94894 1.6111 7.94894 3.60054V4.39911C7.94894 6.38576 6.34849 7.99965 4.37049 7.99965H3.57651C1.60266 7.99965 -0.00195312 9.61075 -0.00195312 11.6002V23.999H4.3691C6.34294 23.999 7.94756 22.3879 7.94756 20.3984V7.99965H20.2681C22.242 7.99965 23.8452 6.38855 23.8452 4.39911V0H11.5246H11.5274Z" fill="white"/>
<path fill-rule="evenodd" clip-rule="evenodd" d="M27.4259 8C25.452 8 23.8488 9.6111 23.8488 11.6005V20.3988C23.8488 22.3854 22.2484 23.9993 20.2717 23.9993H11.5296C9.55579 23.9993 7.95117 25.6104 7.95117 27.5998V31.999H20.2717C22.2456 31.999 23.8488 30.3879 23.8488 28.3984V23.9993H28.2199C30.1937 23.9993 31.7969 22.3882 31.7969 20.3988V8H27.4259Z" fill="white"/>
</g>
<defs>
<clipPath id="clip0_1792_6051">
<rect width="147" height="32" fill="white"/>
</clipPath>
</defs>
</svg>
