<svg width="98" height="98" viewBox="0 0 98 98" fill="none" xmlns="http://www.w3.org/2000/svg">
<path fill-rule="evenodd" clip-rule="evenodd" d="M35.5324 0C29.4492 0 24.5039 4.93419 24.5039 11.0271V13.4728C24.5039 19.5572 19.5715 24.4999 13.4755 24.4999H11.0285C4.94528 24.4999 0 29.4341 0 35.527V73.4997H13.4712C19.5544 73.4997 24.4997 68.5655 24.4997 62.4726V24.4999H62.4705C68.5537 24.4999 73.4947 19.5657 73.4947 13.4728V0H35.5239H35.5324Z" fill="#0098E3" fill-opacity="0.19"/>
<path fill-rule="evenodd" clip-rule="evenodd" d="M84.5288 24.5C78.4456 24.5 73.5046 29.4342 73.5046 35.5271V62.4727C73.5046 68.5571 68.5721 73.4998 62.4804 73.4998H35.538C29.4548 73.4998 24.5095 78.434 24.5095 84.5269V97.9997H62.4804C68.5636 97.9997 73.5046 93.0655 73.5046 86.9726V73.4998H86.9758C93.059 73.4998 98 68.5656 98 62.4727V24.5H84.5288Z" fill="#0098E3" fill-opacity="0.19"/>
</svg>
