<svg width="1442" height="503" viewBox="0 0 1442 503" fill="none" xmlns="http://www.w3.org/2000/svg">
<rect width="1442" height="503" fill="url(#paint0_linear_4061_8328)"/>
<g clip-path="url(#clip0_4061_8328)">
<path d="M1419.42 469.788C1419.42 467.418 1417.5 465.497 1415.13 465.497H1395.81V474.08C1395.81 476.45 1397.74 478.371 1400.11 478.371H1419.42V469.788Z" fill="white"/>
<path d="M1370.07 469.788C1370.07 467.418 1368.15 465.497 1365.78 465.497H1346.46V474.08C1346.46 476.45 1348.39 478.371 1350.76 478.371H1370.07V469.788Z" fill="white"/>
<path d="M1320.72 469.788C1320.72 467.418 1318.79 465.497 1316.42 465.497H1297.11V474.08C1297.11 476.45 1299.03 478.371 1301.4 478.371H1320.72V469.788Z" fill="white"/>
<path d="M1271.37 469.788C1271.37 467.418 1269.44 465.497 1267.07 465.497H1247.76V474.08C1247.76 476.45 1249.69 478.371 1252.06 478.371H1271.37V469.788Z" fill="white"/>
<path d="M1222.02 469.788C1222.02 467.418 1220.09 465.497 1217.72 465.497H1198.41V474.08C1198.41 476.45 1200.33 478.371 1202.7 478.371H1222.02V469.788Z" fill="white"/>
<path d="M1172.67 469.788C1172.67 467.418 1170.74 465.497 1168.37 465.497H1149.06V474.08C1149.06 476.45 1150.98 478.371 1153.35 478.371H1172.67V469.788Z" fill="white"/>
<path d="M1123.31 469.788C1123.31 467.418 1121.39 465.497 1119.02 465.497H1099.71V474.08C1099.71 476.45 1101.63 478.371 1104 478.371H1123.31V469.788Z" fill="white"/>
<path d="M1073.96 469.788C1073.96 467.418 1072.04 465.497 1069.67 465.497H1050.36V474.08C1050.36 476.45 1052.28 478.371 1054.65 478.371H1073.96V469.788Z" fill="white"/>
<path d="M1024.61 469.788C1024.61 467.418 1022.69 465.497 1020.32 465.497H1001.01V474.08C1001.01 476.45 1002.93 478.371 1005.3 478.371H1024.61V469.788Z" fill="white"/>
<path d="M975.263 469.788C975.263 467.418 973.341 465.497 970.971 465.497H951.66V474.08C951.66 476.45 953.582 478.371 955.952 478.371H975.263V469.788Z" fill="white"/>
<path d="M925.912 469.788C925.912 467.418 923.991 465.497 921.621 465.497H902.31V474.08C902.31 476.45 904.231 478.371 906.601 478.371H925.912V469.788Z" fill="white"/>
<path d="M876.562 469.788C876.562 467.418 874.64 465.497 872.27 465.497H852.959V474.08C852.959 476.45 854.88 478.371 857.25 478.371H876.562V469.788Z" fill="white"/>
<path d="M827.211 469.788C827.211 467.418 825.29 465.497 822.92 465.497H803.609V474.08C803.609 476.45 805.53 478.371 807.9 478.371H827.211V469.788Z" fill="white"/>
<path d="M777.86 469.788C777.86 467.418 775.939 465.497 773.569 465.497H754.258V474.08C754.258 476.45 756.179 478.371 758.549 478.371H777.86V469.788Z" fill="white"/>
<path d="M728.51 469.788C728.51 467.418 726.588 465.497 724.218 465.497H704.907V474.08C704.907 476.45 706.829 478.371 709.199 478.371H728.51V469.788Z" fill="white"/>
<path d="M679.159 469.788C679.159 467.418 677.238 465.497 674.868 465.497H655.557V474.08C655.557 476.45 657.478 478.371 659.848 478.371H679.159V469.788Z" fill="white"/>
<path d="M629.809 469.788C629.809 467.418 627.887 465.497 625.517 465.497H606.206V474.08C606.206 476.45 608.127 478.371 610.498 478.371H629.809V469.788Z" fill="white"/>
<path d="M580.458 469.788C580.458 467.418 578.537 465.497 576.167 465.497H556.856V474.08C556.856 476.45 558.777 478.371 561.147 478.371H580.458V469.788Z" fill="white"/>
<path d="M531.108 469.788C531.108 467.418 529.187 465.497 526.817 465.497H507.506V474.08C507.506 476.45 509.427 478.371 511.797 478.371H531.108V469.788Z" fill="white"/>
<path d="M481.757 469.788C481.757 467.418 479.836 465.497 477.465 465.497H458.154V474.08C458.154 476.45 460.076 478.371 462.446 478.371H481.757V469.788Z" fill="white"/>
<path d="M432.406 469.788C432.406 467.418 430.485 465.497 428.115 465.497H408.804V474.08C408.804 476.45 410.725 478.371 413.095 478.371H432.406V469.788Z" fill="white"/>
<path d="M383.056 469.788C383.056 467.418 381.134 465.497 378.764 465.497H359.453V474.08C359.453 476.45 361.375 478.371 363.745 478.371H383.056V469.788Z" fill="white"/>
<path d="M333.706 469.788C333.706 467.418 331.785 465.497 329.415 465.497H310.104V474.08C310.104 476.45 312.025 478.371 314.395 478.371H333.706V469.788Z" fill="white"/>
<path d="M284.354 469.788C284.354 467.418 282.433 465.497 280.063 465.497H260.752V474.08C260.752 476.45 262.673 478.371 265.043 478.371H284.354V469.788Z" fill="white"/>
<path d="M235.004 469.788C235.004 467.418 233.083 465.497 230.713 465.497H211.401V474.08C211.401 476.45 213.323 478.371 215.693 478.371H235.004V469.788Z" fill="white"/>
<path d="M185.653 469.788C185.653 467.418 183.732 465.497 181.362 465.497H162.051V474.08C162.051 476.45 163.972 478.371 166.342 478.371H185.653V469.788Z" fill="white"/>
<path d="M136.303 469.788C136.303 467.418 134.381 465.497 132.011 465.497H112.7V474.08C112.7 476.45 114.622 478.371 116.992 478.371H136.303V469.788Z" fill="white"/>
<path d="M86.9521 469.788C86.9521 467.418 85.0308 465.497 82.6608 465.497H63.3497V474.08C63.3497 476.45 65.271 478.371 67.6411 478.371H86.9521V469.788Z" fill="white"/>
<path d="M37.6016 469.788C37.6016 467.418 35.6803 465.497 33.3102 465.497H13.9991V474.08C13.9991 476.45 15.9204 478.371 18.2905 478.371H37.6016V469.788Z" fill="white"/>
</g>
<g clip-path="url(#clip1_4061_8328)">
<path d="M1419.42 28.2259C1419.42 25.8559 1417.5 23.9346 1415.13 23.9346H1395.81V32.5173C1395.81 34.8873 1397.74 36.8086 1400.11 36.8086H1419.42V28.2259Z" fill="white"/>
<path d="M1370.07 28.2259C1370.07 25.8559 1368.15 23.9346 1365.78 23.9346H1346.46V32.5173C1346.46 34.8873 1348.39 36.8086 1350.76 36.8086H1370.07V28.2259Z" fill="white"/>
<path d="M1320.72 28.2259C1320.72 25.8559 1318.79 23.9346 1316.42 23.9346H1297.11V32.5173C1297.11 34.8873 1299.03 36.8086 1301.4 36.8086H1320.72V28.2259Z" fill="white"/>
<path d="M1271.37 28.2259C1271.37 25.8559 1269.44 23.9346 1267.07 23.9346H1247.76V32.5173C1247.76 34.8873 1249.69 36.8086 1252.06 36.8086H1271.37V28.2259Z" fill="white"/>
<path d="M1222.02 28.2259C1222.02 25.8559 1220.09 23.9346 1217.72 23.9346H1198.41V32.5173C1198.41 34.8873 1200.33 36.8086 1202.7 36.8086H1222.02V28.2259Z" fill="white"/>
<path d="M1172.67 28.2259C1172.67 25.8559 1170.74 23.9346 1168.37 23.9346H1149.06V32.5173C1149.06 34.8873 1150.98 36.8086 1153.35 36.8086H1172.67V28.2259Z" fill="white"/>
<path d="M1123.31 28.2259C1123.31 25.8559 1121.39 23.9346 1119.02 23.9346H1099.71V32.5173C1099.71 34.8873 1101.63 36.8086 1104 36.8086H1123.31V28.2259Z" fill="white"/>
<path d="M1073.96 28.2259C1073.96 25.8559 1072.04 23.9346 1069.67 23.9346H1050.36V32.5173C1050.36 34.8873 1052.28 36.8086 1054.65 36.8086H1073.96V28.2259Z" fill="white"/>
<path d="M1024.61 28.2259C1024.61 25.8559 1022.69 23.9346 1020.32 23.9346H1001.01V32.5173C1001.01 34.8873 1002.93 36.8086 1005.3 36.8086H1024.61V28.2259Z" fill="white"/>
<path d="M975.263 28.2259C975.263 25.8559 973.341 23.9346 970.971 23.9346H951.66V32.5173C951.66 34.8873 953.582 36.8086 955.952 36.8086H975.263V28.2259Z" fill="white"/>
<path d="M925.912 28.2259C925.912 25.8559 923.991 23.9346 921.621 23.9346H902.31V32.5173C902.31 34.8873 904.231 36.8086 906.601 36.8086H925.912V28.2259Z" fill="white"/>
<path d="M876.562 28.2259C876.562 25.8559 874.64 23.9346 872.27 23.9346H852.959V32.5173C852.959 34.8873 854.88 36.8086 857.25 36.8086H876.562V28.2259Z" fill="white"/>
<path d="M827.211 28.2259C827.211 25.8559 825.29 23.9346 822.92 23.9346H803.609V32.5173C803.609 34.8873 805.53 36.8086 807.9 36.8086H827.211V28.2259Z" fill="white"/>
<path d="M777.86 28.2259C777.86 25.8559 775.939 23.9346 773.569 23.9346H754.258V32.5173C754.258 34.8873 756.179 36.8086 758.549 36.8086H777.86V28.2259Z" fill="white"/>
<path d="M728.51 28.2259C728.51 25.8559 726.588 23.9346 724.218 23.9346H704.907V32.5173C704.907 34.8873 706.829 36.8086 709.199 36.8086H728.51V28.2259Z" fill="white"/>
<path d="M679.159 28.2259C679.159 25.8559 677.238 23.9346 674.868 23.9346H655.557V32.5173C655.557 34.8873 657.478 36.8086 659.848 36.8086H679.159V28.2259Z" fill="white"/>
<path d="M629.809 28.2259C629.809 25.8559 627.887 23.9346 625.517 23.9346H606.206V32.5173C606.206 34.8873 608.127 36.8086 610.498 36.8086H629.809V28.2259Z" fill="white"/>
<path d="M580.458 28.2259C580.458 25.8559 578.537 23.9346 576.167 23.9346H556.856V32.5173C556.856 34.8873 558.777 36.8086 561.147 36.8086H580.458V28.2259Z" fill="white"/>
<path d="M531.108 28.2259C531.108 25.8559 529.187 23.9346 526.817 23.9346H507.506V32.5173C507.506 34.8873 509.427 36.8086 511.797 36.8086H531.108V28.2259Z" fill="white"/>
<path d="M481.757 28.2259C481.757 25.8559 479.836 23.9346 477.465 23.9346H458.154V32.5173C458.154 34.8873 460.076 36.8086 462.446 36.8086H481.757V28.2259Z" fill="white"/>
<path d="M432.406 28.2259C432.406 25.8559 430.485 23.9346 428.115 23.9346H408.804V32.5173C408.804 34.8873 410.725 36.8086 413.095 36.8086H432.406V28.2259Z" fill="white"/>
<path d="M383.056 28.2259C383.056 25.8559 381.134 23.9346 378.764 23.9346H359.453V32.5173C359.453 34.8873 361.375 36.8086 363.745 36.8086H383.056V28.2259Z" fill="white"/>
<path d="M333.706 28.2259C333.706 25.8559 331.785 23.9346 329.415 23.9346H310.104V32.5173C310.104 34.8873 312.025 36.8086 314.395 36.8086H333.706V28.2259Z" fill="white"/>
<path d="M284.354 28.2259C284.354 25.8559 282.433 23.9346 280.063 23.9346H260.752V32.5173C260.752 34.8873 262.673 36.8086 265.043 36.8086H284.354V28.2259Z" fill="white"/>
<path d="M235.004 28.2259C235.004 25.8559 233.083 23.9346 230.713 23.9346H211.401V32.5173C211.401 34.8873 213.323 36.8086 215.693 36.8086H235.004V28.2259Z" fill="white"/>
<path d="M185.653 28.2259C185.653 25.8559 183.732 23.9346 181.362 23.9346H162.051V32.5173C162.051 34.8873 163.972 36.8086 166.342 36.8086H185.653V28.2259Z" fill="white"/>
<path d="M136.303 28.2259C136.303 25.8559 134.381 23.9346 132.011 23.9346H112.7V32.5173C112.7 34.8873 114.622 36.8086 116.992 36.8086H136.303V28.2259Z" fill="white"/>
<path d="M86.9521 28.2259C86.9521 25.8559 85.0308 23.9346 82.6608 23.9346H63.3497V32.5173C63.3497 34.8873 65.271 36.8086 67.6411 36.8086H86.9521V28.2259Z" fill="white"/>
<path d="M37.6016 28.2259C37.6016 25.8559 35.6803 23.9346 33.3102 23.9346H13.9991V32.5173C13.9991 34.8873 15.9204 36.8086 18.2905 36.8086H37.6016V28.2259Z" fill="white"/>
</g>
<defs>
<linearGradient id="paint0_linear_4061_8328" x1="937.3" y1="28.7284" x2="578.988" y2="870.737" gradientUnits="userSpaceOnUse">
<stop stop-color="#9459FF"/>
<stop offset="0.5" stop-color="#4A79F1"/>
<stop offset="1" stop-color="#0098E3"/>
</linearGradient>
<clipPath id="clip0_4061_8328">
<rect width="1414" height="12.8741" fill="white" transform="translate(14 465.562)"/>
</clipPath>
<clipPath id="clip1_4061_8328">
<rect width="1414" height="12.8741" fill="white" transform="translate(14 24)"/>
</clipPath>
</defs>
</svg>
