<svg width="2748" height="560" viewBox="0 0 2748 560" fill="none" xmlns="http://www.w3.org/2000/svg">
<g clip-path="url(#clip0_4061_6972)">
<rect width="2748" height="560" fill="url(#paint0_linear_4061_6972)"/>
<g filter="url(#filter0_f_4061_6972)">
<ellipse cx="2269.16" cy="201.954" rx="529.57" ry="256.647" transform="rotate(16.8101 2269.16 201.954)" fill="#0199E4"/>
</g>
<g filter="url(#filter1_f_4061_6972)">
<ellipse cx="1567.42" cy="471.913" rx="211.574" ry="221.156" transform="rotate(25.63 1567.42 471.913)" fill="#7F30FF"/>
</g>
<g clip-path="url(#clip1_4061_6972)">
<g clip-path="url(#clip2_4061_6972)">
<path d="M56 36.1221C56 31.7038 59.5817 28.1221 64 28.1221H100V44.1221C100 48.5403 96.4183 52.1221 92 52.1221H56V36.1221Z" fill="white"/>
<path d="M148 36.1221C148 31.7038 151.582 28.1221 156 28.1221H192V44.1221C192 48.5403 188.418 52.1221 184 52.1221H148V36.1221Z" fill="white"/>
<path d="M240 36.1221C240 31.7038 243.582 28.1221 248 28.1221H284V44.1221C284 48.5403 280.418 52.1221 276 52.1221H240V36.1221Z" fill="white"/>
<path d="M332 36.1221C332 31.7038 335.582 28.1221 340 28.1221H376V44.1221C376 48.5403 372.418 52.1221 368 52.1221H332V36.1221Z" fill="white"/>
<path d="M424 36.1221C424 31.7038 427.582 28.1221 432 28.1221H468V44.1221C468 48.5403 464.418 52.1221 460 52.1221H424V36.1221Z" fill="white"/>
<path d="M516 36.1221C516 31.7038 519.582 28.1221 524 28.1221H560V44.1221C560 48.5403 556.418 52.1221 552 52.1221H516V36.1221Z" fill="white"/>
<path d="M608 36.1221C608 31.7038 611.582 28.1221 616 28.1221H652V44.1221C652 48.5403 648.418 52.1221 644 52.1221H608V36.1221Z" fill="white"/>
<path d="M700 36.1221C700 31.7038 703.582 28.1221 708 28.1221H744V44.1221C744 48.5403 740.418 52.1221 736 52.1221H700V36.1221Z" fill="white"/>
<path d="M792 36.1221C792 31.7038 795.582 28.1221 800 28.1221H836V44.1221C836 48.5403 832.418 52.1221 828 52.1221H792V36.1221Z" fill="white"/>
<path d="M884 36.1221C884 31.7038 887.582 28.1221 892 28.1221H928V44.1221C928 48.5403 924.418 52.1221 920 52.1221H884V36.1221Z" fill="white"/>
<path d="M976 36.1221C976 31.7038 979.582 28.1221 984 28.1221H1020V44.1221C1020 48.5403 1016.42 52.1221 1012 52.1221H976V36.1221Z" fill="white"/>
<path d="M1068 36.1221C1068 31.7038 1071.58 28.1221 1076 28.1221H1112V44.1221C1112 48.5403 1108.42 52.1221 1104 52.1221H1068V36.1221Z" fill="white"/>
<path d="M1160 36.1221C1160 31.7038 1163.58 28.1221 1168 28.1221H1204V44.1221C1204 48.5403 1200.42 52.1221 1196 52.1221H1160V36.1221Z" fill="white"/>
<path d="M1252 36.1221C1252 31.7038 1255.58 28.1221 1260 28.1221H1296V44.1221C1296 48.5403 1292.42 52.1221 1288 52.1221H1252V36.1221Z" fill="white"/>
<path d="M1344 36.1221C1344 31.7038 1347.58 28.1221 1352 28.1221H1388V44.1221C1388 48.5403 1384.42 52.1221 1380 52.1221H1344V36.1221Z" fill="white"/>
<path d="M1436 36.1221C1436 31.7038 1439.58 28.1221 1444 28.1221H1480V44.1221C1480 48.5403 1476.42 52.1221 1472 52.1221H1436V36.1221Z" fill="white"/>
<path d="M1528 36.1221C1528 31.7038 1531.58 28.1221 1536 28.1221H1572V44.1221C1572 48.5403 1568.42 52.1221 1564 52.1221H1528V36.1221Z" fill="white"/>
<path d="M1620 36.1221C1620 31.7038 1623.58 28.1221 1628 28.1221H1664V44.1221C1664 48.5403 1660.42 52.1221 1656 52.1221H1620V36.1221Z" fill="white"/>
<path d="M1712 36.1221C1712 31.7038 1715.58 28.1221 1720 28.1221H1756V44.1221C1756 48.5403 1752.42 52.1221 1748 52.1221H1712V36.1221Z" fill="white"/>
<path d="M1804 36.1221C1804 31.7038 1807.58 28.1221 1812 28.1221H1848V44.1221C1848 48.5403 1844.42 52.1221 1840 52.1221H1804V36.1221Z" fill="white"/>
<path d="M1896 36.1221C1896 31.7038 1899.58 28.1221 1904 28.1221H1940V44.1221C1940 48.5403 1936.42 52.1221 1932 52.1221H1896V36.1221Z" fill="white"/>
<path d="M1988 36.1221C1988 31.7038 1991.58 28.1221 1996 28.1221H2032V44.1221C2032 48.5403 2028.42 52.1221 2024 52.1221H1988V36.1221Z" fill="white"/>
<path d="M2080 36.1221C2080 31.7038 2083.58 28.1221 2088 28.1221H2124V44.1221C2124 48.5403 2120.42 52.1221 2116 52.1221H2080V36.1221Z" fill="white"/>
<path d="M2172 36.1221C2172 31.7038 2175.58 28.1221 2180 28.1221H2216V44.1221C2216 48.5403 2212.42 52.1221 2208 52.1221H2172V36.1221Z" fill="white"/>
<path d="M2264 36.1221C2264 31.7038 2267.58 28.1221 2272 28.1221H2308V44.1221C2308 48.5403 2304.42 52.1221 2300 52.1221H2264V36.1221Z" fill="white"/>
<path d="M2356 36.1221C2356 31.7038 2359.58 28.1221 2364 28.1221H2400V44.1221C2400 48.5403 2396.42 52.1221 2392 52.1221H2356V36.1221Z" fill="white"/>
<path d="M2448 36.1221C2448 31.7038 2451.58 28.1221 2456 28.1221H2492V44.1221C2492 48.5403 2488.42 52.1221 2484 52.1221H2448V36.1221Z" fill="white"/>
<path d="M2540 36.1221C2540 31.7038 2543.58 28.1221 2548 28.1221H2584V44.1221C2584 48.5403 2580.42 52.1221 2576 52.1221H2540V36.1221Z" fill="white"/>
<path d="M2632 36.1221C2632 31.7038 2635.58 28.1221 2640 28.1221H2676V44.1221C2676 48.5403 2672.42 52.1221 2668 52.1221H2632V36.1221Z" fill="white"/>
</g>
</g>
<g clip-path="url(#clip3_4061_6972)">
<path d="M2676 516.122C2676 511.704 2672.42 508.122 2668 508.122H2632V524.122C2632 528.54 2635.58 532.122 2640 532.122H2676V516.122Z" fill="white"/>
<path d="M2584 516.122C2584 511.704 2580.42 508.122 2576 508.122H2540V524.122C2540 528.54 2543.58 532.122 2548 532.122H2584V516.122Z" fill="white"/>
<path d="M2492 516.122C2492 511.704 2488.42 508.122 2484 508.122H2448V524.122C2448 528.54 2451.58 532.122 2456 532.122H2492V516.122Z" fill="white"/>
<path d="M2400 516.122C2400 511.704 2396.42 508.122 2392 508.122H2356V524.122C2356 528.54 2359.58 532.122 2364 532.122H2400V516.122Z" fill="white"/>
<path d="M2308 516.122C2308 511.704 2304.42 508.122 2300 508.122H2264V524.122C2264 528.54 2267.58 532.122 2272 532.122H2308V516.122Z" fill="white"/>
<path d="M2216 516.122C2216 511.704 2212.42 508.122 2208 508.122H2172V524.122C2172 528.54 2175.58 532.122 2180 532.122H2216V516.122Z" fill="white"/>
<path d="M2124 516.122C2124 511.704 2120.42 508.122 2116 508.122H2080V524.122C2080 528.54 2083.58 532.122 2088 532.122H2124V516.122Z" fill="white"/>
<path d="M2032 516.122C2032 511.704 2028.42 508.122 2024 508.122H1988V524.122C1988 528.54 1991.58 532.122 1996 532.122H2032V516.122Z" fill="white"/>
<path d="M1940 516.122C1940 511.704 1936.42 508.122 1932 508.122H1896V524.122C1896 528.54 1899.58 532.122 1904 532.122H1940V516.122Z" fill="white"/>
<path d="M1848 516.122C1848 511.704 1844.42 508.122 1840 508.122H1804V524.122C1804 528.54 1807.58 532.122 1812 532.122H1848V516.122Z" fill="white"/>
<path d="M1756 516.122C1756 511.704 1752.42 508.122 1748 508.122H1712V524.122C1712 528.54 1715.58 532.122 1720 532.122H1756V516.122Z" fill="white"/>
<path d="M1664 516.122C1664 511.704 1660.42 508.122 1656 508.122H1620V524.122C1620 528.54 1623.58 532.122 1628 532.122H1664V516.122Z" fill="white"/>
<path d="M1572 516.122C1572 511.704 1568.42 508.122 1564 508.122H1528V524.122C1528 528.54 1531.58 532.122 1536 532.122H1572V516.122Z" fill="white"/>
<path d="M1480 516.122C1480 511.704 1476.42 508.122 1472 508.122H1436V524.122C1436 528.54 1439.58 532.122 1444 532.122H1480V516.122Z" fill="white"/>
<path d="M1388 516.122C1388 511.704 1384.42 508.122 1380 508.122H1344V524.122C1344 528.54 1347.58 532.122 1352 532.122H1388V516.122Z" fill="white"/>
<path d="M1296 516.122C1296 511.704 1292.42 508.122 1288 508.122H1252V524.122C1252 528.54 1255.58 532.122 1260 532.122H1296V516.122Z" fill="white"/>
<path d="M1204 516.122C1204 511.704 1200.42 508.122 1196 508.122H1160V524.122C1160 528.54 1163.58 532.122 1168 532.122H1204V516.122Z" fill="white"/>
<path d="M1112 516.122C1112 511.704 1108.42 508.122 1104 508.122H1068V524.122C1068 528.54 1071.58 532.122 1076 532.122H1112V516.122Z" fill="white"/>
<path d="M1020 516.122C1020 511.704 1016.42 508.122 1012 508.122H976V524.122C976 528.54 979.582 532.122 984 532.122H1020V516.122Z" fill="white"/>
<path d="M928 516.122C928 511.704 924.418 508.122 920 508.122H884V524.122C884 528.54 887.582 532.122 892 532.122H928V516.122Z" fill="white"/>
<path d="M836 516.122C836 511.704 832.418 508.122 828 508.122H792V524.122C792 528.54 795.582 532.122 800 532.122H836V516.122Z" fill="white"/>
<path d="M744 516.122C744 511.704 740.418 508.122 736 508.122H700V524.122C700 528.54 703.582 532.122 708 532.122H744V516.122Z" fill="white"/>
<path d="M652 516.122C652 511.704 648.418 508.122 644 508.122H608V524.122C608 528.54 611.582 532.122 616 532.122H652V516.122Z" fill="white"/>
<path d="M560 516.122C560 511.704 556.418 508.122 552 508.122H516V524.122C516 528.54 519.582 532.122 524 532.122H560V516.122Z" fill="white"/>
<path d="M468 516.122C468 511.704 464.418 508.122 460 508.122H424V524.122C424 528.54 427.582 532.122 432 532.122H468V516.122Z" fill="white"/>
<path d="M376 516.122C376 511.704 372.418 508.122 368 508.122H332V524.122C332 528.54 335.582 532.122 340 532.122H376V516.122Z" fill="white"/>
<path d="M284 516.122C284 511.704 280.418 508.122 276 508.122H240V524.122C240 528.54 243.582 532.122 248 532.122H284V516.122Z" fill="white"/>
<path d="M192 516.122C192 511.704 188.418 508.122 184 508.122H148V524.122C148 528.54 151.582 532.122 156 532.122H192V516.122Z" fill="white"/>
<path d="M100 516.122C100 511.704 96.4183 508.122 92 508.122H56V524.122C56 528.54 59.5817 532.122 64 532.122H100V516.122Z" fill="white"/>
</g>
</g>
<defs>
<filter id="filter0_f_4061_6972" x="1632.75" y="-211.592" width="1272.83" height="827.093" filterUnits="userSpaceOnUse" color-interpolation-filters="sRGB">
<feFlood flood-opacity="0" result="BackgroundImageFix"/>
<feBlend mode="normal" in="SourceGraphic" in2="BackgroundImageFix" result="shape"/>
<feGaussianBlur stdDeviation="62" result="effect1_foregroundBlur_4061_6972"/>
</filter>
<filter id="filter1_f_4061_6972" x="941.975" y="-159.535" width="1250.89" height="1262.9" filterUnits="userSpaceOnUse" color-interpolation-filters="sRGB">
<feFlood flood-opacity="0" result="BackgroundImageFix"/>
<feBlend mode="normal" in="SourceGraphic" in2="BackgroundImageFix" result="shape"/>
<feGaussianBlur stdDeviation="206" result="effect1_foregroundBlur_4061_6972"/>
</filter>
<linearGradient id="paint0_linear_4061_6972" x1="1161.48" y1="206" x2="-472.432" y2="878.185" gradientUnits="userSpaceOnUse">
<stop stop-color="#E6F7FF"/>
<stop offset="1" stop-color="#0098E3"/>
</linearGradient>
<clipPath id="clip0_4061_6972">
<rect width="2748" height="560" fill="white"/>
</clipPath>
<clipPath id="clip1_4061_6972">
<rect width="2636" height="24" fill="white" transform="translate(56 28.2441)"/>
</clipPath>
<clipPath id="clip2_4061_6972">
<rect width="3264" height="24" fill="white" transform="translate(56 28.1221)"/>
</clipPath>
<clipPath id="clip3_4061_6972">
<rect width="2636" height="24" fill="white" transform="translate(56 508.244)"/>
</clipPath>
</defs>
</svg>
