<svg width="174" height="72" viewBox="0 0 174 72" fill="none" xmlns="http://www.w3.org/2000/svg">
<path d="M116.719 44.4515V71.5175H122.487V60.4586H134.789V71.5175H140.558V44.4515H134.789V55.5483H122.487V44.4515H116.719Z" fill="white"/>
<path d="M153.552 60.6014H157.141L165.997 71.5175H173.457L161.651 57.5205L171.967 44.4515H165.334L156.737 56.0525H153.552V44.4515H147.779V71.5175H153.552V60.6014Z" fill="white"/>
<path d="M106.799 71.5175H112.879L101.604 44.4515H95.7207L84.1836 71.5175H90.0293L92.3592 66.065H104.621L106.799 71.5175ZM94.0785 61.5407L98.5509 50.6759L102.752 61.5407H94.0785Z" fill="white"/>
<path d="M72.1155 55.0017H65.095V48.9581H80.1875L80.2007 44.4515H59.3242V71.5175H71.3727C78.1309 71.5175 82.006 68.4187 82.006 63.0153C82.006 57.8484 78.4946 55.0017 72.1155 55.0017ZM71.1126 67.011H65.095V59.5083H71.1126C74.7739 59.5083 76.4799 60.7643 76.4799 63.2607C76.4799 65.8107 74.6747 67.011 71.1126 67.011Z" fill="white"/>
<path d="M129.443 13.4123L135.485 8.90576H115.266V35.9739H135.485V31.4674H121.034V24.5381H133.36V20.0293H121.034V13.4123H129.443Z" fill="white"/>
<path d="M100.002 19.4582H92.9817V13.4123H104.19L110.232 8.90576H87.2109V35.9739H99.2594C106.018 35.9739 109.893 32.8751 109.893 27.4718C109.893 22.3026 106.381 19.4582 100.002 19.4582ZM98.9905 31.4674H92.9729V23.9647H98.9905C102.652 23.9647 104.358 25.2185 104.358 27.7149C104.358 30.2649 102.553 31.4674 98.9905 31.4674Z" fill="white"/>
<path d="M151.869 8.90576H140.848V35.9739H146.618V28.3061H151.858C158.883 28.3061 163.247 24.5671 163.247 18.5926C163.247 12.6181 158.883 8.90576 151.858 8.90576M151.734 23.7996H146.618V13.4123H151.734C155.431 13.4123 157.466 15.2573 157.466 18.606C157.466 21.9546 155.429 23.7996 151.734 23.7996Z" fill="white"/>
<path d="M77.3064 30.1131C75.7762 30.953 74.0611 31.3881 72.3204 31.3781C67.1184 31.3781 63.3425 27.6189 63.3425 22.4409C63.3425 17.2628 67.1184 13.5171 72.3204 13.5171C74.2003 13.4897 76.0395 14.0721 77.5687 15.1791L81.7083 12.0915L81.435 11.8483C79.0103 9.69989 75.7899 8.56433 72.0978 8.56433C68.0926 8.56433 64.4578 9.92968 61.8634 12.4127C59.269 14.8958 57.8164 18.4229 57.8164 22.3026C57.8164 26.1822 59.2492 29.7673 61.848 32.3418C64.4468 34.9164 68.0838 36.3442 72.0603 36.3442C76.2197 36.3442 79.8523 34.8762 82.3145 32.2058L78.5805 29.4193L77.3064 30.1131Z" fill="white"/>
<path d="M44.0917 22.3092C44.0922 20.9686 43.9742 19.6307 43.739 18.3114L38.9933 21.8497C38.9933 22.0036 38.9933 22.1553 38.9933 22.3092C38.9972 26.1474 37.731 29.8764 35.3967 32.9012C33.0623 35.9261 29.7944 38.0726 26.1141 38.9983C22.4338 39.924 18.5532 39.5756 15.0913 38.0086C11.6295 36.4416 8.7859 33.7464 7.01413 30.3529C5.24235 26.9594 4.64449 23.0631 5.31592 19.2855C5.98735 15.508 7.8894 12.0668 10.7186 9.51105C13.5478 6.95526 17.1412 5.43207 20.9256 5.18446C24.7099 4.93685 28.4672 5.97909 31.598 8.14492L35.8853 4.94796C31.995 1.77053 27.153 0.0258754 22.154 0.000285557C17.1551 -0.0253042 12.296 1.66969 8.37407 4.80713C4.45218 7.94457 1.70049 12.3381 0.570515 17.2668C-0.559459 22.1954 -0.000590702 27.3664 2.15542 31.9313C4.31142 36.4961 7.9365 40.1837 12.4358 42.3888C16.9351 44.5939 22.0413 45.1856 26.9166 44.0669C31.7919 42.9481 36.1467 40.1852 39.2663 36.2317C42.386 32.2782 44.0852 27.3689 44.0851 22.3092H44.0917Z" fill="white"/>
<path d="M39.4918 8.66699C40.5406 10.0365 41.4283 11.5248 42.1369 13.1021L22.0518 28.0852L13.6602 22.7599V16.3549L22.0518 21.6802L39.4918 8.66699Z" fill="white"/>
</svg>
