<svg width="111" height="46" viewBox="0 0 111 46" fill="none" xmlns="http://www.w3.org/2000/svg">
<path d="M74.5098 28.4983V45.7762H78.1922V38.7166H86.0453V45.7762H89.7277V28.4983H86.0453V35.5821H78.1922V28.4983H74.5098Z" fill="#1A1230"/>
<path d="M98.0231 38.8078H100.314L105.968 45.7762H110.729L103.193 36.841L109.778 28.4983H105.544L100.056 35.9039H98.0231V28.4983H94.3379V45.7762H98.0231V38.8078Z" fill="#1A1230"/>
<path d="M68.1753 45.7762H72.0561L64.8587 28.4983H61.1031L53.7383 45.7762H57.4699L58.9573 42.2955H66.785L68.1753 45.7762ZM60.0548 39.4073L62.9098 32.4717L65.5918 39.4073H60.0548Z" fill="#1A1230"/>
<path d="M46.0366 35.2331H41.5549V31.3751H51.1894L51.1979 28.4983H37.8711V45.7762H45.5624C49.8766 45.7762 52.3503 43.798 52.3503 40.3487C52.3503 37.0504 50.1088 35.2331 46.0366 35.2331ZM45.3963 42.8994H41.5549V38.1099H45.3963C47.7336 38.1099 48.8227 38.9117 48.8227 40.5054C48.8227 42.1332 47.6702 42.8994 45.3963 42.8994Z" fill="#1A1230"/>
<path d="M82.6326 8.68393L86.4895 5.80713H73.582V23.0864H86.4895V20.2096H77.2645V15.7862H85.133V12.908H77.2645V8.68393H82.6326Z" fill="#1A1230"/>
<path d="M63.8373 12.5434H59.3557V8.68393H66.5109L70.3678 5.80713H55.6719V23.0864H63.3631C67.6774 23.0864 70.1511 21.1083 70.1511 17.659C70.1511 14.3592 67.9095 12.5434 63.8373 12.5434ZM63.1915 20.2096H59.3501V15.4202H63.1915C65.5287 15.4202 66.6178 16.2206 66.6178 17.8142C66.6178 19.442 65.4654 20.2096 63.1915 20.2096Z" fill="#1A1230"/>
<path d="M96.9477 5.80713H89.9121V23.0864H93.5959V18.1916H96.9406C101.425 18.1916 104.211 15.8047 104.211 11.9908C104.211 8.17693 101.425 5.80713 96.9406 5.80713M96.8618 15.3148H93.5959V8.68393H96.8618C99.2216 8.68393 100.52 9.8617 100.52 11.9994C100.52 14.137 99.2202 15.3148 96.8618 15.3148Z" fill="#1A1230"/>
<path d="M49.3479 19.3452C48.3711 19.8813 47.2763 20.1591 46.165 20.1527C42.8443 20.1527 40.4339 17.753 40.4339 14.4475C40.4339 11.142 42.8443 8.75086 46.165 8.75086C47.3651 8.73338 48.5392 9.10519 49.5154 9.81186L52.1579 7.84082L51.9835 7.68559C50.4356 6.31413 48.3798 5.58923 46.0229 5.58923C43.4662 5.58923 41.1459 6.46082 39.4897 8.0459C37.8335 9.63099 36.9062 11.8826 36.9062 14.3592C36.9062 16.8358 37.8209 19.1244 39.4799 20.7679C41.1388 22.4114 43.4606 23.3228 45.999 23.3228C48.6542 23.3228 50.9732 22.3857 52.5449 20.681L50.1613 18.9022L49.3479 19.3452Z" fill="#1A1230"/>
<path d="M28.1465 14.3634C28.1468 13.5077 28.0715 12.6536 27.9213 11.8114L24.8918 14.0701C24.8918 14.1683 24.8918 14.2652 24.8918 14.3634C24.8943 16.8136 24.086 19.194 22.5959 21.125C21.1057 23.0559 19.0196 24.4262 16.6702 25.0171C14.3209 25.608 11.8436 25.3856 9.63373 24.3853C7.42383 23.385 5.60858 21.6645 4.47755 19.4982C3.34652 17.3319 2.96486 14.8447 3.39348 12.4332C3.8221 10.0218 5.03629 7.82508 6.84236 6.19356C8.64843 4.56204 10.9423 3.58969 13.3581 3.43163C15.7739 3.27357 18.1724 3.93889 20.171 5.32148L22.9078 3.28066C20.4244 1.25231 17.3335 0.138588 14.1423 0.122253C10.9511 0.105917 7.84927 1.18794 5.34569 3.19076C2.8421 5.19358 1.08553 7.99824 0.364195 11.1445C-0.357137 14.2908 -0.000377082 17.5918 1.37594 20.5058C2.75225 23.4198 5.06636 25.7738 7.93854 27.1815C10.8107 28.5891 14.0703 28.9669 17.1826 28.2527C20.2948 27.5385 23.0747 25.7748 25.0661 23.251C27.0576 20.7273 28.1423 17.5933 28.1423 14.3634H28.1465Z" fill="#1A1230"/>
<path d="M25.2107 5.65479C25.8802 6.529 26.4468 7.47913 26.8992 8.486L14.0776 18.0506L8.7207 14.6512V10.5624L14.0776 13.9619L25.2107 5.65479Z" fill="#1A1230"/>
</svg>
