<svg width="146" height="39" viewBox="0 0 146 39" fill="none" xmlns="http://www.w3.org/2000/svg">
<g clip-path="url(#clip0_4030_8194)">
<path fill-rule="evenodd" clip-rule="evenodd" d="M0 0V36.3378L36.3378 0H0Z" fill="white"/>
<path fill-rule="evenodd" clip-rule="evenodd" d="M2.59766 38.9332H38.9354V2.59546L2.59766 38.9332Z" fill="white"/>
<path fill-rule="evenodd" clip-rule="evenodd" d="M59.3452 18.6227C63.5702 18.6227 65.8163 16.5537 65.8163 12.6878V12.4694C65.8163 8.33128 63.463 6.69782 59.3452 6.69782H54.9596V18.6227H59.3452ZM46.3496 0H59.559C68.8644 0 74.1591 4.19255 74.1591 12.4156V12.6327C74.1591 20.8551 68.5439 24.776 59.8261 24.776H54.9596V38.9333H46.3496V0Z" fill="white"/>
<path fill-rule="evenodd" clip-rule="evenodd" d="M91.2998 32.2355C95.4451 32.2355 97.5442 30.3843 97.5442 26.8445V26.6273C97.5442 23.142 95.4451 21.2362 91.09 21.2362H86.2624V32.2355H91.2998ZM91.6148 38.9333H77.8672V0H102.319V6.86116H86.3153L86.2624 15.0285H91.8768C100.535 15.0285 105.677 18.895 105.677 26.6811V26.8995C105.677 34.5224 100.902 38.9333 91.6148 38.9333Z" fill="white"/>
<path fill-rule="evenodd" clip-rule="evenodd" d="M111.934 0.0543727H120.974V16.8024L134.925 0H144.524L128.731 18.4336L145.305 38.9333H134.758L120.974 21.4785V38.9333H111.934V0.0543727Z" fill="white"/>
</g>
<defs>
<clipPath id="clip0_4030_8194">
<rect width="146" height="38.9333" fill="white"/>
</clipPath>
</defs>
</svg>
