<svg width="186" height="59" viewBox="0 0 186 59" fill="none" xmlns="http://www.w3.org/2000/svg">
<g clip-path="url(#clip0_4030_8192)">
<path fill-rule="evenodd" clip-rule="evenodd" d="M0.0066937 37.7686C0.00225074 37.6888 0 37.6084 0 37.5275V0.00674144H0.0066937V0H48.8723V48.9737C48.8723 51.3734 46.8918 53.326 44.4578 53.326H30.381C30.1676 53.326 29.9609 53.4115 29.8142 53.5561L24.4395 58.7303V58.7368L19.0781 53.5693C18.9181 53.4115 18.7114 53.326 18.498 53.326H4.42113C1.98719 53.326 0.0066937 51.3734 0.0066937 48.9737V37.7686ZM25.0063 24.9634L30.3743 30.131L30.381 30.1244L35.7557 24.9503C35.9024 24.8056 36.1091 24.7202 36.3225 24.7202H44.4578C45.4029 24.7202 46.2795 24.4258 46.9985 23.9252L46.9985 37.5406C46.9985 38.9278 45.8582 40.0521 44.4512 40.0521H18.458C17.7445 40.0521 17.071 40.3216 16.5775 40.8147L12.5165 44.72L8.46879 40.8213C7.962 40.3216 7.2885 40.0455 6.57498 40.0455H4.42111C3.01792 40.0455 1.88001 38.9274 1.87383 37.5454V23.9205C2.594 24.424 3.47318 24.7202 4.42113 24.7202H24.4261C24.6462 24.7202 24.8463 24.8056 25.0063 24.9634ZM4.42113 22.8859C3.01412 22.8859 1.87383 21.7616 1.87383 20.3744V1.85401H46.9985V20.381L46.9985 20.3872C46.995 21.7716 45.8561 22.8924 44.4512 22.8924H36.3158C35.6023 22.8924 34.9288 23.162 34.4353 23.6551L30.3743 27.5603L26.3266 23.6617C25.8198 23.162 25.1463 22.8859 24.4328 22.8859H4.42113ZM12.5165 47.2906L7.14846 42.123C6.98842 41.9653 6.78837 41.8798 6.56832 41.8798H4.41444C3.46942 41.8798 2.59275 41.5854 1.87383 41.0848V48.9737C1.87383 50.3609 3.01412 51.4852 4.42113 51.4852H18.4913C19.2048 51.4852 19.8783 51.7613 20.3851 52.2544L24.4328 56.1531L28.4938 52.2478C28.994 51.7547 29.6608 51.4852 30.3743 51.4852H44.4512C45.8582 51.4852 46.9985 50.3609 46.9985 48.9737V41.0867C46.2783 41.5902 45.3991 41.8864 44.4512 41.8864H18.458C18.2446 41.8864 18.0379 41.9718 17.8912 42.1165L12.5165 47.2906Z" fill="white"/>
<path fill-rule="evenodd" clip-rule="evenodd" d="M83.9679 8.88222L84.448 7.86974H87.6688L88.1489 8.88222H90.1894V8.57979L86.5018 0.72326H85.6016L81.9273 8.57979V8.88222H83.9679ZM85.1282 6.11436L86.0484 3.99737L86.9953 6.11436H85.1282Z" fill="white"/>
<path fill-rule="evenodd" clip-rule="evenodd" d="M60.7552 0.729761L57.9545 7.10045H57.1277V9.78942H58.8614V8.90187H63.6893V9.78942H65.4031V7.10045H64.5495L61.6555 0.729761H60.7552ZM61.1953 4.16166L62.3756 7.07415H60.0617L61.1953 4.16166Z" fill="white"/>
<path fill-rule="evenodd" clip-rule="evenodd" d="M94.8571 0.834976C98.7648 0.848125 98.7648 6.82434 94.8571 6.82434H93.3501V8.88216H91.2629V0.834976H94.8571ZM94.8438 2.66926C94.5173 2.66045 94.1729 2.66346 93.8365 2.6664C93.8159 2.66658 93.7953 2.66676 93.7747 2.66693C93.6307 2.66817 93.4885 2.66926 93.3501 2.66926V4.97034H94.8438C95.9908 4.97034 96.0574 2.68241 94.8438 2.66926Z" fill="white"/>
<path fill-rule="evenodd" clip-rule="evenodd" d="M110.621 8.88222L110.141 7.86974H106.92L106.44 8.88222H104.4V8.57979L108.074 0.72326H108.974L112.662 8.57979V8.88222H110.621ZM108.521 3.99737L107.6 6.11436H109.467L108.521 3.99737Z" fill="white"/>
<path d="M117.816 7.08737L119.557 5.29255V8.88221H121.691V0.808732H120.937L117.683 4.30637L114.489 0.808732H113.722V8.88221H115.856V5.29255L117.583 7.08737H117.816Z" fill="white"/>
<path d="M63.3892 15.332L59.2615 19.3095V15.3648H57.1277V23.4252H57.8745V23.4318L61.9889 19.4608V23.4186H64.1494V15.332H63.3892Z" fill="white"/>
<path fill-rule="evenodd" clip-rule="evenodd" d="M74.6257 19.3749C74.6257 21.8798 76.3595 22.695 78.4733 22.7673V23.4445H80.4538V22.7673C82.561 22.695 84.3015 21.8732 84.3015 19.3749C84.3015 16.8766 82.581 16.0745 80.4672 16.0022V15.325H78.46V16.0022C76.3528 16.0745 74.6257 16.87 74.6257 19.3749ZM78.5 20.8673C77.6465 20.8213 76.7596 20.5254 76.7596 19.3749C76.7596 18.2243 77.5998 17.9219 78.5 17.889V20.8673ZM80.4338 17.889C81.3341 17.9285 82.1743 18.2243 82.1743 19.3749C82.1743 20.5254 81.2874 20.8213 80.4338 20.8673V17.889Z" fill="white"/>
<path fill-rule="evenodd" clip-rule="evenodd" d="M85.3815 19.3948C85.3815 13.8262 93.757 13.8262 93.757 19.3948C93.757 24.9634 85.3815 24.97 85.3815 19.3948ZM91.6231 19.3948C91.6231 16.4954 87.5287 16.4954 87.5287 19.3948C87.5287 22.2941 91.6231 22.3139 91.6231 19.3948Z" fill="white"/>
<path fill-rule="evenodd" clip-rule="evenodd" d="M98.9248 21.3541C102.832 21.3541 102.832 15.3779 98.9248 15.3647H95.3305V23.4119H97.4177V21.3541H98.9248ZM97.9041 17.2027C98.2405 17.1998 98.5849 17.1968 98.9114 17.2056C100.125 17.2187 100.052 19.5067 98.9114 19.5067H97.4177V17.2056C97.5755 17.2056 97.7394 17.2041 97.9041 17.2027Z" fill="white"/>
<path d="M107.374 18.8361L110.628 15.3385H111.381V23.412H109.247V19.8223L107.507 21.6171H107.274L105.547 19.8223V23.412H103.413V15.3385H104.18L107.374 18.8361Z" fill="white"/>
<path fill-rule="evenodd" clip-rule="evenodd" d="M114.475 23.4119L114.955 22.3994H118.176L118.656 23.4119H120.697V23.116L117.009 15.2595H116.109L112.435 23.116V23.4119H114.475ZM115.636 20.644L116.556 18.527L117.503 20.644H115.636Z" fill="white"/>
<path d="M136.774 15.332L132.647 19.3095V15.3648H130.513V23.4252H131.26V23.4318L135.374 19.4608V23.4186H137.535V15.332H136.774Z" fill="white"/>
<path fill-rule="evenodd" clip-rule="evenodd" d="M139.128 19.3948C139.128 13.8262 147.504 13.8262 147.504 19.3948C147.504 24.9634 139.128 24.97 139.128 19.3948ZM145.37 19.3948C145.37 16.4954 141.275 16.4954 141.275 19.3948C141.275 22.2941 145.37 22.3139 145.37 19.3948Z" fill="white"/>
<path fill-rule="evenodd" clip-rule="evenodd" d="M170.449 23.4185C174.357 23.4053 174.357 17.771 170.449 17.771H168.942V15.3713H166.855V23.4185H170.449ZM169.366 21.5734C169.222 21.5721 169.081 21.571 168.942 21.571V19.6184H170.436C171.576 19.6184 171.65 21.5579 170.436 21.571C170.105 21.5799 169.762 21.5769 169.427 21.5739C169.407 21.5737 169.386 21.5736 169.366 21.5734Z" fill="white"/>
<path d="M182.179 20.8807L180.685 23.4119H178.431V23.1029L181.065 19.1451L178.712 15.6737V15.3647H180.885L182.179 17.4554H182.239L183.546 15.3647H185.707V15.6737L183.353 19.1451L186 23.1029V23.4119H183.746L182.252 20.8807H182.179Z" fill="white"/>
<path d="M72.8383 37.9416L74.332 35.4105H74.3987L75.8924 37.9416H78.1463V37.6326L75.499 33.6748L77.8529 30.2034V29.8944H75.6923L74.3853 31.9851H74.3253L73.0317 29.8944H70.8645V30.2034L73.2184 33.6748L70.5844 37.6326V37.9416H72.8383Z" fill="white"/>
<path fill-rule="evenodd" clip-rule="evenodd" d="M87.7286 33.9245C87.7286 28.3559 96.1041 28.3559 96.1041 33.9245C96.1041 39.4931 87.7286 39.4997 87.7286 33.9245ZM93.9702 33.9245C93.9702 31.0252 89.8758 31.0252 89.8758 33.9245C89.8758 36.8239 93.9702 36.8436 93.9702 33.9245Z" fill="white"/>
<path d="M100.772 33.2278L98.698 37.9417H96.6509V37.6393L100.325 29.7827H101.225L104.913 37.6393V37.9417H102.872L100.772 33.2278Z" fill="white"/>
<path fill-rule="evenodd" clip-rule="evenodd" d="M105.48 33.9245C105.48 28.3559 113.855 28.3559 113.855 33.9245C113.855 39.4931 105.48 39.4997 105.48 33.9245ZM111.721 33.9245C111.721 31.0252 107.627 31.0252 107.627 33.9245C107.627 36.8239 111.721 36.8436 111.721 33.9245Z" fill="white"/>
<path d="M128.252 29.8615L124.124 33.839V29.8943H121.991V37.9547H122.737V37.9613L126.852 33.9903V37.9481H129.012V29.8615H128.252Z" fill="white"/>
<path d="M136.027 33.9902L131.913 37.9612V37.9547H131.166V29.8943H133.3V33.839L137.428 29.8614H138.188V37.9481H136.027V33.9902Z" fill="white"/>
<path d="M134.154 27.3763C133.747 27.396 133.347 27.442 132.953 27.488C132.987 28.7766 133.72 29.4538 134.981 29.4538C136.241 29.4538 136.974 28.7766 137.021 27.488L136.989 27.4844C136.6 27.4396 136.217 27.3955 135.821 27.3763C135.747 27.8562 135.434 28.0074 134.961 28.0074C134.487 28.0074 134.187 27.8036 134.154 27.3763Z" fill="white"/>
<path fill-rule="evenodd" clip-rule="evenodd" d="M62.9225 48.4543C62.9225 42.8856 71.2979 42.8856 71.2979 48.4543C71.2979 54.0229 62.9225 54.0294 62.9225 48.4543ZM69.1641 48.4543C69.1641 45.5549 65.0697 45.5549 65.0697 48.4543C65.0697 51.3536 69.1641 51.3733 69.1641 48.4543Z" fill="white"/>
<path fill-rule="evenodd" clip-rule="evenodd" d="M76.466 50.4136C80.3736 50.4136 80.3736 44.4373 76.466 44.4242H72.8717V52.4714H74.9589V50.4136H76.466ZM75.4453 46.2622C75.7817 46.2592 76.1261 46.2562 76.4526 46.265C77.6663 46.2782 77.5929 48.5661 76.4526 48.5661H74.9589V46.265C75.117 46.265 75.2802 46.2636 75.4453 46.2622Z" fill="white"/>
<path fill-rule="evenodd" clip-rule="evenodd" d="M80.4669 48.4543C80.4669 42.8856 88.8424 42.8856 88.8424 48.4543C88.8424 54.0229 80.4669 54.0294 80.4669 48.4543ZM86.7085 48.4543C86.7085 45.5549 82.6141 45.5549 82.6141 48.4543C82.6141 51.3536 86.7085 51.3733 86.7085 48.4543Z" fill="white"/>
<path fill-rule="evenodd" clip-rule="evenodd" d="M93.0301 44.319L90.2294 50.6897H89.4025V53.3786H91.1363V52.4911H95.9642V53.3786H97.6779V50.6897H96.8244L93.9303 44.319H93.0301ZM93.4702 47.7509L94.6505 50.6634H92.3366L93.4702 47.7509Z" fill="white"/>
<path fill-rule="evenodd" clip-rule="evenodd" d="M104.406 52.4714L103.926 51.4589H100.705L100.225 52.4714H98.1847V52.1755L101.859 44.319H102.759L106.447 52.1755V52.4714H104.406ZM102.306 47.5865L101.385 49.7035H103.253L102.306 47.5865Z" fill="white"/>
<path d="M114.809 50.6764L116.549 48.8815V52.4712H118.683V44.3977H117.936L114.682 47.8953L111.488 44.3977H110.715V52.4712H112.848V48.8815L114.576 50.6764H114.809Z" fill="white"/>
<path fill-rule="evenodd" clip-rule="evenodd" d="M120.264 48.4543C120.264 42.8856 128.639 42.8856 128.639 48.4543C128.639 54.0229 120.264 54.0294 120.264 48.4543ZM126.505 48.4543C126.505 45.5549 122.411 45.5549 122.411 48.4543C122.411 51.3536 126.505 51.3733 126.505 48.4543Z" fill="white"/>
<path d="M137.741 47.3826C137.428 45.2327 135.601 44.3255 133.907 44.3255H133.9C131.826 44.3255 129.726 45.7061 129.713 48.4411C129.726 51.1761 131.826 52.5568 133.9 52.5436C135.641 52.5436 137.474 51.6429 137.775 49.3681H135.721C135.501 50.2294 134.787 50.6699 133.9 50.6699C132.667 50.6633 131.873 49.6245 131.873 48.4411C131.873 47.1065 132.673 46.1992 133.9 46.1992C134.78 46.1992 135.394 46.5674 135.687 47.3826H137.741Z" fill="white"/>
<path fill-rule="evenodd" clip-rule="evenodd" d="M154.439 49.927C154.439 49.2187 154.127 48.6217 153.463 48.2859C153.854 47.9629 154.099 47.3741 154.099 46.8962C154.099 45.5024 152.972 44.4242 151.558 44.4242H148.07V52.4714H151.898C153.565 52.4714 154.425 51.3274 154.439 49.927ZM151.405 47.5602C152.231 47.5602 152.231 46.2585 151.391 46.2585H150.084V47.5602H151.405ZM151.751 50.6371C152.592 50.6371 152.578 49.2696 151.738 49.2696H150.084V50.6371H151.751Z" fill="white"/>
<path fill-rule="evenodd" clip-rule="evenodd" d="M159.667 52.4712C163.574 52.4581 163.574 46.8237 159.667 46.8237H158.16V44.424H156.073V52.4712H159.667ZM158.462 50.6251C158.36 50.6243 158.259 50.6238 158.16 50.6238V48.6711H159.653C160.794 48.6711 160.867 50.6106 159.653 50.6238C159.322 50.6326 158.98 50.6296 158.645 50.6266L158.462 50.6251Z" fill="white"/>
<path d="M142.489 49.3748C142.242 49.4076 141.769 49.4076 141.476 49.4076V52.4779H139.342V44.4307H141.476V47.5799C141.517 47.5799 141.562 47.5803 141.609 47.5807C141.948 47.5837 142.412 47.5877 142.669 47.455C143.043 47.2709 143.169 46.7844 143.403 45.8245C143.649 44.8449 144.443 44.056 146.357 44.4439V45.8574C145.843 45.8245 145.497 45.9363 145.363 46.4294C145.096 47.3958 144.816 48.073 144.363 48.5661C144.678 49.0488 144.989 49.5337 145.301 50.019L145.303 50.0229L145.305 50.0246C145.764 50.7401 146.225 51.4572 146.697 52.1689V52.4779H144.283L142.496 49.3748H142.489Z" fill="white"/>
<path d="M69.144 2.67584H72.1648V0.834976H67.0702V8.88216H72.2715V7.05445H69.144V5.64094H71.9181V3.81323H69.144V2.67584Z" fill="white"/>
<path d="M80.8669 8.88216H78.733V2.72843H76.2124V8.88216H74.0785V0.834976H80.8669V8.88216Z" fill="white"/>
<path d="M98.5581 0.834976V2.67584H100.565V8.88874H102.632V2.67584H104.626V0.834976H98.5581Z" fill="white"/>
<path d="M128.866 2.67584H125.845V3.81323H128.619V5.64094H125.845V7.05445H128.972V8.88216H123.771V0.834976H128.866V2.67584Z" fill="white"/>
<path d="M135.434 8.88216H137.568V0.834976H135.434V3.75406H132.913V0.834976H130.779V8.88216H132.913V5.65409H135.434V8.88216Z" fill="white"/>
<path d="M138.848 2.67584V0.834976H144.916V2.67584H142.923V8.88874H140.855V2.67584H138.848Z" fill="white"/>
<path d="M73.0383 23.4119H70.9045V20.1838H68.3838V23.4119H66.25V15.3647H68.3838V18.2838H70.9045V15.3647H73.0383V23.4119Z" fill="white"/>
<path d="M121.764 15.3647H123.898V21.5185H126.265V15.3647H128.399V21.6302H129.226V24.3192H127.512V23.4119H121.764V15.3647Z" fill="white"/>
<path d="M153.745 23.4119H155.879V15.3647H153.745V18.2838H151.225V15.3647H149.091V23.4119H151.225V20.1838H153.745V23.4119Z" fill="white"/>
<path d="M164.768 23.4119H162.634V20.1838H160.114V23.4119H157.98V15.3647H160.114V18.2838H162.634V15.3647H164.768V23.4119Z" fill="white"/>
<path d="M176.538 15.3647H174.45V23.4119H176.538V15.3647Z" fill="white"/>
<path d="M57.1277 31.7286H59.1348V37.9415H61.202V31.7286H63.1958V29.8877H57.1277V31.7286Z" fill="white"/>
<path d="M69.5841 31.7286H66.5634V32.866H69.3374V34.6937H66.5634V36.1072H69.6908V37.9349H64.4895V29.8877H69.5841V31.7286Z" fill="white"/>
<path d="M86.1351 37.9416H84.0012V34.707H81.4806V37.9416H79.3467V29.8944H81.4806V32.8135H84.0012V29.8944H86.1351V37.9416Z" fill="white"/>
<path d="M117.556 37.9416H115.436V29.8944H120.517V31.7353H117.556V37.9416Z" fill="white"/>
<path d="M57.1277 44.4242V52.4714H59.2549V46.265H62.2156V44.4242H57.1277Z" fill="white"/>
<path d="M165.728 44.4174H163.641V52.4646H165.728V44.4174Z" fill="white"/>
</g>
<defs>
<clipPath id="clip0_4030_8192">
<rect width="186" height="58.7368" fill="white"/>
</clipPath>
</defs>
</svg>
