<svg width="49" height="39" viewBox="0 0 49 39" fill="none" xmlns="http://www.w3.org/2000/svg">
<path d="M21.8387 29.6773C21.8387 32.2669 20.8822 34.494 18.9693 36.3586C17.1627 38.1195 14.8779 39 12.1149 39C8.28913 39 5.31354 37.7052 3.18813 35.1155C1.06271 32.4223 0 29.3147 0 25.7928C0 20.4064 1.6472 15.5379 4.94159 11.1873C8.23599 6.73307 12.0086 3.00398 16.2594 0L21.6793 5.28286C20.8291 6.21513 19.7664 7.30278 18.4911 8.54582C17.2159 9.68525 16.1 10.9283 15.1436 12.2749C14.2934 13.6215 13.8683 14.9681 13.8683 16.3147C13.8683 17.6614 14.506 18.8526 15.7812 19.8884C17.1627 20.9243 18.4911 22.1673 19.7664 23.6175C21.1479 25.0677 21.8387 27.0876 21.8387 29.6773ZM49 29.6773C49 32.2669 48.0436 34.494 46.1307 36.3586C44.3241 38.1195 42.0393 39 39.2762 39C35.4505 39 32.4749 37.7052 30.3495 35.1155C28.224 32.4223 27.1613 29.3147 27.1613 25.7928C27.1613 20.4064 28.8085 15.5379 32.1029 11.1873C35.3973 6.73307 39.1699 3.00398 43.4208 0L48.8406 5.28286C47.9904 6.21513 46.9277 7.30278 45.6525 8.54582C44.3772 9.68525 43.2614 10.9283 42.3049 12.2749C41.4548 13.6215 41.0297 14.9681 41.0297 16.3147C41.0297 17.6614 41.6673 18.8526 42.9426 19.8884C44.3241 20.9243 45.6525 22.1673 46.9277 23.6175C48.3092 25.0677 49 27.0876 49 29.6773Z" fill="#F5F5F5"/>
</svg>
