<svg width="111" height="110" viewBox="0 0 111 110" fill="none" xmlns="http://www.w3.org/2000/svg">
<g clip-path="url(#clip0_4029_7683)">
<path d="M55.4995 103C82.2163 103 103.875 81.5097 103.875 55C103.875 28.4903 82.2163 7 55.4995 7C28.7827 7 7.12451 28.4903 7.12451 55C7.12451 81.5097 28.7827 103 55.4995 103Z" stroke="#F5F5F5" stroke-width="11.5727" stroke-linecap="round" stroke-linejoin="round"/>
<path d="M55.501 86.9998C58.8406 86.9998 61.5479 84.3135 61.5479 80.9998C61.5479 77.686 58.8406 74.9998 55.501 74.9998C52.1614 74.9998 49.4541 77.686 49.4541 80.9998C49.4541 84.3135 52.1614 86.9998 55.501 86.9998Z" fill="#F5F5F5"/>
<path d="M55.5 63.0017V59.0017C58.2906 59.0017 61.0185 58.1806 63.3387 56.6423C65.659 55.1039 67.4675 52.9174 68.5354 50.3593C69.6033 47.8011 69.8827 44.9862 69.3383 42.2705C68.7939 39.5547 67.4501 37.0602 65.4768 35.1022C63.5036 33.1443 60.9896 31.8109 58.2526 31.2707C55.5157 30.7305 52.6787 31.0078 50.1006 32.0674C47.5224 33.127 45.3188 34.9214 43.7685 37.2237C42.2181 39.526 41.3906 42.2328 41.3906 45.0017" stroke="#F5F5F5" stroke-width="11.5727" stroke-linecap="round" stroke-linejoin="round"/>
</g>
<defs>
<clipPath id="clip0_4029_7683">
<rect width="111" height="110" fill="white"/>
</clipPath>
</defs>
</svg>
