<svg width="49" height="49" viewBox="0 0 49 49" fill="none" xmlns="http://www.w3.org/2000/svg">
<path fill-rule="evenodd" clip-rule="evenodd" d="M17.9834 0.548828C15.0039 0.548828 12.5818 2.96678 12.5818 5.95254V7.15104C12.5818 10.1326 10.166 12.5547 7.18019 12.5547H5.98169C3.00221 12.5547 0.580078 14.9727 0.580078 17.9585V36.5666H7.1781C10.1576 36.5666 12.5797 34.1486 12.5797 31.1629V12.5547H31.1774C34.1568 12.5547 36.5769 10.1368 36.5769 7.15104V0.548828H17.9792H17.9834Z" fill="#5400B7"/>
<path fill-rule="evenodd" clip-rule="evenodd" d="M41.9826 12.5547C39.0032 12.5547 36.5831 14.9726 36.5831 17.9584V31.1628C36.5831 34.1444 34.1673 36.5665 31.1836 36.5665H17.9876C15.0081 36.5665 12.5859 38.9845 12.5859 41.9702V48.5724H31.1836C34.1631 48.5724 36.5831 46.1545 36.5831 43.1687V36.5665H43.1811C46.1606 36.5665 48.5807 34.1486 48.5807 31.1628V12.5547H41.9826Z" fill="#5400B7"/>
<path d="M24.2052 32.31C25.0703 32.31 25.7717 31.6087 25.7717 30.7435C25.7717 29.8783 25.0703 29.177 24.2052 29.177C23.34 29.177 22.6387 29.8783 22.6387 30.7435C22.6387 31.6087 23.34 32.31 24.2052 32.31Z" fill="#5400B7"/>
<path d="M24.204 26.0446V25.0003C24.9269 25.0003 25.6336 24.7859 26.2347 24.3843C26.8358 23.9826 27.3043 23.4118 27.5809 22.7439C27.8576 22.076 27.93 21.3411 27.7889 20.632C27.6479 19.923 27.2998 19.2717 26.7886 18.7605C26.2774 18.2493 25.6261 17.9012 24.9171 17.7602C24.2081 17.6191 23.4731 17.6915 22.8052 17.9682C22.1373 18.2448 21.5665 18.7133 21.1648 19.3144C20.7632 19.9155 20.5488 20.6222 20.5488 21.3451" stroke="#5400B7" stroke-width="2.78489" stroke-linecap="round" stroke-linejoin="round"/>
</svg>
