<svg width="125" height="157" viewBox="0 0 125 157" fill="none" xmlns="http://www.w3.org/2000/svg">
<g clip-path="url(#clip0_3004_12478)">
<path d="M12.7188 150.406H112.281" stroke="#E8E8E8" stroke-width="11.0625" stroke-linecap="round" stroke-linejoin="round"/>
<path d="M62.5 84.0312C74.7193 84.0312 84.625 74.1255 84.625 61.9062C84.625 49.6869 74.7193 39.7812 62.5 39.7812C50.2807 39.7812 40.375 49.6869 40.375 61.9062C40.375 74.1255 50.2807 84.0312 62.5 84.0312Z" stroke="#E8E8E8" stroke-width="11.0625" stroke-linecap="round" stroke-linejoin="round"/>
<path d="M117.813 61.9062C117.813 111.688 62.5 150.406 62.5 150.406C62.5 150.406 7.1875 111.688 7.1875 61.9062C7.1875 47.2365 13.0151 33.1675 23.3882 22.7944C33.7613 12.4213 47.8302 6.59375 62.5 6.59375C77.1698 6.59375 91.2387 12.4213 101.612 22.7944C111.985 33.1675 117.813 47.2365 117.813 61.9062V61.9062Z" stroke="#E8E8E8" stroke-width="11.0625" stroke-linecap="round" stroke-linejoin="round"/>
</g>
<defs>
<clipPath id="clip0_3004_12478">
<rect width="125" height="157" fill="white"/>
</clipPath>
</defs>
</svg>
