<svg width="40" height="40" viewBox="0 0 40 40" fill="none" xmlns="http://www.w3.org/2000/svg">
<path d="M5 33.75V8.75C5 8.41848 5.1317 8.10054 5.36612 7.86612C5.60054 7.6317 5.91848 7.5 6.25 7.5H33.75C34.0815 7.5 34.3995 7.6317 34.6339 7.86612C34.8683 8.10054 35 8.41848 35 8.75V33.75L30 31.25L25 33.75L20 31.25L15 33.75L10 31.25L5 33.75Z" stroke="url(#paint0_linear_4016_18391)" stroke-width="2.5" stroke-linecap="round" stroke-linejoin="round"/>
<path d="M22.5 17.5H30" stroke="url(#paint1_linear_4016_18391)" stroke-width="2.5" stroke-linecap="round" stroke-linejoin="round"/>
<path d="M22.5 22.5H30" stroke="url(#paint2_linear_4016_18391)" stroke-width="2.5" stroke-linecap="round" stroke-linejoin="round"/>
<path d="M17.5 15H10V25H17.5V15Z" stroke="url(#paint3_linear_4016_18391)" stroke-width="2.5" stroke-linecap="round" stroke-linejoin="round"/>
<defs>
<linearGradient id="paint0_linear_4016_18391" x1="5" y1="7.5" x2="40.1366" y2="9.07222" gradientUnits="userSpaceOnUse">
<stop stop-color="#5400B7"/>
<stop offset="1" stop-color="#0098E3"/>
</linearGradient>
<linearGradient id="paint1_linear_4016_18391" x1="22.5" y1="17.5" x2="30.603" y2="19.8794" gradientUnits="userSpaceOnUse">
<stop stop-color="#5400B7"/>
<stop offset="1" stop-color="#0098E3"/>
</linearGradient>
<linearGradient id="paint2_linear_4016_18391" x1="22.5" y1="22.5" x2="30.603" y2="24.8794" gradientUnits="userSpaceOnUse">
<stop stop-color="#5400B7"/>
<stop offset="1" stop-color="#0098E3"/>
</linearGradient>
<linearGradient id="paint3_linear_4016_18391" x1="10" y1="15" x2="18.7942" y2="15.2582" gradientUnits="userSpaceOnUse">
<stop stop-color="#5400B7"/>
<stop offset="1" stop-color="#0098E3"/>
</linearGradient>
</defs>
</svg>
