<svg width="24" height="28" viewBox="0 0 24 28" fill="none" xmlns="http://www.w3.org/2000/svg">
<path fill-rule="evenodd" clip-rule="evenodd" d="M10.3318 25.3106C6.94489 18.0369 4.712 13.1866 3.63318 10.7597C0.552928 3.83056 0.0178557 2.39075 0.000187261 1.45229C-0.00369872 1.24589 0.0509716 0.784382 0.310223 0.485439C0.52913 0.233017 0.824842 0.163567 1.03239 0.130331C1.23994 0.0970954 1.71274 0.0557117 2.08217 0.0886096C6.2988 0.464103 16.5314 2.08886 21.2541 2.91544C23.2525 3.2652 23.9225 3.95388 23.9881 4.62061C24.1306 6.06956 22.9647 7.16982 21.9815 8.5732C20.443 10.7692 19.4853 12.0098 17.984 14.1414C16.249 16.6049 15.2954 15.0079 13.737 13.604C13.3291 13.2366 7.12301 6.8525 6.56002 6.72893C6.48961 6.71348 6.22714 6.69914 6.08855 6.84503C5.94997 6.99092 5.99736 7.20625 6.03505 7.36163C6.08848 7.58188 8.56668 11.09 13.4697 17.8861C14.2005 18.8819 14.5565 19.7838 14.5379 20.5919C14.5173 21.4828 13.9995 23.1965 13.5569 24.4705C13.0141 26.033 12.7271 27.2749 11.8051 27.1668C11.3249 27.1104 10.8338 26.4917 10.3318 25.3106Z" fill="white"/>
</svg>
