<svg width="20" height="20" viewBox="0 0 20 20" fill="none" xmlns="http://www.w3.org/2000/svg">
<path d="M8.89146 14.2494V6.69746H11.1085V14.2494H8.89146ZM10.0231 5.86605C9.66898 5.86605 9.37644 5.78137 9.1455 5.61201C8.91455 5.44265 8.79908 5.17321 8.79908 4.8037C8.79908 4.38799 8.91455 4.11085 9.1455 3.97229C9.37644 3.81832 9.66898 3.74134 10.0231 3.74134C10.331 3.74134 10.6005 3.81832 10.8314 3.97229C11.0778 4.11085 11.2009 4.38799 11.2009 4.8037C11.2009 5.18861 11.0778 5.46574 10.8314 5.6351C10.6005 5.78907 10.331 5.86605 10.0231 5.86605ZM10 20C8.61432 20 7.31332 19.7383 6.097 19.2148C4.89607 18.7067 3.83372 17.9985 2.90993 17.0901C2.00154 16.1663 1.2856 15.1039 0.762125 13.903C0.254042 12.6867 0 11.3857 0 10C0 8.61432 0.254042 7.32102 0.762125 6.12009C1.2856 4.90377 2.00154 3.84142 2.90993 2.93302C3.83372 2.00924 4.89607 1.2933 6.097 0.785219C7.31332 0.26174 8.61432 0 10 0C11.3857 0 12.679 0.26174 13.8799 0.785219C15.0962 1.2933 16.1586 2.00924 17.067 2.93302C17.9908 3.84142 18.7067 4.90377 19.2148 6.12009C19.7383 7.32102 20 8.61432 20 10C20 11.3857 19.7383 12.6867 19.2148 13.903C18.7067 15.1039 17.9908 16.1663 17.067 17.0901C16.1586 17.9985 15.0962 18.7067 13.8799 19.2148C12.679 19.7383 11.3857 20 10 20ZM10 17.9446C11.1085 17.9446 12.1401 17.7444 13.0947 17.3441C14.0493 16.9284 14.8884 16.3587 15.612 15.6351C16.351 14.8961 16.9207 14.0493 17.321 13.0947C17.7367 12.1247 17.9446 11.0931 17.9446 10C17.9446 8.89145 17.7367 7.85989 17.321 6.90531C16.9207 5.95073 16.351 5.11162 15.612 4.38799C14.8884 3.64896 14.0416 3.07929 13.0716 2.67898C12.117 2.26328 11.0931 2.05543 10 2.05543C8.89146 2.05543 7.85989 2.26328 6.90531 2.67898C5.95073 3.07929 5.10393 3.64896 4.3649 4.38799C3.64126 5.11162 3.07159 5.95843 2.65589 6.92841C2.25558 7.88299 2.05543 8.90685 2.05543 10C2.05543 11.1085 2.25558 12.1401 2.65589 13.0947C3.07159 14.0493 3.64126 14.8961 4.3649 15.6351C5.10393 16.3587 5.95073 16.9284 6.90531 17.3441C7.87529 17.7444 8.90685 17.9446 10 17.9446Z" fill="white"/>
</svg>
