<svg width="22" height="23" viewBox="0 0 22 23" fill="none" xmlns="http://www.w3.org/2000/svg">
<path d="M8.25 18.7265H4.125C3.94266 18.7265 3.7678 18.654 3.63886 18.5251C3.50993 18.3962 3.4375 18.2213 3.4375 18.039V14.1987C3.4375 14.1084 3.45528 14.019 3.48983 13.9356C3.52438 13.8522 3.57502 13.7764 3.63886 13.7126L13.9514 3.40009C14.0803 3.27116 14.2552 3.19873 14.4375 3.19873C14.6198 3.19873 14.7947 3.27116 14.9236 3.40009L18.7639 7.24032C18.8928 7.36925 18.9652 7.54412 18.9652 7.72646C18.9652 7.90879 18.8928 8.08366 18.7639 8.21259L8.25 18.7265Z" stroke="#818181" stroke-width="1.375" stroke-linecap="round" stroke-linejoin="round"/>
<path d="M11.6875 5.66406L16.5 10.4766" stroke="#818181" stroke-width="1.375" stroke-linecap="round" stroke-linejoin="round"/>
<path d="M18.5627 18.7265H8.2502L3.48145 13.9578" stroke="#818181" stroke-width="1.375" stroke-linecap="round" stroke-linejoin="round"/>
</svg>
