<svg width="25" height="24" viewBox="0 0 25 24" fill="none" xmlns="http://www.w3.org/2000/svg">
<path d="M8.96927 5.0307C8.89959 4.96101 8.84431 4.87829 8.8066 4.78724C8.76889 4.6962 8.74948 4.59862 8.74948 4.50007C8.74948 4.40153 8.76889 4.30394 8.8066 4.2129C8.84431 4.12185 8.89959 4.03913 8.96927 3.96945C9.03895 3.89976 9.12168 3.84449 9.21272 3.80678C9.30377 3.76906 9.40135 3.74965 9.4999 3.74965C9.59844 3.74965 9.69602 3.76906 9.78707 3.80678C9.87811 3.84449 9.96084 3.89976 10.0305 3.96944L17.5305 11.4694C17.6003 11.5391 17.6556 11.6218 17.6933 11.7129C17.7311 11.8039 17.7505 11.9015 17.7505 12.0001C17.7505 12.0986 17.7311 12.1962 17.6933 12.2873C17.6556 12.3783 17.6003 12.461 17.5305 12.5307L10.0305 20.0307C9.88979 20.1714 9.69892 20.2505 9.4999 20.2505C9.30088 20.2505 9.11 20.1714 8.96927 20.0307C8.82854 19.89 8.74948 19.6991 8.74948 19.5001C8.74948 19.301 8.82854 19.1102 8.96927 18.9694L15.9396 12.0001L8.96927 5.0307Z" fill="black"/>
</svg>
