<svg width="20" height="21" viewBox="0 0 20 21" fill="none" xmlns="http://www.w3.org/2000/svg">
<path d="M12.9562 6.34088C13.5063 6.10635 14.0991 5.98549 14.6981 5.98569L12.9562 6.34088ZM12.9562 6.34088C12.4333 6.56385 11.9594 6.8851 11.561 7.28651M12.9562 6.34088L11.561 7.28651M11.561 7.28651C11.0324 6.91044 10.3969 6.70751 9.74415 6.70751C9.09128 6.70751 8.45565 6.91052 7.92698 7.28674C7.15994 6.52055 6.13112 6.06256 5.04005 6.0034C3.91962 5.94266 2.81788 6.30708 1.96041 7.02237C1.10291 7.73769 0.554549 8.74986 0.428026 9.85176C0.301502 10.9537 0.606459 12.0615 1.28017 12.9484C1.95384 13.8353 2.94517 14.434 4.05098 14.6224C5.15677 14.8109 6.29378 14.5748 7.22927 13.9624C8.16479 13.35 8.82812 12.4075 9.08302 11.3275C9.33096 10.277 9.17408 9.17409 8.64514 8.23295C8.96671 8.0103 9.35069 7.89014 9.74515 7.89014C10.1397 7.89014 10.5238 8.01035 10.8454 8.23309C10.3928 9.04348 10.2136 9.97628 10.3353 10.8956C10.461 11.8449 10.9005 12.7264 11.5853 13.4036C12.2701 14.0807 13.1619 14.5155 14.1222 14.6409C15.0826 14.7663 16.0581 14.5753 16.8974 14.0973C17.7368 13.6194 18.3931 12.8811 18.7644 11.9968C19.1356 11.1126 19.2009 10.132 18.9501 9.20728C18.6992 8.2826 18.1464 7.46575 17.3775 6.88335C16.6087 6.30097 15.6669 5.9855 14.6982 5.98569L11.561 7.28651ZM4.79002 13.4994C4.15543 13.4994 3.5352 13.3136 3.00775 12.9656C2.48029 12.6177 2.06938 12.1232 1.82678 11.5449C1.58419 10.9667 1.52074 10.3305 1.64439 9.71673C1.76805 9.10296 2.07331 8.53899 2.52176 8.09622C2.97024 7.65343 3.54178 7.35175 4.16418 7.22952C4.78659 7.10728 5.43172 7.17003 6.01794 7.40977C6.60415 7.64951 7.10499 8.0554 7.45726 8.57593C7.8095 9.09641 7.99744 9.70818 7.99746 10.3339C7.99644 11.1727 7.6585 11.9772 7.05735 12.5707C6.45615 13.1643 5.64078 13.4984 4.79002 13.4994ZM14.6981 13.4994C14.0635 13.4994 13.4432 13.3136 12.9158 12.9656C12.3883 12.6177 11.9774 12.1232 11.7348 11.5449C11.4922 10.9667 11.4288 10.3305 11.5524 9.71673C11.6761 9.10296 11.9813 8.53899 12.4298 8.09622C12.8783 7.65343 13.4498 7.35175 14.0722 7.22952C14.6946 7.10728 15.3398 7.17003 15.926 7.40977C16.5122 7.64951 17.013 8.0554 17.3653 8.57593C17.7175 9.09641 17.9055 9.70818 17.9055 10.3339C17.9045 11.1727 17.5665 11.9772 16.9654 12.5707C16.3642 13.1643 15.5488 13.4984 14.6981 13.4994Z" fill="white" stroke="white" stroke-width="0.2"/>
</svg>
