<svg width="25" height="24" viewBox="0 0 25 24" fill="none" xmlns="http://www.w3.org/2000/svg">
<path d="M16.0307 18.9693C16.1004 19.039 16.1557 19.1217 16.1934 19.2128C16.2311 19.3038 16.2505 19.4014 16.2505 19.4999C16.2505 19.5985 16.2311 19.6961 16.1934 19.7871C16.1557 19.8781 16.1004 19.9609 16.0307 20.0306C15.961 20.1002 15.8783 20.1555 15.7873 20.1932C15.6962 20.2309 15.5986 20.2503 15.5001 20.2503C15.4016 20.2503 15.304 20.2309 15.2129 20.1932C15.1219 20.1555 15.0392 20.1002 14.9695 20.0306L7.46948 12.5306C7.39974 12.4609 7.34443 12.3782 7.30668 12.2871C7.26894 12.1961 7.24951 12.0985 7.24951 11.9999C7.24951 11.9014 7.26894 11.8038 7.30668 11.7127C7.34443 11.6217 7.39974 11.539 7.46948 11.4693L14.9695 3.9693C15.1102 3.82857 15.3011 3.74951 15.5001 3.74951C15.6991 3.74951 15.89 3.82857 16.0307 3.9693C16.1715 4.11003 16.2505 4.30091 16.2505 4.49993C16.2505 4.69895 16.1715 4.88982 16.0307 5.03055L9.06041 11.9999L16.0307 18.9693Z" fill="#B6B6B6"/>
</svg>
